<?xml version="1.0" standalone="no"?>
<!DOCTYPE svg PUBLIC "-//W3C//DTD SVG 1.1//EN" "http://www.w3.org/Graphics/SVG/1.1/DTD/svg11.dtd" >
<svg>
<metadata>
Created by FontForge 20090914 at Wed Mar 27 21:17:28 2013
 By www-data
(C) SoftUnion Ltd., 1994. Created by N.Vsesvetskii.
</metadata>
<defs>
<font id="Simeiz" horiz-adv-x="469" >
  <font-face 
    font-family="Simeiz"
    font-weight="400"
    font-stretch="normal"
    units-per-em="1000"
    panose-1="2 7 6 4 7 5 6 2 2 4"
    ascent="800"
    descent="-200"
    x-height="500"
    cap-height="680"
    bbox="0 -181.002 979.996 845.001"
    underline-thickness="20"
    underline-position="-123"
    unicode-range="U+0020-U+2122"
  />
<missing-glyph horiz-adv-x="680" 
d="M42 0v680h596v-680h-596zM596 42v596h-512v-596h512z" />
    <glyph glyph-name=".notdef" horiz-adv-x="680" 
d="M42 0v680h596v-680h-596zM596 42v596h-512v-596h512z" />
    <glyph glyph-name="space" unicode=" " horiz-adv-x="500" 
 />
    <glyph glyph-name="exclam" unicode="!" horiz-adv-x="194" 
d="M97 691c13.333 0 25 -4.66699 35 -14c10 -8 15 -20 15 -36l-34 -440h-32l-34 440c0 15.333 5 27.5 15 36.5s21.667 13.5 35 13.5zM97 -11c-15.333 0 -28.667 5.33301 -40 16c-10.667 12 -16 25.333 -16 40c0 15.333 5.5 28.5 16.5 39.5s24.167 16.5 39.5 16.5
s28.333 -5.66699 39 -17c11.333 -10 17 -23 17 -39c0 -15.333 -5.5 -28.5 -16.5 -39.5s-24.167 -16.5 -39.5 -16.5z" />
    <glyph glyph-name="quotedbl" unicode="&#x22;" horiz-adv-x="275" 
d="M255 636c0 -8 -2 -17.667 -6 -29l-14 -31l-13 -36c-4 -12 -6 -26.333 -6 -43h-27c0 15.333 -1.83301 29 -5.5 41l-7 23c-1 3.33301 -3.5 8.33301 -7.5 15l-13 31c-4 10 -6 19.667 -6 29c0 13.333 5 25.833 15 37.5s22.333 17.5 37 17.5c14 0 26.333 -5.5 37 -16.5
s16 -23.833 16 -38.5zM125 636c0 -8 -2 -17.667 -6 -29l-14 -31l-13 -36c-4 -12 -6 -26.333 -6 -43h-27c0 15.333 -1.83301 29 -5.5 41l-7 23c-1 3.33301 -3.5 8.33301 -7.5 15l-13 31c-4 10 -6 19.667 -6 29c0 13.333 5 25.833 15 37.5s22.333 17.5 37 17.5
c14 0 26.333 -5.5 37 -16.5s16 -23.833 16 -38.5z" />
    <glyph glyph-name="numbersign" unicode="#" horiz-adv-x="509" 
d="M474 261h-150l-77 -261h-45l78 261h-122l-78 -261h-44l77 261h-78v41h91l38 124h-129v42h141l64 212h45l-64 -212h122l64 212h44l-64 -212h87v-42h-99l-38 -124h137v-41zM330 426h-122l-38 -124h123z" />
    <glyph glyph-name="dollar" unicode="$" horiz-adv-x="468" 
d="M448 193c0 -24 -4.17285 -47.6709 -12.5059 -71.0039s-20.666 -44.166 -36.999 -62.499s-37.5 -34.5 -63.5 -48.5c-23.333 -11.333 -51.666 -18.666 -84.999 -21.999v-79h-32v79c-20.667 0 -40.5 1.33301 -59.5 4s-37.167 7 -54.5 13c-33.333 12 -59.333 30.333 -78 55
v187h26c4 -38 11.5 -72.833 22.5 -104.5s22.5 -58.167 34.5 -79.5c7.33301 -15.333 20.833 -27.166 40.5 -35.499s42.5 -12.5 68.5 -12.5v301c-132 31.333 -198 95 -198 191c0 24.667 4 47 12 67s20.667 39 38 57c32 33.333 81.333 53 148 59v53h32v-53
c22.667 0 49.334 -3.33301 80.001 -10c32.667 -6 60 -13.333 82 -22v-189h-26c0 16.667 -1.16699 31 -3.5 43s-6.16602 25 -11.499 39c-6 20 -14 41 -24 63c-4.66699 12 -16.667 23.167 -36 33.5s-39.666 15.5 -60.999 15.5v-258c60.667 -14 108.834 -39.167 144.501 -75.5
s53.5 -82.166 53.5 -137.499zM217.994 415.996l0.000976562 248.001c-45.333 0 -79.333 -11.833 -102 -35.5s-34 -50.834 -34 -81.501c0 -30 10 -56 30 -78c19.333 -19.333 54.666 -37 105.999 -53zM249.995 306.997v-291c40 0 71.833 15.167 95.5 45.5
s35.5 63.833 35.5 100.5c0 34 -11 63.167 -33 87.5s-54.667 43.5 -98 57.5z" />
    <glyph glyph-name="percent" unicode="%" horiz-adv-x="756" 
d="M600 -11c-22.667 0 -42.501 5.66895 -59.501 17.002s-31 26.666 -42 45.999s-20.167 43.333 -27.5 72c-2.66699 13.333 -4.66699 26.5 -6 39.5s-2 28.167 -2 45.5c0 32.667 2.83301 61.667 8.5 87s14 47.666 25 66.999s25.333 35 43 47s37.834 18 60.501 18
s42.667 -5.83301 60 -17.5s31.5 -27.334 42.5 -47.001s19.5 -43.167 25.5 -70.5c2.66699 -13.333 4.66699 -26.5 6 -39.5s2 -27.833 2 -44.5c0 -29.333 -2.83301 -57.5 -8.5 -84.5s-14.167 -50.667 -25.5 -71s-25.5 -36.166 -42.5 -47.499s-36.833 -17 -59.5 -17z
M599.999 9.00195c12.667 0 23.998 5.50293 33.998 16.5029s18 25.5 24 43.5s11 39.333 15 64c2 16.667 3.33301 29 4 37s1 21 1 39c0 13.333 -0.333008 26.666 -1 39.999s-2 26 -4 38c0 11.333 -1.16699 22.166 -3.5 32.499s-5.83301 20.5 -10.5 30.5
c-6 18.667 -14.333 32.667 -25 42c-9.33301 10.667 -20.666 16 -33.999 16c-12.667 0 -24 -5 -34 -15s-18.667 -24.333 -26 -43c-2.66699 -8.66699 -5.33398 -19.334 -8.00098 -32.001s-5 -26.667 -7 -42s-3.16699 -28.666 -3.5 -39.999s-0.5 -20.333 -0.5 -27
c0 -12.667 0.333008 -25.334 1 -38.001s2.33398 -28.667 5.00098 -48s7 -37.5 13 -54.5s14.333 -31.167 25 -42.5s22.334 -17 35.001 -17zM554.997 680.005l-325 -680h-34l326 680h33zM156.997 252.005c-23.333 0 -43.666 5.66699 -60.999 17c-16 12 -29.5 27.5 -40.5 46.5
s-20.167 42.833 -27.5 71.5c-2.66699 13.333 -4.66699 26.5 -6 39.5s-2 28.167 -2 45.5c0 32.667 2.83301 61.667 8.5 87s14 47.5 25 66.5s25.167 34.667 42.5 47s37.666 18.5 60.999 18.5c22.667 0 42.667 -5.83301 60 -17.5s31.5 -27.334 42.5 -47.001
s19.5 -43.167 25.5 -70.5c2.66699 -13.333 4.66699 -26.5 6 -39.5s2 -27.833 2 -44.5c0 -29.333 -2.83301 -57.5 -8.5 -84.5s-14.167 -50.667 -25.5 -71s-25.5 -36.166 -42.5 -47.499s-36.833 -17 -59.5 -17zM156.997 272.005c12 0 23.165 5.50293 33.498 16.5029
s18.5 25.5 24.5 43.5s11 39.333 15 64c2 16.667 3.33301 29 4 37s1 21 1 39c0 13.333 -0.333008 26.666 -1 39.999s-2 26 -4 38c0 11.333 -1.16699 22.166 -3.5 32.499s-5.83301 20.5 -10.5 30.5c-6 18.667 -14.333 32.667 -25 42c-9.33301 10.667 -20.666 16 -33.999 16
c-12.667 0 -24 -5 -34 -15s-18.667 -24.333 -26 -43c-2.66699 -8.66699 -5.33398 -19.334 -8.00098 -32.001s-5 -26.667 -7 -42s-3.16699 -28.666 -3.5 -39.999s-0.5 -20.333 -0.5 -27c0 -12.667 0.333008 -25.334 1 -38.001s2.33398 -28.667 5.00098 -48s7 -37.5 13 -54.5
s14.333 -31.167 25 -42.5s22.334 -17 35.001 -17z" />
    <glyph glyph-name="ampersand" unicode="&#x26;" horiz-adv-x="608" 
d="M588 0l-129.997 -0.00292969l-44 63l-39 -30l-38 -23c-12 -6 -25.833 -11 -41.5 -15s-33.834 -6 -54.501 -6c-73.333 0 -128.5 17.167 -165.5 51.5s-55.5 78.5 -55.5 132.5c0 35.333 12.333 70 37 104s67.667 69.667 129 107c-24.667 35.333 -42 67.333 -52 96
s-15 53.334 -15 74.001c0 20 4.5 38 13.5 54s21 29.833 36 41.5s32.833 21.834 53.5 30.501c9.33301 3.33301 19.166 6 29.499 8s21.166 3 32.499 3c44.667 0 81.167 -10.167 109.5 -30.5s42.5 -48.833 42.5 -85.5c0 -32 -14.5 -63.167 -43.5 -93.5
s-67.167 -56.166 -114.5 -77.499l171 -248c13.333 26.667 23.333 54.334 30 83.001c2.66699 13.333 5 28.5 7 45.5s3 34.167 3 51.5h-83v20h161v-20h-50c0 -20 -1 -38.333 -3 -55s-5.66699 -34.334 -11 -53.001c-8 -35.333 -20.333 -67.333 -37 -96l78 -112h44v-20z
M363.003 569.997c0 26 -7.66699 48.667 -23 68s-37 29 -65 29c-24.667 0 -45.5 -9 -62.5 -27s-25.5 -39.333 -25.5 -64c0 -8 3 -21 9 -39s14.333 -34.333 25 -49l44 -63c65.333 40 98 88.333 98 145zM399.003 83.9971l-197.999 279.004c-40 -24 -67.333 -49.667 -82 -77
c-6.66699 -13.333 -11.667 -26.333 -15 -39s-5 -26.334 -5 -41.001c0 -25.333 4 -49.333 12 -72s19.667 -42.334 35 -59.001s33 -30.334 53 -41.001c20.667 -9.33301 42.334 -14 65.001 -14l32 1c11.333 0 22.666 2.16699 33.999 6.5s22.666 10.833 33.999 19.5
c11.333 7.33301 23 19.666 35 36.999z" />
    <glyph glyph-name="quotesingle" unicode="'" horiz-adv-x="152" 
d="M74 579c-13.333 0 -25.999 5.00098 -37.999 15.001c-10.667 10.667 -16 23.667 -16 39c0 16 5.16699 29.667 15.5 41s23.166 17 38.499 17c16 0 29.667 -5.66699 41 -17s17 -25.333 17 -42c0 -29.333 -8.83301 -56.333 -26.5 -81s-39.5 -45.334 -65.5 -62.001l-15 20
c12.667 8 25 19.667 37 35c11.333 12.667 18 24.667 20 36z" />
    <glyph glyph-name="parenleft" unicode="(" horiz-adv-x="265" 
d="M245 -77l-14.999 -16.001c-30.667 20.667 -57.334 45.834 -80.001 75.501s-42.167 63.834 -58.5 102.501s-29 81.5 -38 128.5s-13.5 93.167 -13.5 138.5c0 91.333 17 175.166 51 251.499s80.333 135.166 139 176.499l15 -16c-22 -20 -40.5 -45.5 -55.5 -76.5
s-27 -63.833 -36 -98.5s-15.833 -73.334 -20.5 -116.001s-7 -83.334 -7 -122.001c0 -20.667 0.333008 -41.667 1 -63s2.5 -48.166 5.5 -80.499s9 -67.666 18 -105.999s21 -72.666 36 -102.999s34.5 -55.5 58.5 -75.5z" />
    <glyph glyph-name="parenright" unicode=")" horiz-adv-x="265" 
d="M225 352c0 -49.333 -4.16211 -96.0068 -12.4951 -140.007s-20.833 -85.667 -37.5 -125s-36.334 -73.666 -59.001 -102.999s-49.334 -55 -80.001 -77l-16 16c22.667 18.667 41.834 43.334 57.501 74.001s28 64.834 37 102.501s15.5 78.334 19.5 122.001
s6 86.834 6 129.501c0 37.333 -2.16699 77.166 -6.5 119.499s-11 81.333 -20 117s-21 68.834 -36 99.501s-34.167 56.334 -57.5 77.001l16 16c29.333 -22 55.166 -47.167 77.499 -75.5s42.166 -62.166 59.499 -101.499c7.33301 -16 14.166 -34 20.499 -54
s12.166 -41.667 17.499 -65c9.33301 -43.333 14 -87.333 14 -132z" />
    <glyph glyph-name="asterisk" unicode="*" horiz-adv-x="392" 
d="M369 402l-3 -5.99512l-3 -7c-7.33301 -5.33301 -15.333 -8.66602 -24 -9.99902c-8 0 -15.333 2.33301 -22 7c-10.667 6.66699 -24.667 18 -42 34c-17.333 17.333 -38.666 33.333 -63.999 48c0 -30.667 3.33301 -57.834 10 -81.501s10 -41.167 10 -52.5
c0 -9.33301 -3 -18 -9 -26c-5.33301 -5.33301 -13.666 -8.66602 -24.999 -9.99902c-10 0 -18.667 3.33301 -26 10c-6 7.33301 -9 16 -9 26c0 11.333 3.16699 29.166 9.5 53.499s9.5 49.5 9.5 75.5v6c-24.667 -14.667 -45.667 -31 -63 -49
c-14.667 -15.333 -28.667 -27 -42 -35c-6 -4 -12.667 -6 -20 -6c-8 0 -15.333 3.33301 -22 10l-6 6l-4 8c-1.33301 4 -2 7.66699 -2 11c0 2 0.666992 5.66699 2 11c3.33301 8 9.66602 14.667 18.999 20s26.333 11.166 51 17.499s49 16.833 73 31.5
c-24.667 14 -49.334 24.333 -74.001 31c-12.667 3.33301 -23.334 6.5 -32.001 9.5s-16.334 6.5 -23.001 10.5s-12 10.333 -16 19c-0.666992 2 -1 4.16699 -1 6.5v4.5c0 2 0.666992 5.66699 2 11l10 14c6 6 13 9 21 9c6 0 12.333 -1.66699 19 -5s13.5 -7.83301 20.5 -13.5
s14.833 -13.167 23.5 -22.5c16 -14.667 37.333 -30.334 64 -47.001c0 30.667 -3.16699 57.5 -9.5 80.5s-9.5 40.833 -9.5 53.5c0 9.33301 3 17.666 9 24.999s14.667 11 26 11c10 0 18.167 -3.33301 24.5 -10s9.5 -15.334 9.5 -26.001c0 -10 -0.666992 -17.833 -2 -23.5
s-4.33301 -16.167 -9 -31.5c-6 -24 -9 -50.333 -9 -79l3 1c24.667 14 45 29.167 61 45.5s30 28.5 42 36.5c7.33301 4 14 6 20 6c11.333 0 21 -6 29 -18c4 -6.66699 5.33301 -14.667 4 -24l-6 -13c-2 -4 -6.33301 -7.33301 -13 -10c-9.33301 -6 -26.166 -12.333 -50.499 -19
s-49.166 -17.334 -74.499 -32.001c24 -13.333 48.333 -23.666 73 -30.999c24 -6 41.667 -12.333 53 -19c9.33301 -4 15.333 -10.333 18 -19c0.666992 -2.66699 1 -6.66699 1 -12c0 -4.66699 -0.666992 -8.33398 -2 -11.001z" />
    <glyph glyph-name="plus" unicode="+" horiz-adv-x="572" 
d="M532 329h-222v-221h-48v221h-222v48h222v222h48v-222h222v-48z" />
    <glyph glyph-name="comma" unicode="," horiz-adv-x="189" 
d="M94 -11c-13.333 0 -25.999 5 -37.999 15c-10.667 10.667 -16 23.667 -16 39c0 16 5.16699 29.667 15.5 41s23.166 17 38.499 17c16 0 29.667 -5.66699 41 -17s17 -25.333 17 -42c0 -30 -8.66699 -56.833 -26 -80.5s-39.333 -44.5 -66 -62.5l-15 20
c12.667 8 25 19.667 37 35c11.333 12.667 18 24.667 20 36z" />
    <glyph glyph-name="hyphen" unicode="-" horiz-adv-x="296" 
d="M276 232h-256v65h256v-65z" />
    <glyph glyph-name="period" unicode="." horiz-adv-x="194" 
d="M97 -11c-15.333 0 -28.667 5.33301 -40 16c-10.667 12 -16 25.333 -16 40c0 15.333 5.5 28.5 16.5 39.5s24.167 16.5 39.5 16.5s28.333 -5.66699 39 -17c11.333 -10 17 -23 17 -39c0 -15.333 -5.5 -28.5 -16.5 -39.5s-24.167 -16.5 -39.5 -16.5z" />
    <glyph glyph-name="slash" unicode="/" horiz-adv-x="446" 
d="M441 753l-386 -826h-50l386 826h50z" />
    <glyph glyph-name="zero" unicode="0" 
d="M449 342c0 -25.333 -0.998047 -48.665 -2.99805 -69.998s-5.66699 -43.666 -11 -66.999c-8 -42.667 -21.167 -80 -39.5 -112s-40.833 -57.333 -67.5 -76s-58 -28 -94 -28c-35.333 0 -66.333 9.16699 -93 27.5s-48.834 43.166 -66.501 74.499s-31.834 69.333 -42.501 114
c-8.66699 45.333 -13 90.666 -13 135.999c0 51.333 4.5 98.333 13.5 141s22.5 79.167 40.5 109.5s40.5 54.5 67.5 72.5s58.167 27 93.5 27c36 0 67.167 -9.16699 93.5 -27.5s48.5 -42.833 66.5 -73.5s31.667 -67.834 41 -111.501s14 -89.167 14 -136.5zM234.002 667.001
c-24 0 -43.5 -7.33105 -58.5 -21.998s-27.5 -36.334 -37.5 -65.001c-8 -28 -14 -62.333 -18 -103c0 -16 -0.833008 -40.167 -2.5 -72.5s-2.5 -53.5 -2.5 -63.5l3 -133c0 -18 1.33301 -35.833 4 -53.5s6 -34.167 10 -49.5c8 -27.333 20 -50 36 -68c16 -16 38 -24 66 -24
c20.667 0 39 8 55 24c14.667 16 27 38.667 37 68s17 64 21 104c2 20 3.66699 41 5 63s2 45.667 2 71c0 51.333 -2 96.166 -6 134.499s-10.667 72.5 -20 102.5c-16 58 -47.333 87 -94 87z" />
    <glyph glyph-name="one" unicode="1" 
d="M354 0h-205.002v20h68v564l-53 -50c-19.333 -16.667 -37.666 -29 -54.999 -37l-14 14c5.33301 4 14 11 26 21c6.66699 5.33301 13.334 11 20.001 17l48 46l44 48c6 6.66699 12.333 14.667 19 24l16 24h36v-671h50v-20z" />
    <glyph glyph-name="two" unicode="2" 
d="M426 513c0 -32 -5.99805 -63 -17.998 -93c-10.667 -30 -26.334 -59 -47.001 -87s-44.5 -55.167 -71.5 -81.5s-56.5 -53.166 -88.5 -80.499l-119 -92h310v93h22v-172h-380v75l130 118c64 60 108.167 117.667 132.5 173s36.5 104.666 36.5 147.999
c0 51.333 -11.167 89.666 -33.5 114.999s-48.5 38 -78.5 38c-12 0 -22 -0.666992 -30 -2s-16.667 -4.33301 -26 -9c-16 -6 -27.333 -16.333 -34 -31l-16 -36l-12 -35l-9 -43l-7 -56h-24v200c9.33301 4.66699 22.833 9.83398 40.5 15.501s31.5 9.5 41.5 11.5s23.167 4 39.5 6
s30.833 3 43.5 3c61.333 0 109.666 -16.167 144.999 -48.5s53 -75.5 53 -129.5z" />
    <glyph glyph-name="three" unicode="3" 
d="M440 181c0 -28 -6.16992 -53.502 -18.5029 -76.502s-28.833 -43.5 -49.5 -61.5c-20 -16 -43.667 -29.333 -71 -40c-26.667 -9.33301 -54.334 -14 -83.001 -14c-35.333 0 -68.333 4.66699 -99 14s-56.334 22.333 -77.001 39v185h25
c2.66699 -18.667 5.16699 -32.667 7.5 -42s6.5 -23.666 12.5 -42.999c8.66699 -32 19.334 -59 32.001 -81c6.66699 -13.333 20.334 -25 41.001 -35c13.333 -5.33301 24.5 -8.83301 33.5 -10.5s17.5 -2.5 25.5 -2.5c35.333 0 65.333 15 90 45s37 68 37 114
c0 52.667 -11.167 94.167 -33.5 124.5s-55.166 45.5 -98.499 45.5h-43l-2 5l-1 8l1 8l2 5h43c34 0 62.167 14.5 84.5 43.5s33.5 66.833 33.5 113.5c0 45.333 -10.333 80.333 -31 105s-49 37 -85 37c-15.333 0 -32.166 -3.66699 -50.499 -11s-31.166 -17.666 -38.499 -30.999
c-10.667 -22.667 -20.334 -48.334 -29.001 -77.001c-6 -26.667 -11 -55.334 -15 -86.001h-25v193c9.33301 4.66699 22.833 9.83398 40.5 15.501s31.5 9.5 41.5 11.5s23.167 4 39.5 6s30.833 3 43.5 3c60.667 0 109 -14 145 -42s54 -69.333 54 -124c0 -40 -12 -74 -36 -102
s-58.667 -50 -104 -66l1 -3c22 -4.66699 42.333 -12.667 61 -24s35.334 -24.666 50.001 -39.999s26 -32.333 34 -51s12 -38 12 -58z" />
    <glyph glyph-name="four" unicode="4" 
d="M452 209l-83 -0.000976562v-189h48v-20h-211v20h77v189h-273v37c14 28.667 34.333 64.334 61 107.001l42 63l45 65c19.333 27.333 30.333 43 33 47l57 75c32 40 56.667 69.333 74 88h47v-445h83v-37zM283 245.999l0.000976562 343.999
c-8.66699 -7.33301 -22.334 -22.666 -41.001 -45.999l-59 -78l-69 -101l-73 -119h242z" />
    <glyph glyph-name="five" unicode="5" 
d="M426 233c0 -32.667 -5.16895 -63.666 -15.502 -92.999s-25.833 -55.333 -46.5 -78c-18 -20.667 -41 -38.334 -69 -53.001c-13.333 -6.66699 -27 -11.667 -41 -15s-29.667 -5 -47 -5c-29.333 0 -58.666 4.66699 -87.999 14s-53.333 21.333 -72 36v173h26l7 -43l9 -45
l10 -40l12 -32c4.66699 -15.333 16.667 -26 36 -32c10 -2 19.833 -3.66699 29.5 -5s19.834 -2 30.501 -2c34.667 0 64.5 19.333 89.5 58s37.5 94.667 37.5 168c0 64 -11.833 112 -35.5 144s-56.5 48 -98.5 48c-26 0 -48 -8.33301 -66 -25s-35.333 -43 -52 -79h-26v353h330
v-78h-304v-211c21.333 26.667 44.166 45 68.499 55s48.5 15 72.5 15c28.667 0 54.5 -5.5 77.5 -16.5s44.833 -27.167 65.5 -48.5c16.667 -18.667 31.334 -42.667 44.001 -72c10.667 -30 16 -60.333 16 -91z" />
    <glyph glyph-name="six" unicode="6" 
d="M442 215c0 -15.333 -1.00195 -29.6699 -3.00195 -43.0029s-5.66699 -27.333 -11 -42c-8 -26 -20.5 -49.333 -37.5 -70s-38.5 -37.667 -64.5 -51s-55 -20 -87 -20c-35.333 0 -66.333 9 -93 27s-49 42.333 -67 73c-14.667 28 -27.334 63.333 -38.001 106
c-8 40 -12 82 -12 126c0 48.667 4.5 95 13.5 139s23.167 82.667 42.5 116s44.333 61.333 75 84c15.333 10 31.833 17.667 49.5 23s37.834 8 60.501 8s47 -3 73 -9c24.667 -4.66699 43.334 -12 56.001 -22v-168h-26c-2 16.667 -4 31.167 -6 43.5s-5.66699 26.5 -11 42.5
c-8.66699 28.667 -17.167 48.334 -25.5 59.001s-17.5 18.334 -27.5 23.001s-21.667 7 -35 7c-25.333 0 -48 -9 -68 -27c-18 -18 -32.833 -41 -44.5 -69s-20.5 -61.667 -26.5 -101c-2 -18.667 -3.66699 -37.5 -5 -56.5s-2 -38.5 -2 -58.5
c20 30.667 39.833 52.334 59.5 65.001s46.834 19 81.501 19c54 0 97.333 -19.833 130 -59.5s49 -94.5 49 -164.5zM346.998 214.996c0 63.333 -8 111.833 -24 145.5s-44 50.5 -84 50.5c-19.333 0 -35.5 -5.33301 -48.5 -16s-24.5 -25.334 -34.5 -44.001
c-7.33301 -16.667 -13.333 -37.167 -18 -61.5s-7 -49.166 -7 -74.499c0 -61.333 10.5 -110.333 31.5 -147s46.5 -55 76.5 -55c41.333 0 70 17.667 86 53c14.667 38 22 87.667 22 149z" />
    <glyph glyph-name="seven" unicode="7" 
d="M46 680l392 0.000976562v-20l-67 -133c-22 -44.667 -41.5 -90.667 -58.5 -138s-31.5 -97.833 -43.5 -151.5s-18 -107.834 -18 -162.501v-55h46v-20h-199v20h57v66c0 55.333 7 106 21 152s32 89 54 129l34 58.5c12.667 21 25 40.5 37 58.5c24 34 48.333 72 73 114h-304
l-8 -108h-24z" />
    <glyph glyph-name="eight" unicode="8" 
d="M451 178c0 -27.333 -5.16699 -52.335 -15.5 -75.002s-25.166 -42.667 -44.499 -60s-42.333 -30.666 -69 -39.999s-55.334 -14 -86.001 -14c-31.333 0 -60.666 5 -87.999 15s-50.666 23.333 -69.999 40c-16.667 16 -31.334 36 -44.001 60
c-10.667 24.667 -16 49.334 -16 74.001c0 46 12.667 85.833 38 119.5s62.333 54.5 111 62.5c-36.667 12 -66.334 31.833 -89.001 59.5s-34 60.5 -34 98.5c0 53.333 18.167 95.5 54.5 126.5s81.833 46.5 136.5 46.5c54 0 99.333 -15.333 136 -46s55 -73 55 -127
c0 -38 -12 -70.667 -36 -98s-53.333 -47 -88 -59l1 -2c44 -10 79.667 -31.5 107 -64.5s41 -71.833 41 -116.5zM234 666.998c-29.333 0 -54 -12 -74 -36c-18.667 -24.667 -28 -62 -28 -112c0 -46 9.5 -81.667 28.5 -107s43.833 -38 74.5 -38
c29.333 0 53.833 12.167 73.5 36.5s29.5 60.5 29.5 108.5c0 49.333 -9.33301 86.333 -28 111s-44 37 -76 37zM354 177.998c0 22.667 -1.50195 41.668 -4.50195 57.001s-5.16699 25.333 -6.5 30c-3.33301 10.667 -8.33301 21.334 -15 32.001
c-9.33301 15.333 -21.666 27.333 -36.999 36c-3.33301 2 -10.166 4.66699 -20.499 8s-22.166 5 -35.499 5c-25.333 0 -45.333 -4.66699 -60 -14c-14.667 -8 -26.334 -19.667 -35.001 -35s-14.5 -31.833 -17.5 -49.5s-4.83301 -29.834 -5.5 -36.501s-1 -17.667 -1 -33
c0 -60 11.667 -102.5 35 -127.5s51.333 -37.5 84 -37.5c32 0 59.833 12.167 83.5 36.5s35.5 67.166 35.5 128.499z" />
    <glyph glyph-name="nine" unicode="9" 
d="M438 360c0 -26 -1.00195 -50.165 -3.00195 -72.498s-5.66699 -45.5 -11 -69.5c-8 -43.333 -21.667 -82.333 -41 -117s-44.333 -62 -75 -82s-67.334 -30 -110.001 -30h-25c-8 2 -16.5 3.66699 -25.5 5s-14.5 2.16602 -16.5 2.49902s-8.16699 2.16602 -18.5 5.49902
l-23.5 7.5c-5.33301 1.66699 -12.5 4.5 -21.5 8.5s-16.833 9 -23.5 15v194h25l9 -51c2.66699 -12.667 4.83398 -22 6.50098 -28s3.83398 -13.333 6.50098 -22l7 -22c2 -6 5.66699 -14 11 -24l17 -33c13.333 -22.667 38 -34 74 -34c26.667 0 49.334 8 68.001 24
s33.834 38.167 45.501 66.5s20 62.333 25 102s7.5 80.5 7.5 122.5c-18.667 -28.667 -38.667 -48.334 -60 -59.001c-22 -9.33301 -49 -14 -81 -14c-52.667 0 -95.667 18.667 -129 56s-50 91 -50 161c0 26 4 52.167 12 78.5s20 49.833 36 70.5s37.5 37.5 64.5 50.5
s57.167 19.5 90.5 19.5c36 0 67.167 -8.83301 93.5 -26.5s48.166 -41.667 65.499 -72s30 -65.666 38 -105.999s12 -82.5 12 -126.5zM336.998 472.002c0 59.333 -9.66602 106.666 -28.999 141.999s-45.333 53 -78 53c-40 0 -68 -15.167 -84 -45.5s-24 -80.166 -24 -149.499
c0 -65.333 8.16699 -113.166 24.5 -143.499s43.833 -45.5 82.5 -45.5c37.333 0 64.666 18.167 81.999 54.5s26 81.166 26 134.499z" />
    <glyph glyph-name="colon" unicode=":" horiz-adv-x="194" 
d="M97 -11c-15.333 0 -28.667 5.33301 -40 16c-10.667 12 -16 25.333 -16 40c0 15.333 5.5 28.5 16.5 39.5s24.167 16.5 39.5 16.5s28.333 -5.66699 39 -17c11.333 -10 17 -23 17 -39c0 -15.333 -5.5 -28.5 -16.5 -39.5s-24.167 -16.5 -39.5 -16.5zM96.999 319
c-15.333 0 -28.667 5.33301 -40 16c-10.667 12 -16 25.333 -16 40c0 15.333 5.5 28.5 16.5 39.5s24.167 16.5 39.5 16.5s28.333 -5.66699 39 -17c11.333 -10 17 -23 17 -39c0 -15.333 -5.5 -28.5 -16.5 -39.5s-24.167 -16.5 -39.5 -16.5z" />
    <glyph glyph-name="semicolon" unicode=";" horiz-adv-x="194" 
d="M95 -11c-14.667 0 -27.333 5 -38 15s-16 23 -16 39c0 15.333 5 28.833 15 40.5s23 17.5 39 17.5s29.667 -5.66699 41 -17s17 -25.333 17 -42c0 -30 -8.66699 -56.833 -26 -80.5s-39.333 -44.5 -66 -62.5l-15 20c12.667 8 25 19.667 37 35c11.333 12.667 18 24.667 20 36z
M97.001 298c-15.333 0 -28.667 5.33301 -40 16c-10.667 12 -16 25.333 -16 40c0 15.333 5.5 28.5 16.5 39.5s24.167 16.5 39.5 16.5s28.333 -5.66699 39 -17c11.333 -10 17 -23 17 -39c0 -15.333 -5.5 -28.5 -16.5 -39.5s-24.167 -16.5 -39.5 -16.5z" />
    <glyph glyph-name="less" unicode="&#x3c;" horiz-adv-x="475" 
d="M435 157l-25 -43l-370 214v48l370 213l25 -42l-337 -195z" />
    <glyph glyph-name="equal" unicode="=" horiz-adv-x="569" 
d="M529 394h-489v48h489v-48zM529 261h-489v48h489v-48z" />
    <glyph glyph-name="greater" unicode="&#x3e;" horiz-adv-x="475" 
d="M435 328l-370 -214l-25 43l338 195l-338 195l25 42l370 -213v-48z" />
    <glyph glyph-name="question" unicode="?" horiz-adv-x="408" 
d="M40 462l-0.000976562 205.002c3.33301 1.33301 10.333 3.33301 21 6l45 11c13.333 2 26.833 3.66699 40.5 5s28.167 2 43.5 2c62 0 110.5 -13.667 145.5 -41s52.5 -63.333 52.5 -108c0 -27.333 -4.66699 -51 -14 -71s-21.666 -38.333 -36.999 -55
c-12.667 -13.333 -28 -27 -46 -41l-47 -35l-20 -17c-5.33301 -4.66699 -10.666 -10.667 -15.999 -18c-9.33301 -11.333 -14 -24.666 -14 -39.999v-53h-26v53c0 20.667 6 41 18 61l39 61c14 21.333 27 44.166 39 68.499s18 52.833 18 85.5c0 7.33301 -0.5 14.666 -1.5 21.999
s-4.16699 16.333 -9.5 27c-6 15.333 -14.667 28.666 -26 39.999c-10 11.333 -20.5 20 -31.5 26s-21.833 9.66699 -32.5 11c-13.333 0 -27.333 -3.66699 -42 -11s-24.834 -16.5 -30.501 -27.5s-13.5 -30.5 -23.5 -58.5c-6.66699 -22.667 -13 -58.667 -19 -108h-26z
M180.999 -10.998c-15.333 0 -28.667 5.33301 -40 16c-10.667 12 -16 25.333 -16 40c0 15.333 5.5 28.5 16.5 39.5s24.167 16.5 39.5 16.5s28.333 -5.66699 39 -17c11.333 -10 17 -23 17 -39c0 -15.333 -5.5 -28.5 -16.5 -39.5s-24.167 -16.5 -39.5 -16.5z" />
    <glyph glyph-name="at" unicode="@" horiz-adv-x="824" 
d="M804 255c0 -22 -2.83691 -46.668 -8.50391 -74.001s-13.834 -55.666 -24.501 -84.999s-29.334 -54.5 -56.001 -75.5s-52.334 -31.5 -77.001 -31.5c-36 0 -66.833 7.5 -92.5 22.5s-40.167 38.167 -43.5 69.5c-14 -28 -32.333 -50.333 -55 -67s-57.667 -25 -105 -25
c-37.333 0 -68.666 11.833 -93.999 35.5s-38 53.834 -38 90.501c0 28 5 50.833 15 68.5s24 32.5 42 44.5s37.667 21.333 59 28l63 18l58 18c17.333 6 32 15 44 27v79c0 24.667 -8.83301 45.834 -26.5 63.501s-39.5 26.5 -65.5 26.5c-16.667 0 -30.5 -3.16699 -41.5 -9.5
s-20.5 -13.833 -28.5 -22.5c-8 -11.333 -16.667 -30.666 -26 -57.999c-2.66699 -8.66699 -5.5 -20.334 -8.5 -35.001s-5.83301 -30.334 -8.5 -47.001h-26v150c16.667 14.667 37.834 26 63.501 34s52.167 12 79.5 12c22.667 0 43.834 -2.16699 63.501 -6.5
s37.834 -12 54.501 -23s30.167 -25.667 40.5 -44s15.5 -40.833 15.5 -67.5v-288c0 -17.333 6 -33 18 -47c12.667 -12.667 27.334 -19 44.001 -19c10.667 0 20.834 2 30.501 6s19.834 10.667 30.501 20c19.333 17.333 34 39 44 65c8 22.667 15 46 21 70
c5.33301 25.333 8 51 8 77c0 57.333 -9.33301 110.166 -28 158.499s-44.334 90.5 -77.001 126.5s-71.334 65 -116.001 87c-21.333 10.667 -43.5 18.667 -66.5 24s-47.5 8 -73.5 8c-51.333 0 -98.333 -10.5 -141 -31.5s-80.5 -50 -113.5 -87s-59.167 -79.833 -78.5 -128.5
c-9.33301 -24.667 -16.333 -49.667 -21 -75s-7 -52.666 -7 -81.999c0 -56 9.33301 -108.333 28 -157s44.334 -91.334 77.001 -128.001s71.167 -65.834 115.5 -87.501s91.166 -32.5 140.499 -32.5c20.667 0 43.167 3.33301 67.5 10s46.833 15.334 67.5 26.001
c25.333 10.667 47.333 23.334 66 38.001c20.667 14.667 38.667 30 54 46l29 -8c-14 -18.667 -32.5 -37 -55.5 -55s-47 -33.333 -72 -46s-51.5 -22.834 -79.5 -30.501s-53.667 -11.5 -77 -11.5c-54.667 0 -105.5 11.167 -152.5 33.5s-88.167 53.5 -123.5 93.5
s-63.666 86.333 -84.999 139c-10 26.667 -17.667 54 -23 82s-8 57.333 -8 88c0 60.667 10.167 117.167 30.5 169.5s48.166 98.5 83.499 138.5s77.333 71.333 126 94s99.334 34 152.001 34c54 0 104.667 -11.167 152 -33.5s88.833 -53.5 124.5 -93.5
s63.834 -86.667 84.501 -140c10 -26 17.667 -53 23 -81s8 -57.333 8 -88zM490.996 288.999c-16.667 -10 -36.667 -18.999 -60 -26.999c-22 -6 -43 -14 -63 -24s-37.167 -24.333 -51.5 -43s-21.5 -44.334 -21.5 -77.001c0 -27.333 7.33301 -51.333 22 -72s33.667 -31 57 -31
c12 0 24.833 3.16699 38.5 9.5s26 15.833 37 28.5s20.667 28.5 29 47.5s12.5 40.833 12.5 65.5v123z" />
    <glyph glyph-name="A" unicode="A" horiz-adv-x="567" 
d="M567 0h-212v20h70l-80 250h-196l-78 -250h81v-20h-152v20h42l206 660h60l217 -660h42v-20zM340 290l-92 295l-94 -295h186z" />
    <glyph glyph-name="B" unicode="B" horiz-adv-x="551" 
d="M531 185c0 -26 -5.16699 -50.166 -15.5 -72.499s-25 -41.833 -44 -58.5s-41.833 -29.834 -68.5 -39.501s-55 -14.5 -85 -14.5h-298v20h54v640h-54v20h279c57.333 0 104 -15.667 140 -47s54 -72 54 -122c0 -34 -13 -64.167 -39 -90.5s-60 -45.5 -102 -57.5v-5
c53.333 -4.66699 96.5 -22.5 129.5 -53.5s49.5 -70.833 49.5 -119.5zM396 511.001c0 18 -3 36 -9 54s-14.833 33.833 -26.5 47.5s-26.834 25 -45.501 34s-38.667 13.5 -60 13.5h-89v-286h95c21.333 0 39.5 3.5 54.5 10.5s28.833 16.833 41.5 29.5s22.334 27.667 29.001 45
c2.66699 7.33301 5 15.5 7 24.5s3 18.167 3 27.5zM435 187.001c0 20 -3.83301 39.8311 -11.5 59.498s-17.834 36.334 -30.501 50.001s-29 25.834 -49 36.501c-19.333 8.66699 -39.666 13 -60.999 13h-117v-326h132c20 0 38 4.16699 54 12.5s30.333 20.166 43 35.499
s22.5 33.333 29.5 54s10.5 42.334 10.5 65.001z" />
    <glyph glyph-name="C" unicode="C" horiz-adv-x="488" 
d="M468 44c-16.667 -21.333 -40.501 -35.835 -71.501 -43.502s-62.5 -11.5 -94.5 -11.5c-42.667 0 -81.167 7.83301 -115.5 23.5s-64.833 38.834 -91.5 69.501c-23.333 29.333 -42 66 -56 110c-12.667 45.333 -19 94 -19 146c0 48.667 6.33301 93.834 19 135.501
s31.167 78.667 55.5 111s54.5 58.166 90.5 77.499s75.667 29 119 29c22.667 0 47.667 -3 75 -9s54.333 -17 81 -33v-176h-25c-4 31.333 -11 60.666 -21 87.999s-19.333 50 -28 68c-6 11.333 -17 20.5 -33 27.5s-32.333 10.5 -49 10.5c-28 0 -52.833 -8.66699 -74.5 -26
s-40.334 -41.333 -56.001 -72s-27.667 -65.5 -36 -104.5s-12.5 -80.167 -12.5 -123.5c0 -50.667 4.16699 -95.667 12.5 -135s20.333 -73.166 36 -101.499s34.834 -51.166 57.501 -68.499c22.667 -15.333 46.667 -23 72 -23c20.667 0 40 4.5 58 13.5s30.333 22 37 39
s14.334 41.5 23.001 73.5l21 98h26v-193z" />
    <glyph glyph-name="D" unicode="D" horiz-adv-x="551" 
d="M531 346c0 -24 -1.33398 -47.334 -4.00098 -70.001s-7 -44.667 -13 -66c-10.667 -41.333 -29 -78 -55 -110c-23.333 -29.333 -54.666 -53.333 -93.999 -72s-87 -28 -143 -28h-202v20h54v640h-54v20h204c54 0 99.667 -8 137 -24s69.333 -39.333 96 -70
c24 -28 42.333 -62.667 55 -104s19 -86.666 19 -135.999zM424.999 346.999c0 28 -1.33594 54 -4.00293 78s-7 46 -13 66c-11.333 40 -26.666 72.333 -45.999 97c-17.333 24.667 -39.166 42.834 -65.499 54.501s-53.166 17.5 -80.499 17.5h-50v-640h48
c68 0 120.167 27.667 156.5 83s54.5 136.666 54.5 243.999z" />
    <glyph glyph-name="E" unicode="E" horiz-adv-x="505" 
d="M486 0l-466 0.000976562v20h54v640h-54v20h455v-217h-26c-2.66699 20.667 -5.16699 36.334 -7.5 47.001s-6.5 26 -12.5 46c-8.66699 34 -16 56.333 -22 67s-14.333 19.167 -25 25.5s-22 10.166 -34 11.499h-182v-294h69c24 0 40 8 48 24c6 12 12.333 29 19 51l11 60h26
v-289h-26c-2 18 -5.66699 36.667 -11 56s-11.833 37.166 -19.5 53.499s-23.5 24.5 -47.5 24.5h-69v-326h197c12 0 24 5 36 15s21 23 27 39l9 34l9 44l9 48l7 45h26v-245z" />
    <glyph glyph-name="F" unicode="F" horiz-adv-x="471" 
d="M462 463h-26c-4 24 -10.833 52.5 -20.5 85.5s-19.167 59.5 -28.5 79.5c-4 9.33301 -11 17 -21 23s-20.667 9 -32 9h-169v-296h70c23.333 0 39.333 8.66699 48 26c5.33301 12 11.666 29.667 18.999 53c3.33301 11.333 5.83301 23 7.5 35s2.83398 19.667 3.50098 23h26
v-289h-26c0 6 -1 13.667 -3 23s-4.5 19 -7.5 29s-6 19.5 -9 28.5s-6.33301 17.5 -10 25.5s-10.167 14.333 -19.5 19s-19 7 -29 7h-70v-324h73v-20h-219v20h54v640h-54v20h443v-217z" />
    <glyph glyph-name="G" unicode="G" horiz-adv-x="544" 
d="M534 274l-31.998 -0.00292969v-222c-24 -19.333 -54.667 -35 -92 -47c-19.333 -5.33301 -37.5 -9.33301 -54.5 -12s-35.5 -4 -55.5 -4c-47.333 0 -89 9.16699 -125 27.5s-65 43.333 -87 75s-38.833 69.167 -50.5 112.5s-17.5 90.333 -17.5 141
c0 49.333 7.33301 95 22 137c7.33301 21.333 16 40.833 26 58.5s22 34.5 36 50.5c26 30.667 57.333 55 94 73s77 27 121 27c12.667 0 25.5 -0.5 38.5 -1.5s32.167 -4.66699 57.5 -11s48.666 -17.166 69.999 -32.499v-177h-25c-3.33301 18.667 -5.83301 31.834 -7.5 39.501
s-5.83398 21.5 -12.501 41.5c-8 32 -17.333 57 -28 75c-17.333 28 -47.666 42 -90.999 42c-30.667 0 -58 -8.5 -82 -25.5s-44.167 -40.167 -60.5 -69.5s-29.5 -63.666 -39.5 -102.999c-8.66699 -41.333 -13 -81.666 -13 -120.999c0 -40 2.16699 -79.667 6.5 -119
s13.166 -74.333 26.499 -105c11.333 -30.667 29.333 -57.334 54 -80.001c24 -20.667 54 -31 90 -31c29.333 0 54.5 7.16699 75.5 21.5s31.5 31.833 31.5 52.5v187h-90v20h214v-20z" />
    <glyph glyph-name="H" unicode="H" horiz-adv-x="585" 
d="M419 20v323h-253v-323h54v-20h-200v20h54v640h-54v20h200v-20h-54v-289h253v289h-54v20h200v-20h-54v-640h54v-20h-200v20h54z" />
    <glyph glyph-name="I" unicode="I" horiz-adv-x="240" 
d="M74 20v640h-54v20h200v-20h-54v-640h54v-20h-200v20h54z" />
    <glyph glyph-name="J" unicode="J" horiz-adv-x="398" 
d="M233 114v546h-71v20h216v-20h-53v-519c0 -52 -17.333 -90.333 -52 -115s-76.334 -37 -125.001 -37c-14 0 -24.667 0.333008 -32 1s-17.666 2.66699 -30.999 6s-25 6.66602 -35 9.99902s-20 8 -30 14v232h26c3.33301 -32.667 9 -66 17 -100s18.333 -66.333 31 -97
c4 -11.333 12.167 -21.166 24.5 -29.499s25.5 -12.5 39.5 -12.5c10.667 0 20.5 2.83301 29.5 8.5s16.833 13.667 23.5 24s12 21.5 16 33.5s6 23.667 6 35z" />
    <glyph glyph-name="K" unicode="K" horiz-adv-x="551" 
d="M551 0h-126l-259 346v-326h54v-20h-200v20h54v640h-54v20h200v-20h-54v-289l269 289h-69v20h153v-20h-47l-244 -259l288 -381h35v-20z" />
    <glyph glyph-name="L" unicode="L" horiz-adv-x="465" 
d="M455 0h-434.999v20h54v640h-54v20h221v-20h-74v-640h156c16 0 29.5 3.16699 40.5 9.5s20.5 20.5 28.5 42.5c5.33301 16 11.666 41.333 18.999 76l17 102h27v-250z" />
    <glyph glyph-name="M" unicode="M" horiz-adv-x="703" 
d="M537 20v609l-201 -629h-35l-204 624v-604h76v-20h-154v20h54v640h-54v20h156l179 -544l170 544h159v-20h-54v-640h54v-20h-223v20h77z" />
    <glyph glyph-name="N" unicode="N" horiz-adv-x="563" 
d="M466 160v500h-79v20h156v-20h-53v-660h-44l-348 636v-616h80v-20h-158v20h54v640h-54v20h161z" />
    <glyph glyph-name="O" unicode="O" horiz-adv-x="547" 
d="M527 344c0 -53.333 -6.16699 -101.501 -18.5 -144.501s-29.5 -80 -51.5 -111s-48.833 -55.333 -80.5 -73s-66.5 -26.5 -104.5 -26.5c-38.667 0 -73 8.5 -103 25.5s-56.333 41.167 -79 72.5s-40 68.666 -52 111.999s-18 91.333 -18 144c0 52 6.16699 98.833 18.5 140.5
s29.5 77.834 51.5 108.501s48.833 54.834 80.5 72.501s66.167 26.5 103.5 26.5c38 0 72.167 -8.33301 102.5 -25s56.5 -40.167 78.5 -70.5s39.5 -67.5 52.5 -111.5s19.5 -90.667 19.5 -140zM421 343.999c0 112 -12 193.833 -36 245.5s-61 77.5 -111 77.5
s-87.167 -26.167 -111.5 -78.5s-36.5 -133.833 -36.5 -244.5c0 -119.333 11.833 -204.333 35.5 -255s60.5 -76 110.5 -76c53.333 0 91.5 25.667 114.5 77s34.5 136 34.5 254z" />
    <glyph glyph-name="P" unicode="P" horiz-adv-x="519" 
d="M500 500c0 -54 -21.5 -95.001 -64.5 -123.001s-100.833 -42 -173.5 -42h-96v-315h77v-20h-223v20h54v640h-54v20h262c70.667 0 124.667 -16.667 162 -50s56 -76.666 56 -129.999zM400 499.999c0 22 -3.33203 42 -9.99902 60c-6 19.333 -15.167 36.5 -27.5 51.5
s-26.833 26.833 -43.5 35.5c-4.66699 2 -12.334 4.66699 -23.001 8s-22.667 5 -36 5h-94v-305h91c23.333 0 44.333 4 63 12s34 19 46 33c10.667 14 19 29.667 25 47s9 35 9 53z" />
    <glyph glyph-name="Q" unicode="Q" horiz-adv-x="545" 
d="M525 344c0 -46.667 -4.99902 -90.4961 -14.999 -131.496s-24 -76.167 -42 -105.5s-40.333 -54.333 -67 -75c-24 -18 -52.667 -30.667 -86 -38v-74c0 -8.66699 3.5 -17.834 10.5 -27.501s15.833 -14.5 26.5 -14.5h22v-20h-53c-24.667 0 -45.667 8.16699 -63 24.5
s-26 36.166 -26 59.499v52c-31.333 4.66699 -61 16.667 -89 36c-26 19.333 -48.167 44 -66.5 74s-32.333 65.5 -42 106.5s-14.5 85.167 -14.5 132.5c0 50.667 6 97.5 18 140.5s29.167 79.5 51.5 109.5s49.333 53.833 81 71.5s65.834 26.5 102.501 26.5
c38 0 72.167 -8.33301 102.5 -25s56.666 -40.334 78.999 -71.001s39.666 -67.834 51.999 -111.501s18.5 -90.167 18.5 -139.5zM420.001 344.004c0 112 -12.001 193.833 -36.001 245.5s-61 77.5 -111 77.5s-87.167 -26 -111.5 -78s-36.5 -133.667 -36.5 -245
c0 -119.333 11.833 -204.333 35.5 -255s60.834 -76 111.501 -76c51.333 0 88.833 25.667 112.5 77s35.5 136 35.5 254z" />
    <glyph glyph-name="R" unicode="R" horiz-adv-x="569" 
d="M554 0h-143.998l-233 351h-11v-331h60v-20h-206v20h54v640h-54v20h269c28.667 0 55.667 -3.66699 81 -11s48 -18.333 68 -33s35.333 -33 46 -55c11.333 -20.667 17 -44 17 -70c0 -20.667 -4.5 -40.167 -13.5 -58.5s-21.667 -34.333 -38 -48s-35.833 -25.167 -58.5 -34.5
c-12.667 -4.66699 -24.334 -8.16699 -35.001 -10.5s-22.334 -3.5 -35.001 -3.5l-7 -1h-13l-13 -1h-7l229 -334h44v-20zM267.002 660l-100.999 -0.000976562v-289h97c25.333 0 46.666 3.83301 63.999 11.5s31.5 18 42.5 31s18.833 27.833 23.5 44.5
c2.66699 9.33301 4.66699 17.833 6 25.5s2 16.834 2 27.501c0 42.667 -12.5 78.167 -37.5 106.5s-57.167 42.5 -96.5 42.5z" />
    <glyph glyph-name="S" unicode="S" horiz-adv-x="473" 
d="M454 196c0 -33.333 -6.66504 -62.334 -19.998 -87.001c-11.333 -24 -28.333 -45.667 -51 -65c-20 -16.667 -45 -30.334 -75 -41.001c-29.333 -9.33301 -59 -14 -89 -14c-15.333 0 -31.666 1.33301 -48.999 4s-35 7 -53 13c-35.333 12.667 -63.333 27.334 -84 44.001v200
h26c8 -49.333 19 -91.333 33 -126s24.333 -57.667 31 -69c10 -14.667 22 -25.667 36 -33c14 -6 33 -9 57 -9c20.667 0 41.5 3 62.5 9s39.5 15.667 55.5 29s29.167 30 39.5 50s15.5 44 15.5 72c0 30 -9.16699 54 -27.5 72s-40.833 33 -67.5 45s-56.334 23.333 -89.001 34
s-62.5 23.167 -89.5 37.5s-49.667 32.666 -68 54.999s-27.5 51.5 -27.5 87.5c0 32.667 6 61 18 85s28.167 43.5 48.5 58.5s44.5 26 72.5 33s57 10.5 87 10.5c28 0 56.667 -3.66699 86 -11c32.667 -6 57 -14.667 73 -26l6 -181h-22c-4.66699 34 -13.667 66 -27 96
c-6.66699 16 -12.334 28.833 -17.001 38.5s-8.66699 17.5 -12 23.5c-7.33301 12 -20 21 -38 27s-38.333 9 -61 9c-20 0 -38.833 -2.16699 -56.5 -6.5s-33.834 -11.5 -48.501 -21.5s-27 -23 -37 -39c-8.66699 -17.333 -13 -36.666 -13 -57.999c0 -28 8.66699 -49.667 26 -65
s40.666 -29.333 69.999 -42l90 -32c32.667 -10 62.834 -23.167 90.501 -39.5s51 -37.666 70 -63.999s28.5 -60.833 28.5 -103.5z" />
    <glyph glyph-name="T" unicode="T" horiz-adv-x="463" 
d="M451 462l-26 -0.00195312l-3.5 32.5c-1 9 -3.66699 26 -8 51s-10.833 47.5 -19.5 67.5c-6 12 -14 23 -24 33s-22.333 15 -37 15h-55v-642h62v-19h-217v19h62v642h-55c-13.333 0 -25.333 -4.66699 -36 -14s-19 -20.666 -25 -33.999
c-8 -19.333 -14.667 -43.666 -20 -72.999l-11 -78h-26v218h439v-218z" />
    <glyph glyph-name="U" unicode="U" horiz-adv-x="527" 
d="M516 660h-52v-495c0 -24.667 -4.16699 -47.667 -12.5 -69s-20.5 -39.833 -36.5 -55.5s-35.333 -28.5 -58 -38.5c-24 -8.66699 -48.333 -13 -73 -13c-30 0 -58.5 5 -85.5 15s-50.167 24 -69.5 42s-34.833 39.333 -46.5 64s-17.5 51.667 -17.5 81v469h-54v20h200v-20h-54
v-500c0 -38.667 13 -72 39 -100c13.333 -13.333 28 -23.333 44 -30s34.667 -10 56 -10c42 0 76.5 14 103.5 42s40.5 63 40.5 105v493h-72v20h148v-20z" />
    <glyph glyph-name="V" unicode="V" horiz-adv-x="511" 
d="M511 660h-43l-175 -660h-57l-194 660h-42v20h206v-20h-66l158 -552l142 552h-66v20h137v-20z" />
    <glyph glyph-name="W" unicode="W" horiz-adv-x="785" 
d="M785 660h-42l-172 -660h-57l-119 451l-119 -451h-57l-177 660h-42v20h205v-20h-62l141 -527l97 378l-41 149h-62v20h232v-20h-71l137 -526l140 526h-67v20h136v-20z" />
    <glyph glyph-name="X" unicode="X" horiz-adv-x="538" 
d="M538 0h-223v20h59l-135 286l-153 -286h73v-20h-159v20h54l171 314l-152 326h-49v20h220v-20h-67l108 -231l124 231h-70v20h154v-20h-52l-140 -263l177 -377h60v-20z" />
    <glyph glyph-name="Y" unicode="Y" horiz-adv-x="496" 
d="M496 660h-45l-155 -340v-300h62v-20h-216v20h62v288l-159 352h-45v20h220v-20h-73l136 -302l137 302h-68v20h144v-20z" />
    <glyph glyph-name="Z" unicode="Z" horiz-adv-x="454" 
d="M434 0h-422v20l319 640h-181c-26.667 0 -47 -14.667 -61 -44c-5.33301 -11.333 -11.333 -32 -18 -62c-3.33301 -15.333 -6.16602 -31.333 -8.49902 -48l-5.5 -40h-25v214h402v-20l-319 -640h198c14 0 26.5 3.5 37.5 10.5s19.5 18.167 25.5 33.5
c1.33301 4 3.66602 13.333 6.99902 28c6 28.667 9.33301 44 10 46l16 109h25v-247z" />
    <glyph glyph-name="bracketleft" unicode="[" horiz-adv-x="234" 
d="M214 -80h-174v846h174v-24h-89v-798h89v-24z" />
    <glyph glyph-name="backslash" unicode="\" horiz-adv-x="446" 
d="M441 -73h-50l-386 826h50z" />
    <glyph glyph-name="bracketright" unicode="]" horiz-adv-x="234" 
d="M194 -80h-174v24h89v798h-89v24h174v-846z" />
    <glyph glyph-name="asciicircum" unicode="^" horiz-adv-x="298" 
d="M278 394l-11 -17l-121 68l-115 -68l-11 17l117 117h24z" />
    <glyph glyph-name="underscore" unicode="_" horiz-adv-x="515" 
d="M515 -170h-515v42h515v-42z" />
    <glyph glyph-name="grave" unicode="`" horiz-adv-x="152" 
d="M112 691l14.999 -19.999c-12.667 -8 -25 -19.667 -37 -35c-11.333 -12.667 -18 -24.667 -20 -36l8 1c14 0 26.5 -5.33301 37.5 -16s16.5 -23.334 16.5 -38.001c0 -16 -5.16699 -29.667 -15.5 -41s-23.166 -17 -38.499 -17c-16 0 -29.667 5.66699 -41 17
s-17 25.333 -17 42c0 30.667 8.5 57.5 25.5 80.5s39.167 43.833 66.5 62.5z" />
    <glyph glyph-name="a" unicode="a" horiz-adv-x="439" 
d="M422 0l-121.997 0.00195312v81l-24 -40c-6.66699 -9.33301 -16.667 -19 -30 -29c-9.33301 -6 -22.666 -11.333 -39.999 -16s-38 -7 -62 -7c-37.333 0 -67.5 11.833 -90.5 35.5s-34.5 53.5 -34.5 89.5c0 42 11 73.667 33 95c21.333 19.333 47.666 34.666 78.999 45.999
c16 5.33301 31 10 45 14c4.66699 1.33301 21 5.33301 49 12s51 19 69 37v79c0 24.667 -8.83301 45.834 -26.5 63.501s-39.834 26.5 -66.501 26.5c-12.667 0 -25.834 -3.16699 -39.501 -9.5s-23.834 -13.833 -30.501 -22.5c-10 -12.667 -18.667 -30.834 -26 -54.501
s-13 -51.834 -17 -84.501h-26v149c16.667 10.667 38.167 21 64.5 31s52.833 15 79.5 15c20.667 0 41.667 -2 63 -6c20 -2.66699 38.333 -9.33398 55 -20.001s30.167 -25.167 40.5 -43.5s15.5 -42.166 15.5 -71.499v-350h42v-20zM294.003 289.002
c-18 -10.667 -37.668 -19.668 -59.001 -27.001c-22.667 -6 -43 -14.333 -61 -25c-19.333 -10 -35.666 -24.667 -48.999 -44c-6.66699 -9.33301 -11.667 -20 -15 -32s-5 -26.667 -5 -44c0 -26.667 6 -51 18 -73c12.667 -20.667 30.667 -31 54 -31c12 0 24.5 3.33301 37.5 10
s25.333 16.334 37 29.001s21.667 28.5 30 47.5s12.5 40.833 12.5 65.5v124z" />
    <glyph glyph-name="b" unicode="b" horiz-adv-x="462" 
d="M442 253c0 -84 -17.167 -148.999 -51.5 -194.999s-84.833 -69 -151.5 -69c-13.333 0 -26.833 2.83301 -40.5 8.5s-26.167 12.167 -37.5 19.5l-29 19c-8 6 -14 9 -18 9c-6 0 -12 -4 -18 -12l-9 -17l-5 -16h-25v660h-42v20h128v-244c20 50 57.333 75 112 75
c56 0 101 -23.333 135 -70c17.333 -23.333 30.333 -50.333 39 -81s13 -66.334 13 -107.001zM350 253.001c0 76 -9.66699 133.665 -29 172.998c-18 40.667 -42 61 -72 61c-31.333 0 -56.833 -15.5 -76.5 -46.5s-29.5 -64.833 -29.5 -101.5v-169c0 -20 2 -39.5 6 -58.5
s10.167 -35.667 18.5 -50s18.5 -26.166 30.5 -35.499c3.33301 -2.66699 8.5 -5.5 15.5 -8.5s15.167 -4.5 24.5 -4.5c38.667 0 67 19.833 85 59.5s27 99.834 27 180.501z" />
    <glyph glyph-name="c" unicode="c" horiz-adv-x="386" 
d="M367 160c0 -26 -4.16602 -49.001 -12.499 -69.001s-19.5 -37.833 -33.5 -53.5s-30.167 -27.667 -48.5 -36s-37.5 -12.5 -57.5 -12.5c-30 0 -57.667 7.33301 -83 22c-23.333 14.667 -43.666 34.667 -60.999 60c-6.66699 10.667 -13.334 23.334 -20.001 38.001
s-12.667 30 -18 46c-8.66699 34.667 -13 67.334 -13 98.001c0 19.333 1 36.666 3 51.999s5.66699 31.666 11 48.999c9.33301 32 22.5 59.333 39.5 82s38.167 40.834 63.5 54.501s53.666 20.5 84.999 20.5c14.667 0 25.667 -0.333008 33 -1s18.333 -3 33 -7
c24.667 -5.33301 45.667 -13 63 -23v-169h-24c-2.66699 19.333 -5.16699 33.833 -7.5 43.5s-6.5 21.5 -12.5 35.5c-8.66699 24 -18.334 45.667 -29.001 65c-4.66699 11.333 -12.834 19.5 -24.501 24.5s-24.5 7.5 -38.5 7.5c-31.333 0 -56.333 -19 -75 -57
s-28 -96.333 -28 -175s8.16699 -138.667 24.5 -180s43.5 -62 81.5 -62c16.667 0 32.334 3.5 47.001 10.5s27.834 16.5 39.501 28.5s21 26.333 28 43s10.5 35 10.5 55v35h24v-25z" />
    <glyph glyph-name="d" unicode="d" horiz-adv-x="456" 
d="M442 0l-121 -0.000976562v84c-6 -25.333 -20 -47.5 -42 -66.5s-48.333 -28.5 -79 -28.5c-26.667 0 -51 6.83301 -73 20.5s-40.833 32.334 -56.5 56.001s-28 52.334 -37 86.001s-13.5 67.5 -13.5 101.5c0 43.333 5 80.666 15 111.999s23.833 58 41.5 80
s38.167 38.5 61.5 49.5s46.333 16.5 69 16.5c20.667 0 41.667 -7.33301 63 -22c21.333 -13.333 36 -32 44 -56v227h-54v20h140v-660h42v-20zM314 177.999l0.00390625 145c0 14 -0.333008 24.333 -1 31s-2.83398 18.334 -6.50098 35.001s-10.5 32.667 -20.5 48
c-8.66699 15.333 -19.334 27.5 -32.001 36.5s-27.334 13.5 -44.001 13.5c-32.667 0 -57.167 -20.667 -73.5 -62s-24.5 -98.666 -24.5 -171.999c0 -36 2.33301 -68 7 -96c4 -30 10.333 -55.333 19 -76c7.33301 -20 17.166 -36.333 29.499 -49s25.833 -19 40.5 -19
c16.667 0 31.667 4.66699 45 14s24.5 21.666 33.5 36.999s15.833 32.666 20.5 51.999c2 10 3.66699 20 5 30s2 20.667 2 32z" />
    <glyph glyph-name="e" unicode="e" horiz-adv-x="415" 
d="M395 294h-280.002c0 -11.333 -0.666992 -19.333 -2 -24l-1 -10c0 -89.333 11 -152.833 33 -190.5s50 -56.5 84 -56.5c20.667 0 40 4.33301 58 13s32.5 20 43.5 34s20.5 31.333 28.5 52s12 41 12 61v15h24v-13c0 -26.667 -3.66699 -50.667 -11 -72
s-19.333 -41.666 -36 -60.999c-31.333 -35.333 -73.333 -53 -126 -53c-29.333 0 -56.166 6.33301 -80.499 19s-45.666 31 -63.999 55s-32.5 52 -42.5 84s-15 67.333 -15 106c0 40 4.66699 75 14 105c8.66699 31.333 21.5 58.166 38.5 80.499s37.333 40 61 53
s49.167 19.5 76.5 19.5c54.667 0 99.167 -16.5 133.5 -49.5s51.5 -88.833 51.5 -167.5zM304.998 314c0 34.667 -2.66699 62.332 -8 82.999c-4 23.333 -10.667 41.333 -20 54c-8 12.667 -18.167 21.834 -30.5 27.501s-24.5 8.5 -36.5 8.5c-25.333 0 -46 -12.833 -62 -38.5
s-27 -70.5 -33 -134.5h190z" />
    <glyph glyph-name="f" unicode="f" horiz-adv-x="274" 
d="M274 552l-24 0.000976562c-2 22 -5.66699 39 -11 51c-4 14 -10 28 -18 42c-4 7.33301 -9.66699 12.833 -17 16.5s-14 5.5 -20 5.5c-10 0 -18.5 -3.5 -25.5 -10.5s-11.167 -16.5 -12.5 -28.5v-128h106v-20h-106v-460h72v-20h-200v20h42v460h-42v20h42v72
c0 37.333 12.167 66.5 36.5 87.5s56.5 31.5 96.5 31.5c12.667 0 26.5 -2.33301 41.5 -7s28.167 -10.334 39.5 -17.001v-115z" />
    <glyph glyph-name="g" unicode="g" horiz-adv-x="443" 
d="M426 480l-70.9941 0.00585938c18.667 -18.667 32 -39.334 40 -62.001c3.33301 -9.33301 6 -20.333 8 -33s3 -26.334 3 -41.001c0 -23.333 -4.16699 -45.166 -12.5 -65.499s-19.666 -37.333 -33.999 -51s-31.833 -24.834 -52.5 -33.501s-42.334 -13 -65.001 -13
c-24 0 -45.167 3.33301 -63.5 10s-35.5 19 -51.5 37c-6.66699 -3.33301 -13.834 -7.33301 -21.501 -12s-14.834 -9.33398 -21.501 -14.001c-12 -8 -18 -24.667 -18 -50c0 -24 12 -40 36 -48c25.333 -7.33301 58.333 -11 99 -11c20 0 33.667 -0.166992 41 -0.5
s18.666 -1.83301 33.999 -4.5c12.667 0 24.167 -1.5 34.5 -4.5s22.166 -7.5 35.499 -13.5c19.333 -7.33301 35.833 -20 49.5 -38s20.5 -41.333 20.5 -70c0 -18 -5.16699 -35.5 -15.5 -52.5s-24.166 -32.167 -41.499 -45.5c-17.333 -14.667 -37.833 -25.834 -61.5 -33.501
s-48.834 -11.5 -75.501 -11.5c-24.667 0 -48.334 2.16699 -71.001 6.5s-42.334 11.666 -59.001 21.999s-30.667 23.166 -42 38.499c-10 15.333 -15 33.666 -15 54.999c0 22.667 18.333 49 55 79c-27.333 9.33301 -47.166 24 -59.499 44s-18.5 41 -18.5 63
c0 27.333 7 51 21 71c13.333 17.333 38 34 74 50l-23 43c-6 15.333 -9 33.333 -9 54c0 26 4.33301 49.333 13 70s20.5 37.834 35.5 51.501s33.167 24.5 54.5 32.5s43.333 12 66 12h22c7.33301 -2 12.666 -3.33301 15.999 -4l28 -7h116v-20zM164.006 344.006
c0 -38.667 5 -71.5 15 -98.5s30.333 -40.5 61 -40.5c29.333 0 49.5 12.667 60.5 38s16.5 59 16.5 101c0 45.333 -4.83301 80.5 -14.5 105.5s-30.5 37.5 -62.5 37.5c-27.333 0 -46.833 -12.333 -58.5 -37s-17.5 -60 -17.5 -106zM366.006 -63.9941c0 19.333 -4 34 -12 44
s-19.333 17.333 -34 22s-25.5 7.5 -32.5 8.5s-16.5 1.5 -28.5 1.5l-75 1l-18 -4l-29 -10l-28 -12c-8 -4 -13 -8.33301 -15 -13l-8 -14c-2 -4 -3 -10.333 -3 -19c0 -26 10 -48 30 -66s56 -27 108 -27c44 0 79.167 8.66699 105.5 26s39.5 38 39.5 62z" />
    <glyph glyph-name="h" unicode="h" horiz-adv-x="449" 
d="M434 0l-170.001 -0.000976562v20h42v370c0 28.667 -7 50.834 -21 66.501s-30 23.5 -48 23.5c-21.333 0 -41 -11 -59 -33c-9.33301 -12 -16.5 -24.833 -21.5 -38.5s-7.5 -29.5 -7.5 -47.5v-341h42v-20h-170v20h42v640h-42v20h128v-233c12.667 26 30 43.167 52 51.5
s43.667 12.5 65 12.5c36.667 0 66.834 -11.167 90.501 -33.5s35.5 -50.5 35.5 -84.5v-373h42v-20z" />
    <glyph glyph-name="i" unicode="i" horiz-adv-x="207" 
d="M64 20v460h-42v20h128v-480h42v-20h-170v20h42zM107 579c-15.333 0 -28.667 5.33301 -40 16c-10.667 12 -16 25.333 -16 40c0 15.333 5.5 28.5 16.5 39.5s24.167 16.5 39.5 16.5s28.333 -5.66699 39 -17c11.333 -10 17 -23 17 -39c0 -15.333 -5.5 -28.5 -16.5 -39.5
s-24.167 -16.5 -39.5 -16.5z" />
    <glyph glyph-name="j" unicode="j" horiz-adv-x="209" 
d="M146 -83c0 -30.667 -9.83301 -54.667 -29.5 -72s-45.167 -26 -76.5 -26h-26v20h11c9.33301 0 17.5 5.66699 24.5 17s10.5 25.333 10.5 42v582h-42v20h128v-583zM103 579c-15.333 0 -28.667 5.33301 -40 16c-10.667 12 -16 25.333 -16 40c0 15.333 5.5 28.5 16.5 39.5
s24.167 16.5 39.5 16.5s28.333 -5.66699 39 -17c11.333 -10 17 -23 17 -39c0 -15.333 -5.5 -28.5 -16.5 -39.5s-24.167 -16.5 -39.5 -16.5z" />
    <glyph glyph-name="k" unicode="k" horiz-adv-x="440" 
d="M440 0h-124l-167 253v-233h52v-20h-180v20h42v640h-42v20h128v-410l182 210h-77v20h145v-20h-33l-152 -174l186 -286h40v-20z" />
    <glyph glyph-name="l" unicode="l" horiz-adv-x="212" 
d="M63 20v640h-42v20h128v-660h42v-20h-170v20h42z" />
    <glyph glyph-name="m" unicode="m" horiz-adv-x="672" 
d="M63 20v460.001h-42v20h122v-68c16 33.333 35.333 55 58 65c24 9.33301 46 14 66 14c24 0 45.333 -7 64 -21s33.667 -32.667 45 -56c7.33301 16.667 15.666 29.667 24.999 39s19.333 17 30 23s22.667 10 36 12l32 3c32 0 59.333 -11.5 82 -34.5s34 -50.833 34 -83.5v-373
h42v-20h-170v20h42v374c0 28 -6 49.333 -18 64s-26 22 -42 22c-9.33301 0 -19.5 -3.83301 -30.5 -11.5s-20.833 -17.5 -29.5 -29.5c-5.33301 -7.33301 -9 -13.333 -11 -18l-9 -21c-4.66699 -16.667 -7 -29.667 -7 -39v-341h42v-20h-170v20h42v374
c0 30.667 -5.66699 52.667 -17 66s-24.666 20 -39.999 20c-12 0 -23 -3.66699 -33 -11c-4 -2.66699 -8.5 -6.33398 -13.5 -11.001s-10.167 -10 -15.5 -16c-8.66699 -10.667 -15.667 -23.334 -21 -38.001c-2 -6.66699 -3.66699 -13.667 -5 -21s-2 -14.666 -2 -21.999v-341h42
v-20h-170v20h42z" />
    <glyph glyph-name="n" unicode="n" horiz-adv-x="448" 
d="M63 20v459.998h-42v20h122v-68c12 27.333 28.667 47.333 50 60c11.333 6 22.5 10.667 33.5 14s22.5 5 34.5 5c36 0 66.833 -10.667 92.5 -32s38.5 -48.666 38.5 -81.999v-377h42v-20h-170v20h42v374c0 28 -7 49.333 -21 64s-30 22 -48 22c-11.333 0 -22 -3 -32 -9
s-19.167 -14.667 -27.5 -26s-15.5 -24.666 -21.5 -39.999c-2 -7.33301 -3.66699 -14.5 -5 -21.5s-2 -14.5 -2 -22.5v-341h42v-20h-170v20h42z" />
    <glyph glyph-name="o" unicode="o" horiz-adv-x="421" 
d="M401 253c0 -37.333 -4.5 -72 -13.5 -104s-21.667 -59.5 -38 -82.5s-36.833 -42.167 -61.5 -57.5c-23.333 -13.333 -49 -20 -77 -20c-26 0 -50.5 6.33301 -73.5 19s-43 30.5 -60 53.5s-30.833 50.833 -41.5 83.5s-16 68.667 -16 108c0 19.333 1 36.666 3 51.999
s5.66699 31.666 11 48.999c8.66699 31.333 21.5 58.5 38.5 81.5s37.333 41.333 61 55s49.5 20.5 77.5 20.5s53.833 -6.33301 77.5 -19s43.5 -30.167 59.5 -52.5s28.833 -49.666 38.5 -81.999s14.5 -67.166 14.5 -104.499zM309 253c0 82.667 -8.33301 142.335 -25 179.002
s-41 55 -73 55c-30 0 -54 -18.333 -72 -55s-27 -96.334 -27 -179.001c0 -86.667 9 -148.334 27 -185.001s42 -55 72 -55c31.333 0 55.5 19 72.5 57s25.5 99 25.5 183z" />
    <glyph glyph-name="p" unicode="p" horiz-adv-x="468" 
d="M448 252c0 -37.333 -5.00098 -72.501 -15.001 -105.501s-23.667 -61 -41 -84s-38 -41 -62 -54s-49.333 -19.5 -76 -19.5c-23.333 0 -44 6.83301 -62 20.5s-32.333 31.167 -43 52.5v-212h60v-20h-188v20h42v630h-42v20h122v-69c12 24.667 27 44.167 45 58.5
s42.333 21.5 73 21.5c27.333 0 52.5 -6.66699 75.5 -20s43.167 -32 60.5 -56c14.667 -21.333 27.334 -48.666 38.001 -81.999c8.66699 -33.333 13 -67 13 -101zM148.999 331.999v-150c0 -48 9.5 -88.167 28.5 -120.5s43.5 -48.5 73.5 -48.5c31.333 0 57 19 77 57
c18.667 39.333 28 100.333 28 183c0 76 -9.66699 134 -29 174s-44 60 -74 60c-27.333 0 -51.5 -12.5 -72.5 -37.5s-31.5 -64.167 -31.5 -117.5z" />
    <glyph glyph-name="q" unicode="q" horiz-adv-x="468" 
d="M448 -170l-187.998 -0.000976562v20h60v213c-10.667 -20 -25.5 -37.333 -44.5 -52s-41.167 -22 -66.5 -22c-28 0 -53.833 7 -77.5 21s-43.834 33.333 -60.501 58c-6.66699 10.667 -13.334 23.334 -20.001 38.001s-12.667 30 -18 46c-8.66699 34.667 -13 68 -13 100
c0 35.333 4.16699 68.5 12.5 99.5s21.166 58 38.499 81s38.833 41.833 64.5 56.5s54.834 22 87.501 22c15.333 0 29.5 -2.5 42.5 -7.5s25.167 -11.167 36.5 -18.5l29 -18c6 -4 12 -6.66699 18 -8c7.33301 0 13 3.33301 17 10l14 31h26v-650h42v-20zM320.002 164.999v184
c0 26 -3.16699 47.833 -9.5 65.5s-14.333 31.334 -24 41.001s-21.167 17.834 -34.5 24.501c-10.667 3.33301 -22 5.66602 -34 6.99902c-29.333 0 -54.333 -20.833 -75 -62.5s-31 -98.834 -31 -171.501c0 -40 2.33301 -75 7 -105s12 -55.333 22 -76
c19.333 -39.333 44 -59 74 -59c26.667 0 51 14 73 42c10.667 14 18.667 29.833 24 47.5s8 38.5 8 62.5z" />
    <glyph glyph-name="r" unicode="r" horiz-adv-x="339" 
d="M329 310l-23.9971 0.000976562c-0.666992 6 -1.83398 14.667 -3.50098 26s-4.83398 26 -9.50098 44c-4.66699 26 -10.667 47 -18 63c-4 10 -9.33301 18.333 -16 25s-14.334 10.667 -23.001 12c-10 0 -20.167 -4.16699 -30.5 -12.5s-19.5 -18.5 -27.5 -30.5
s-15 -27.333 -21 -46c-2 -9.33301 -3.66699 -17.5 -5 -24.5s-2 -14.5 -2 -22.5v-324h80v-20h-208v20h42v460h-42v20h122v-78c13.333 32.667 31.166 55.667 53.499 69s40.833 20 55.5 20c13.333 0 27.333 -2.33301 42 -7s26.334 -10.334 35.001 -17.001v-177z" />
    <glyph glyph-name="s" unicode="s" horiz-adv-x="369" 
d="M353 150c0 -25.333 -4.66895 -47.3311 -14.002 -65.998c-8 -18.667 -20.333 -35.334 -37 -50.001s-35.5 -25.834 -56.5 -33.501s-44.167 -11.5 -69.5 -11.5c-32 0 -60.5 5.16699 -85.5 15.5s-46.5 23.5 -64.5 39.5v155h24c2.66699 -18 5 -31.667 7 -41
s6.5 -25.833 13.5 -49.5s15.5 -43.167 25.5 -58.5c17.333 -24.667 44.666 -37 81.999 -37c35.333 0 63.666 9 84.999 27s32 41 32 69c0 24 -6.66699 43.167 -20 57.5s-30.666 27.166 -51.999 38.499c-11.333 5.33301 -21.666 10 -30.999 14
c-3.33301 1.33301 -16 5.5 -38 12.5s-43.167 16.167 -63.5 27.5s-37.166 25.666 -50.499 42.999s-20 40.333 -20 69c0 43.333 16.167 77.5 48.5 102.5s73.5 37.5 123.5 37.5c30 0 54.333 -2.66699 73 -8c20 -4.66699 38.667 -12 56 -22v-148h-24
c-4 27.333 -9.66699 50 -17 68c-2.66699 8 -6.16699 17.667 -10.5 29s-8.5 21 -12.5 29c-6 10.667 -15.167 18 -27.5 22s-25.166 6 -38.499 6c-28.667 0 -55 -6 -79 -18c-22.667 -12.667 -34 -33.334 -34 -62.001c0 -20 6.66699 -36.667 20 -50
c13.333 -11.333 30.333 -21.666 51 -30.999l66 -25c26 -7.33301 48.667 -17.166 68 -29.499s35.833 -27.666 49.5 -45.999s20.5 -43.5 20.5 -75.5z" />
    <glyph glyph-name="t" unicode="t" horiz-adv-x="297" 
d="M60 500l-0.00195312 105.002h86v-105h103v-20h-103v-406c0 -19.333 5 -34.333 15 -45s21 -16 33 -16c13.333 0 25.833 6.33301 37.5 19s17.5 28.334 17.5 47.001v109h24v-82c0 -18.667 -1.33301 -34.334 -4 -47.001s-8 -25.334 -16 -38.001
c-13.333 -21.333 -35.666 -32 -66.999 -32c-33.333 0 -62.666 11.167 -87.999 33.5s-38 49.166 -38 80.499v377h-45v20h45z" />
    <glyph glyph-name="u" unicode="u" horiz-adv-x="443" 
d="M426 0l-124 0.000976562v69c-10 -27.333 -27 -47.5 -51 -60.5s-46.333 -19.5 -67 -19.5c-36 0 -66.167 11.5 -90.5 34.5s-36.5 51.167 -36.5 84.5v372h-42v20h128v-400c0 -24 6.33301 -43.333 19 -58s29 -22 49 -22c22 0 41.833 12.167 59.5 36.5
s26.5 54.166 26.5 89.499v334h-42v20h128v-480h43v-20z" />
    <glyph glyph-name="v" unicode="v" horiz-adv-x="419" 
d="M419 480h-28l-156 -480h-49l-149 480h-37v20h189v-20h-63l115 -387l123 387h-68v20h123v-20z" />
    <glyph glyph-name="w" unicode="w" horiz-adv-x="634" 
d="M634 480h-30l-156 -480h-39l-92 301l-93 -301h-39l-150 480h-35v20h170v-20h-45l106 -370l72 224l-45 146h-36v20h186v-20h-66l114 -375l122 375h-59v20h115v-20z" />
    <glyph glyph-name="x" unicode="x" horiz-adv-x="435" 
d="M435 0h-198v20h62l-107 202l-127 -202h67v-20h-132v20h37l143 226l-125 234h-38v20h190v-20h-58l91 -168l105 168h-63v20h130v-20h-40l-121 -190l146 -270h38v-20z" />
    <glyph glyph-name="y" unicode="y" horiz-adv-x="435" 
d="M435 480h-31l-187 -591c-6 -19.333 -15.667 -35.833 -29 -49.5s-26.333 -20.5 -39 -20.5c-20 0 -39.833 3 -59.5 9s-33.5 13.333 -41.5 22v163h25c0 -12.667 1.16699 -25.834 3.5 -39.501s5.83301 -28.167 10.5 -43.5l7 -29.5c2.66699 -11 6 -20.167 10 -27.5
c1.33301 -6 5.83301 -11.167 13.5 -15.5s16.5 -6.83301 26.5 -7.5c10 0 19.833 4.83301 29.5 14.5s17.167 21.834 22.5 36.501l30 112l-179 467h-39v20h192v-20h-58l125 -359l109 359h-64v20h123v-20z" />
    <glyph glyph-name="z" unicode="z" horiz-adv-x="363" 
d="M346 487l-242 -466.998h111c33.333 0 56 13 68 39c6 15.333 12 34.666 18 57.999c2 7.33301 4.66699 19 8 35s6 30.333 8 43h25v-195h-330v20l242 460h-120c-9.33301 0 -18 -2.5 -26 -7.5s-15 -12.333 -21 -22s-12 -23.834 -18 -42.501s-11.667 -43 -17 -73h-25v165h319
v-13z" />
    <glyph glyph-name="braceleft" unicode="{" horiz-adv-x="294" 
d="M274 -91l-74.0029 -0.000976562c-10 0 -20.667 2.66699 -32 8s-22.166 12.833 -32.499 22.5s-19.166 20.167 -26.499 31.5c-6.66699 13.333 -10 26.333 -10 39v245c0 24 -7.66699 44.167 -23 60.5s-34 24.5 -56 24.5v28c21.333 0 39.833 8.33301 55.5 25
s23.5 36.334 23.5 59.001v226c0 26.667 9.83301 49.834 29.5 69.501s43.5 29.5 71.5 29.5h74v-24h-14c-20 0 -37.5 -7.33301 -52.5 -22s-22.5 -32.334 -22.5 -53.001v-227c0 -20 -7.66699 -39.333 -23 -58s-34 -31 -56 -37c22 -8 40.667 -21.667 56 -41s23 -39.333 23 -60
v-246c0 -21.333 7.33301 -39.333 22 -54s32.334 -22 53.001 -22h14v-24z" />
    <glyph glyph-name="bar" unicode="|" horiz-adv-x="130" 
d="M90 -170h-50v850h50v-850z" />
    <glyph glyph-name="braceright" unicode="}" horiz-adv-x="294" 
d="M20 -91v24.001h14c20 0 37.5 7.33301 52.5 22s22.5 32.667 22.5 54v246c0 20.667 7.5 40.5 22.5 59.5s33.833 32.833 56.5 41.5c-21.333 6 -39.833 18.167 -55.5 36.5s-23.5 37.833 -23.5 58.5v227c0 20.667 -7.33301 38.334 -22 53.001s-32.334 22 -53.001 22h-14v24h74
c27.333 0 51 -9.83301 71 -29.5s30 -42.834 30 -69.501v-226c0 -22 7.66699 -41.5 23 -58.5s34 -25.5 56 -25.5v-28c-21.333 0 -39.833 -8.33301 -55.5 -25s-23.5 -36.667 -23.5 -60v-245c0 -14.667 -3.66699 -27.667 -11 -39c-6 -12 -14.167 -22.333 -24.5 -31
s-21.833 -16.334 -34.5 -23.001c-9.33301 -4 -19.666 -6.66699 -30.999 -8h-74z" />
    <glyph glyph-name="asciitilde" unicode="~" horiz-adv-x="321" 
d="M301 283c-8.66699 -22.667 -21.002 -38.999 -37.002 -48.999c-16 -8.66699 -30.667 -13 -44 -13c-9.33301 0 -19.666 2 -30.999 6l-30 14l-30 13c-9.33301 3.33301 -19.666 5.66602 -30.999 6.99902c-21.333 0 -40 -12 -56 -36l-22 15c11.333 24.667 24 41.834 38 51.501
s28.667 14.5 44 14.5c9.33301 0 20 -2 32 -6l31 -14l31 -13c10 -4 20.667 -6 32 -6c9.33301 0 18 2.66699 26 8s16.333 13.666 25 24.999z" />
    <glyph glyph-name="nonbreakingspace" unicode="&#xa0;" horiz-adv-x="500" 
 />
    <glyph glyph-name="exclamdown" unicode="&#xa1;" horiz-adv-x="194" 
d="M97 -181c-14 0 -26 4.66699 -36 14c-9.33301 7.33301 -14 19.333 -14 36l34 440h32l34 -440c0 -14.667 -4.83301 -26.667 -14.5 -36s-21.5 -14 -35.5 -14zM97 511c15.333 0 28.332 -5.66699 38.999 -17c11.333 -10 17 -23 17 -39c0 -15.333 -5.5 -28.5 -16.5 -39.5
s-24.167 -16.5 -39.5 -16.5s-28.666 5.33301 -39.999 16c-10.667 12 -16 25.333 -16 40c0 15.333 5.5 28.5 16.5 39.5s24.167 16.5 39.5 16.5z" />
    <glyph glyph-name="exclamdown" unicode="&#x40e;" horiz-adv-x="194" 
d="M97 -181c-14 0 -26 4.66699 -36 14c-9.33301 7.33301 -14 19.333 -14 36l34 440h32l34 -440c0 -14.667 -4.83301 -26.667 -14.5 -36s-21.5 -14 -35.5 -14zM97 511c15.333 0 28.332 -5.66699 38.999 -17c11.333 -10 17 -23 17 -39c0 -15.333 -5.5 -28.5 -16.5 -39.5
s-24.167 -16.5 -39.5 -16.5s-28.666 5.33301 -39.999 16c-10.667 12 -16 25.333 -16 40c0 15.333 5.5 28.5 16.5 39.5s24.167 16.5 39.5 16.5z" />
    <glyph glyph-name="cent" unicode="&#xa2;" horiz-adv-x="370" 
d="M354 148c0 -25.333 -4.00293 -48.1709 -12.0029 -68.5039s-18.167 -36.666 -30.5 -48.999s-27.166 -22.5 -44.499 -30.5c-12.667 -5.33301 -28 -9 -46 -11v-76h-25v76c-14 0 -27 1.83301 -39 5.5s-24.333 9.5 -37 17.5c-20.667 13.333 -39 31.333 -55 54
c-13.333 21.333 -24.666 46.666 -33.999 75.999c-3.33301 13.333 -6 27.666 -8 42.999s-3 31.666 -3 48.999c0 30.667 4 59.834 12 87.501s20 51.834 36 72.501c14.667 20.667 33 37.834 55 51.501s46.333 21.834 73 24.501v89h25v-86c18.667 0 38.5 -2.66699 59.5 -8
s40.167 -13.666 57.5 -24.999v-153h-24c-5.33301 32 -12.166 59 -20.499 81s-16.5 40 -24.5 54c-4.66699 6.66699 -11.167 12.5 -19.5 17.5s-17.833 8.5 -28.5 10.5v-436c12.667 0 24.834 2.83301 36.501 8.5s23.667 14.667 36 27s21.666 25.833 27.999 40.5
s9.5 31.334 9.5 50.001v15l1 15h19zM195.997 13.9951v435.001c-25.333 -6 -46.333 -27.667 -63 -65s-25 -87 -25 -149c0 -64.667 7.33301 -115.834 22 -153.501s36.667 -60.167 66 -67.5z" />
    <glyph glyph-name="cent" unicode="&#x45e;" horiz-adv-x="370" 
d="M354 148c0 -25.333 -4.00293 -48.1709 -12.0029 -68.5039s-18.167 -36.666 -30.5 -48.999s-27.166 -22.5 -44.499 -30.5c-12.667 -5.33301 -28 -9 -46 -11v-76h-25v76c-14 0 -27 1.83301 -39 5.5s-24.333 9.5 -37 17.5c-20.667 13.333 -39 31.333 -55 54
c-13.333 21.333 -24.666 46.666 -33.999 75.999c-3.33301 13.333 -6 27.666 -8 42.999s-3 31.666 -3 48.999c0 30.667 4 59.834 12 87.501s20 51.834 36 72.501c14.667 20.667 33 37.834 55 51.501s46.333 21.834 73 24.501v89h25v-86c18.667 0 38.5 -2.66699 59.5 -8
s40.167 -13.666 57.5 -24.999v-153h-24c-5.33301 32 -12.166 59 -20.499 81s-16.5 40 -24.5 54c-4.66699 6.66699 -11.167 12.5 -19.5 17.5s-17.833 8.5 -28.5 10.5v-436c12.667 0 24.834 2.83301 36.501 8.5s23.667 14.667 36 27s21.666 25.833 27.999 40.5
s9.5 31.334 9.5 50.001v15l1 15h19zM195.997 13.9951v435.001c-25.333 -6 -46.333 -27.667 -63 -65s-25 -87 -25 -149c0 -64.667 7.33301 -115.834 22 -153.501s36.667 -60.167 66 -67.5z" />
    <glyph glyph-name="sterling" unicode="&#xa3;" horiz-adv-x="481" 
d="M459 0l-412.998 0.00390625v68c28 6.66699 51.167 23 69.5 49s27.5 54 27.5 84c0 14.667 -1.83301 30.167 -5.5 46.5s-8.5 30.166 -14.5 41.499h-103v24h93l-39 91c-12 30 -18 63.667 -18 101c0 30 5.83301 56.167 17.5 78.5s27.334 41.666 47.001 57.999
s43.167 28.666 70.5 36.999s55.333 12.5 84 12.5c16 0 31 -1 45 -3s29 -5.66699 45 -11c30.667 -8 56 -21.667 76 -41v-179h-27l1 4c-6.66699 36 -15.334 68.667 -26.001 98c-10 31.333 -20 54.333 -30 69c-19.333 26 -47.333 39 -84 39
c-42.667 0 -76.834 -11.833 -102.501 -35.5s-38.5 -56.5 -38.5 -98.5c0 -13.333 0.333008 -23.166 1 -29.499s3 -15.833 7 -28.5s7.33301 -22.834 10 -30.501s6 -16.5 10 -26.5l24 -55c7.33301 -16 13.666 -32.667 18.999 -50h168v-24h-160l6 -27v-26
c0 -15.333 -2.66699 -29.833 -8 -43.5s-12.833 -26.834 -22.5 -39.501l-29.5 -37c-10 -12 -20.333 -22.333 -31 -31h309v113h22v-198z" />
    <glyph glyph-name="sterling" unicode="&#x408;" horiz-adv-x="481" 
d="M459 0l-412.998 0.00390625v68c28 6.66699 51.167 23 69.5 49s27.5 54 27.5 84c0 14.667 -1.83301 30.167 -5.5 46.5s-8.5 30.166 -14.5 41.499h-103v24h93l-39 91c-12 30 -18 63.667 -18 101c0 30 5.83301 56.167 17.5 78.5s27.334 41.666 47.001 57.999
s43.167 28.666 70.5 36.999s55.333 12.5 84 12.5c16 0 31 -1 45 -3s29 -5.66699 45 -11c30.667 -8 56 -21.667 76 -41v-179h-27l1 4c-6.66699 36 -15.334 68.667 -26.001 98c-10 31.333 -20 54.333 -30 69c-19.333 26 -47.333 39 -84 39
c-42.667 0 -76.834 -11.833 -102.501 -35.5s-38.5 -56.5 -38.5 -98.5c0 -13.333 0.333008 -23.166 1 -29.499s3 -15.833 7 -28.5s7.33301 -22.834 10 -30.501s6 -16.5 10 -26.5l24 -55c7.33301 -16 13.666 -32.667 18.999 -50h168v-24h-160l6 -27v-26
c0 -15.333 -2.66699 -29.833 -8 -43.5s-12.833 -26.834 -22.5 -39.501l-29.5 -37c-10 -12 -20.333 -22.333 -31 -31h309v113h22v-198z" />
    <glyph glyph-name="currency" unicode="&#xa4;" horiz-adv-x="420" 
d="M400 84l-22.001 -21.999l-50 51c-32 -26 -70 -39 -114 -39c-46 0 -85 14.667 -117 44l-55 -56l-22 22l55 56c-26.667 32.667 -40 70.667 -40 114c0 42 12.667 79.667 38 113l-53 53l22 22l53 -53c34 30 73.667 45 119 45c22.667 0 43.334 -3.5 62.001 -10.5
s36.334 -17.167 53.001 -30.5l49 49l22 -22l-49 -49c12 -14 22.333 -31.333 31 -52s13 -42.334 13 -65.001c0 -22 -4.33301 -43.667 -13 -65s-19.334 -39.333 -32.001 -54zM355.999 254.001c0 40 -13.666 73.502 -40.999 100.502s-61 40.5 -101 40.5
c-20 0 -37.833 -3.5 -53.5 -10.5s-30.334 -17 -44.001 -30s-24.167 -28.167 -31.5 -45.5s-11 -35.666 -11 -54.999c0 -20.667 3.5 -38.834 10.5 -54.501s17 -30.334 30 -44.001s28.167 -24.167 45.5 -31.5s35.333 -11 54 -11c20.667 0 39.5 3.66699 56.5 11
s31.833 17.333 44.5 30s22.667 27.667 30 45s11 35.666 11 54.999z" />
    <glyph glyph-name="yen" unicode="&#xa5;" horiz-adv-x="496" 
d="M496 660h-45l-133 -293h112v-24h-124l-10 -24v-54h134v-24h-134v-221h62v-20h-216v20h62v221h-140v24h140v43l-14 35h-126v24h113l-139 293h-38v20h220v-20h-73l134 -307l139 307h-68v20h144v-20z" />
    <glyph glyph-name="yen" unicode="&#x490;" horiz-adv-x="496" 
d="M496 660h-45l-133 -293h112v-24h-124l-10 -24v-54h134v-24h-134v-221h62v-20h-216v20h62v221h-140v24h140v43l-14 35h-126v24h113l-139 293h-38v20h220v-20h-73l134 -307l139 307h-68v20h144v-20z" />
    <glyph glyph-name="brokenbar" unicode="&#xa6;" horiz-adv-x="130" 
d="M90 303h-50v377h50v-377zM90 -170h-50v377h50v-377z" />
    <glyph glyph-name="section" unicode="&#xa7;" horiz-adv-x="472" 
d="M452 225c0 -27.333 -7.66797 -53.335 -23.001 -78.002c-14 -25.333 -35 -43.666 -63 -54.999c27.333 -27.333 41 -61.666 41 -102.999c0 -23.333 -5 -45.666 -15 -66.999c-8.66699 -21.333 -21.667 -39.333 -39 -54c-16 -15.333 -35.167 -27.333 -57.5 -36
s-44.833 -13 -67.5 -13c-12.667 0 -25.5 1 -38.5 3s-26.5 5.33301 -40.5 10c-26.667 8 -52 18.333 -76 31v182h27c6.66699 -41.333 14 -76.833 22 -106.5s16.667 -50.834 26 -63.501c4.66699 -12 15.334 -20.333 32.001 -25c8.66699 -2 17 -3.66699 25 -5s16.667 -2 26 -2
c34.667 0 64.167 10.5 88.5 31.5s36.5 46.167 36.5 75.5c0 30 -12 54.667 -36 74c-12 9.33301 -27.667 19.666 -47 30.999c-14.667 8.66699 -26 15 -34 19l-76 32c-11.333 4.66699 -23 10 -35 16s-23.667 12.333 -35 19c-20 12.667 -37.667 29 -53 49
c-13.333 19.333 -20 44.333 -20 75c0 14 1.83301 27.667 5.5 41s9.83398 27 18.501 41s18.334 25.5 29.001 34.5s23.667 16.167 39 21.5c-16 14 -30 32.333 -42 55c-5.33301 12 -9.33301 23.167 -12 33.5s-4 21.833 -4 34.5c0 50 18.167 90 54.5 120s83.833 45 142.5 45
c22 0 46.667 -5 74 -15c8.66699 -2.66699 19 -6.5 31 -11.5s23.667 -10.833 35 -17.5v-178h-27c-7.33301 40.667 -15.5 76.334 -24.5 107.001s-18.167 52 -27.5 64c-6.66699 10 -16.334 17 -29.001 21s-27.667 6 -45 6c-38 0 -68 -10.667 -90 -32
c-22 -20 -33 -48.667 -33 -86c0 -30.667 10.333 -55 31 -73c9.33301 -7.33301 20.5 -14.833 33.5 -22.5l41.5 -23.5l79 -35c25.333 -10 50 -23 74 -39c21.333 -14 39.666 -31.5 54.999 -52.5s23 -47.167 23 -78.5zM406.999 185.998c0 24 -9.16797 44.8311 -27.501 62.498
s-41.5 33.834 -69.5 48.501l-88 42c-30 13.333 -58 28.333 -84 45c-21.333 -4.66699 -39 -16 -53 -34c-12 -17.333 -18 -32 -18 -44c0 -26.667 9.33301 -47.667 28 -63s43 -29.666 73 -42.999l90 -38c32.667 -12 61.334 -27.667 86.001 -47c42 14 63 37.667 63 71z" />
    <glyph glyph-name="dieresis" unicode="&#xa8;" horiz-adv-x="505" 
d="M166 345v-324.999h197c32 0 53 18 63 54c13.333 43.333 24.666 100.333 33.999 171h25v-256h-465v31h54v640h-54v20h455v-218h-26l-16 82c-6 28.667 -15 55.334 -27 80.001c-4 8.66699 -11.667 16.5 -23 23.5s-23 11.167 -35 12.5h-182v-296h69
c23.333 0 39.333 8.66699 48 26c6 12 12.333 29 19 51c2.66699 9.33301 4.83398 18.666 6.50098 27.999s3.16699 19.666 4.5 30.999h25v-288h-25c0 17.333 -3.66699 36.333 -11 57c-6 20 -12.333 36.667 -19 50c-9.33301 17.333 -25.333 26 -48 26h-69zM348 701.001
c-15.333 0 -28.667 5.33301 -40 16c-10.667 12 -16 25.333 -16 40c0 15.333 5.5 28.5 16.5 39.5s24.167 16.5 39.5 16.5s28.333 -5.66699 39 -17c11.333 -10 17 -23 17 -39c0 -15.333 -5.5 -28.5 -16.5 -39.5s-24.167 -16.5 -39.5 -16.5zM165.999 701.001
c-15.333 0 -28.667 5.33301 -40 16c-10.667 12 -16 25.333 -16 40c0 15.333 5.5 28.5 16.5 39.5s24.167 16.5 39.5 16.5s28.333 -5.66699 39 -17c11.333 -10 17 -23 17 -39c0 -15.333 -5.5 -28.5 -16.5 -39.5s-24.167 -16.5 -39.5 -16.5z" />
    <glyph glyph-name="dieresis" unicode="&#x401;" horiz-adv-x="505" 
d="M166 345v-324.999h197c32 0 53 18 63 54c13.333 43.333 24.666 100.333 33.999 171h25v-256h-465v31h54v640h-54v20h455v-218h-26l-16 82c-6 28.667 -15 55.334 -27 80.001c-4 8.66699 -11.667 16.5 -23 23.5s-23 11.167 -35 12.5h-182v-296h69
c23.333 0 39.333 8.66699 48 26c6 12 12.333 29 19 51c2.66699 9.33301 4.83398 18.666 6.50098 27.999s3.16699 19.666 4.5 30.999h25v-288h-25c0 17.333 -3.66699 36.333 -11 57c-6 20 -12.333 36.667 -19 50c-9.33301 17.333 -25.333 26 -48 26h-69zM348 701.001
c-15.333 0 -28.667 5.33301 -40 16c-10.667 12 -16 25.333 -16 40c0 15.333 5.5 28.5 16.5 39.5s24.167 16.5 39.5 16.5s28.333 -5.66699 39 -17c11.333 -10 17 -23 17 -39c0 -15.333 -5.5 -28.5 -16.5 -39.5s-24.167 -16.5 -39.5 -16.5zM165.999 701.001
c-15.333 0 -28.667 5.33301 -40 16c-10.667 12 -16 25.333 -16 40c0 15.333 5.5 28.5 16.5 39.5s24.167 16.5 39.5 16.5s28.333 -5.66699 39 -17c11.333 -10 17 -23 17 -39c0 -15.333 -5.5 -28.5 -16.5 -39.5s-24.167 -16.5 -39.5 -16.5z" />
    <glyph glyph-name="copyright" unicode="&#xa9;" horiz-adv-x="720" 
d="M700 337c0 -47.333 -9 -92.1689 -27 -134.502s-42.167 -79.166 -72.5 -110.499s-66.333 -56.333 -108 -75s-85.834 -28 -132.501 -28c-46 0 -89.667 9 -131 27s-77.5 42.667 -108.5 74s-55.5 68.333 -73.5 111s-27 88 -27 136c0 24.667 2 48 6 70s10.667 44.333 20 67
c18 42.667 42.333 80.167 73 112.5s67 57.833 109 76.5c22 9.33301 43.333 16.333 64 21s43.334 7 68.001 7c46.667 0 90.667 -9.16699 132 -27.5s77.333 -43.666 108 -75.999s55 -69.833 73 -112.5s27 -88.667 27 -138zM669 336.997
c0 43.333 -7.99805 84.665 -23.998 123.998s-38 73.833 -66 103.5s-61 53 -99 70s-78 25.5 -120 25.5c-21.333 0 -41.833 -2 -61.5 -6s-39.5 -10.667 -59.5 -20c-36 -15.333 -68.333 -38 -97 -68s-51 -64.333 -67 -103s-24 -80.667 -24 -126
c0 -43.333 8 -84.166 24 -122.499s37.833 -71.666 65.5 -99.999s60.5 -51.5 98.5 -69.5c39.333 -16.667 79.666 -25 120.999 -25c42.667 0 82.5 8.16699 119.5 24.5s69.667 38.833 98 67.5s50.666 62.5 66.999 101.5s24.5 80.167 24.5 123.5zM481.002 139.996
c-13.333 -14 -30.667 -23.998 -52 -29.998c-10.667 -2.66699 -20.834 -4.66699 -30.501 -6s-20.167 -2 -31.5 -2c-57.333 0 -103.5 21 -138.5 63s-52.5 99.667 -52.5 173c0 32.667 4.33301 63 13 91c4 14 9 27.333 15 40s13.667 24.667 23 36
c15.333 21.333 35.333 38.666 60 51.999s51.334 20 80.001 20c15.333 0 33 -2 53 -6s38.333 -11.667 55 -23v-119h-22c-3.33301 22.667 -7.5 42.667 -12.5 60s-11.167 32.666 -18.5 45.999c-2 6 -8.33301 11.167 -19 15.5s-22.334 6.5 -35.001 6.5
c-18 0 -34.833 -5.83301 -50.5 -17.5s-28.5 -27 -38.5 -46s-18.333 -42 -25 -69s-10 -55.167 -10 -84.5c0 -67.333 11.667 -120.5 35 -159.5s52.666 -58.5 87.999 -58.5c14.667 0 27.834 2.33301 39.501 7s19.834 12 24.501 22l14 52l14 67h22v-130z" />
    <glyph glyph-name="ordfeminine" unicode="&#xaa;" horiz-adv-x="327" 
d="M287 384l-74.001 0.000976562v45c-6.66699 -15.333 -16.667 -27.833 -30 -37.5s-34.333 -14.5 -63 -14.5c-22 0 -40.833 7 -56.5 21s-23.5 32 -23.5 54c0 26 6.66699 44.667 20 56s30 21.333 50 30l56 17c18 4 32.333 11.333 43 22v46c0 13.333 -5.5 24.666 -16.5 33.999
s-23.833 14 -38.5 14c-8.66699 0 -16.667 -1.66699 -24 -5s-13.666 -7.66602 -18.999 -12.999c-4 -6.66699 -8.66699 -17.334 -14 -32.001l-9 -47h-23v90c26 18 56.333 27 91 27c26 0 49.833 -6.16699 71.5 -18.5s32.5 -34.5 32.5 -66.5v-204h27v-18zM286.999 320.001h-236
v32h236v-32zM208.999 554.001c-9.33301 -6 -21.002 -11.333 -35.002 -16l-37 -15c-11.333 -5.33301 -21.666 -13.5 -30.999 -24.5s-14 -25.5 -14 -43.5c0 -16 4 -30 12 -42c8.66699 -10.667 20.334 -16 35.001 -16c13.333 0 28.333 7 45 21s25 36 25 66v70z" />
    <glyph glyph-name="ordfeminine" unicode="&#x404;" horiz-adv-x="327" 
d="M287 384l-74.001 0.000976562v45c-6.66699 -15.333 -16.667 -27.833 -30 -37.5s-34.333 -14.5 -63 -14.5c-22 0 -40.833 7 -56.5 21s-23.5 32 -23.5 54c0 26 6.66699 44.667 20 56s30 21.333 50 30l56 17c18 4 32.333 11.333 43 22v46c0 13.333 -5.5 24.666 -16.5 33.999
s-23.833 14 -38.5 14c-8.66699 0 -16.667 -1.66699 -24 -5s-13.666 -7.66602 -18.999 -12.999c-4 -6.66699 -8.66699 -17.334 -14 -32.001l-9 -47h-23v90c26 18 56.333 27 91 27c26 0 49.833 -6.16699 71.5 -18.5s32.5 -34.5 32.5 -66.5v-204h27v-18zM286.999 320.001h-236
v32h236v-32zM208.999 554.001c-9.33301 -6 -21.002 -11.333 -35.002 -16l-37 -15c-11.333 -5.33301 -21.666 -13.5 -30.999 -24.5s-14 -25.5 -14 -43.5c0 -16 4 -30 12 -42c8.66699 -10.667 20.334 -16 35.001 -16c13.333 0 28.333 7 45 21s25 36 25 66v70z" />
    <glyph glyph-name="guillemotleft" unicode="&#xab;" horiz-adv-x="321" 
d="M301 79l-19 -17.9971l-44 48l-27 36c-4.66699 6.66699 -9.16699 14.334 -13.5 23.001s-8.5 18 -12.5 28c-6 17.333 -9 35.666 -9 54.999c0 36 11.333 71.667 34 107c6.66699 11.333 17 25.333 31 42c12 14 18.667 22 20 24c6 6.66699 13 13.667 21 21l19 -18
c-9.33301 -16.667 -17.5 -32.334 -24.5 -47.001s-12.833 -28.667 -17.5 -42c-9.33301 -28 -14 -57 -14 -87c0 -16.667 1 -31.834 3 -45.501s5.66699 -27.834 11 -42.501c10 -26 24 -54 42 -84zM243 23.0029l-16.999 -20l-75 54c-24.667 20 -43.667 37 -57 51
c-22.667 22.667 -41 46 -55 70c-12.667 25.333 -19 49.666 -19 72.999c0 26 6.66699 50 20 72c13.333 24 31.666 47 54.999 69l55 47l76 57l17 -20l-23 -18l-25 -24l-23 -25l-18 -21c-15.333 -20 -28.333 -42.5 -39 -67.5s-16 -48.167 -16 -69.5
c0 -18.667 5.16699 -39.667 15.5 -63s22.833 -44.666 37.5 -63.999l41 -52z" />
    <glyph glyph-name="logicalnot" unicode="&#xac;" horiz-adv-x="562" 
d="M522 154h-49v175h-433v49h482v-224z" />
    <glyph glyph-name="registered" unicode="&#xae;" horiz-adv-x="719" 
d="M699 337c0 -47.333 -8.66895 -92.1689 -26.002 -134.502s-41.5 -79.166 -72.5 -110.499s-67 -56.333 -108 -75s-85.5 -28 -133.5 -28c-46 0 -89.667 9 -131 27s-77.333 42.667 -108 74s-55 68.333 -73 111s-27 88 -27 136c0 24.667 2 48 6 70s10.667 44.333 20 67
c18 42.667 42 80 72 112s66.333 57.667 109 77c22 9.33301 43.333 16.333 64 21s43.334 7 68.001 7c48 0 92.333 -9.16699 133 -27.5s76.334 -43.666 107.001 -75.999s55 -69.833 73 -112.5s27 -88.667 27 -138zM667.998 336.997c0 43.333 -8 84.6641 -24 123.997
s-38 73.833 -66 103.5s-61 53 -99 70s-78 25.5 -120 25.5c-43.333 0 -83.166 -8.16699 -119.499 -24.5s-68.833 -39.5 -97.5 -69.5s-51 -64.333 -67 -103s-24 -80.667 -24 -126c0 -43.333 8 -84.166 24 -122.499s37.833 -71.666 65.5 -99.999s60.667 -51.166 99 -68.499
s78.166 -26 119.499 -26c42.667 0 82.667 8.33301 120 25c20.667 8.66699 38.667 18.167 54 28.5s30.333 23.5 45 39.5c28 28 50 61.167 66 99.5s24 79.833 24 124.5zM544.998 110.995l-76.001 0.000976562l-160 230h-7v-210h40v-20h-137v20h37v418h-37v20h181
c37.333 0 70.333 -9.83301 99 -29.5s43 -45.834 43 -78.501c0 -33.333 -14.167 -60.333 -42.5 -81s-64.166 -33.667 -107.499 -39l150 -210h17v-20zM370.997 548.996h-69.001v-188h67c32.667 0 56.334 10 71.001 30s22 42.667 22 68c0 26 -8.66699 47.333 -26 64
c-16 17.333 -37.667 26 -65 26z" />
    <glyph glyph-name="degree" unicode="&#xb0;" horiz-adv-x="268" 
d="M248 576c0 -33.333 -10.667 -60.833 -32 -82.5s-48.333 -32.5 -81 -32.5s-60 10.833 -82 32.5s-33 49.167 -33 82.5c0 31.333 11 58.333 33 81s49.333 34 82 34c32 0 58.833 -11.167 80.5 -33.5s32.5 -49.5 32.5 -81.5zM135 666
c-23.333 0 -44.167 -8.83203 -62.5 -26.499s-27.5 -38.834 -27.5 -63.501c0 -25.333 9 -46.666 27 -63.999s39 -26 63 -26s44.667 8.66699 62 26s26 38.666 26 63.999c0 24.667 -8.66699 45.667 -26 63c-16 18 -36.667 27 -62 27z" />
    <glyph glyph-name="plusminus" unicode="&#xb1;" horiz-adv-x="572" 
d="M532 330h-222v-222h-48v222h-222v48h222v221h48v-221h222v-48zM532 0h-492v48h492v-48z" />
    <glyph glyph-name="twosuperior" unicode="&#xb2;" horiz-adv-x="315" 
d="M270 276l-230.003 -0.00195312v45l78 71c36.667 34.667 63.334 69.667 80.001 105c14.667 35.333 22 64.333 22 87c0 28.667 -6.66699 50.334 -20 65.001s-29.666 22 -48.999 22c-24.667 0 -40.834 -7 -48.501 -21s-13.5 -31.333 -17.5 -52l-7 -49h-20v121
c2.66699 1.33301 9.33398 3.5 20.001 6.5s20.334 5.5 29.001 7.5s17 3.66699 25 5s16.333 2 25 2c35.333 0 63.833 -9.83301 85.5 -29.5s32.5 -45.5 32.5 -77.5c0 -17.333 -3 -34.333 -9 -51s-15.667 -34 -29 -52c-24 -33.333 -55 -66.666 -93 -99.999l-65 -57h171v56h20
v-104z" />
    <glyph glyph-name="twosuperior" unicode="&#x406;" horiz-adv-x="315" 
d="M270 276l-230.003 -0.00195312v45l78 71c36.667 34.667 63.334 69.667 80.001 105c14.667 35.333 22 64.333 22 87c0 28.667 -6.66699 50.334 -20 65.001s-29.666 22 -48.999 22c-24.667 0 -40.834 -7 -48.501 -21s-13.5 -31.333 -17.5 -52l-7 -49h-20v121
c2.66699 1.33301 9.33398 3.5 20.001 6.5s20.334 5.5 29.001 7.5s17 3.66699 25 5s16.333 2 25 2c35.333 0 63.833 -9.83301 85.5 -29.5s32.5 -45.5 32.5 -77.5c0 -17.333 -3 -34.333 -9 -51s-15.667 -34 -29 -52c-24 -33.333 -55 -66.666 -93 -99.999l-65 -57h171v56h20
v-104z" />
    <glyph glyph-name="threesuperior" unicode="&#xb3;" horiz-adv-x="320" 
d="M150 691c36.667 0 65.668 -8.66895 87.001 -26.002c21.333 -16 32 -40.667 32 -74c0 -24 -7.33301 -44.5 -22 -61.5s-35.667 -30.167 -63 -39.5l1 -1c26.667 -6 49.167 -19 67.5 -39s27.5 -41.667 27.5 -65c0 -16.667 -3.5 -32 -10.5 -46s-16.833 -26.333 -29.5 -37
s-27.334 -19 -44.001 -25c-8 -2.66699 -15.833 -4.66699 -23.5 -6s-16.5 -2 -26.5 -2c-20 0 -40 3 -60 9s-35.333 13.667 -46 23v111h20l10 -50c4 -19.333 9.33301 -35.333 16 -48c4 -7.33301 12.333 -14 25 -20c12 -4 23.667 -6 35 -6c22 0 40.333 8.83301 55 26.5
s22 39.5 22 65.5c0 30.667 -6.66699 55 -20 73s-33.333 27 -60 27h-25l-2 4v5v5l2 4h25c20 0 37 8.5 51 25.5s21 39.5 21 67.5c0 24 -6 43.333 -18 58s-29.333 22 -52 22c-8 0 -18 -1.66699 -30 -5s-19.667 -8.66602 -23 -15.999
c-7.33301 -15.333 -12.333 -30.666 -15 -45.999l-6 -51h-21v116c10.667 5.33301 25.5 10.333 44.5 15s37.5 7 55.5 7z" />
    <glyph glyph-name="threesuperior" unicode="&#x456;" horiz-adv-x="320" 
d="M150 691c36.667 0 65.668 -8.66895 87.001 -26.002c21.333 -16 32 -40.667 32 -74c0 -24 -7.33301 -44.5 -22 -61.5s-35.667 -30.167 -63 -39.5l1 -1c26.667 -6 49.167 -19 67.5 -39s27.5 -41.667 27.5 -65c0 -16.667 -3.5 -32 -10.5 -46s-16.833 -26.333 -29.5 -37
s-27.334 -19 -44.001 -25c-8 -2.66699 -15.833 -4.66699 -23.5 -6s-16.5 -2 -26.5 -2c-20 0 -40 3 -60 9s-35.333 13.667 -46 23v111h20l10 -50c4 -19.333 9.33301 -35.333 16 -48c4 -7.33301 12.333 -14 25 -20c12 -4 23.667 -6 35 -6c22 0 40.333 8.83301 55 26.5
s22 39.5 22 65.5c0 30.667 -6.66699 55 -20 73s-33.333 27 -60 27h-25l-2 4v5v5l2 4h25c20 0 37 8.5 51 25.5s21 39.5 21 67.5c0 24 -6 43.333 -18 58s-29.333 22 -52 22c-8 0 -18 -1.66699 -30 -5s-19.667 -8.66602 -23 -15.999
c-7.33301 -15.333 -12.333 -30.666 -15 -45.999l-6 -51h-21v116c10.667 5.33301 25.5 10.333 44.5 15s37.5 7 55.5 7z" />
    <glyph glyph-name="mu" unicode="&#xb5;" horiz-adv-x="459" 
d="M439 0h-123.999v69c-4 -15.333 -10.667 -28 -20 -38l-11 -11c-2.66699 -2.66699 -8.33398 -6.66699 -17.001 -12s-18 -9.33301 -28 -12l-28 -5l-33 1c-11.333 1.33301 -19.333 3 -24 5v-80c0 -30.667 -10.167 -54.667 -30.5 -72s-45.833 -26 -76.5 -26h-25v19h6l5 1
c23.333 2 35 21.667 35 59v583h-38v19h124v-410c0 -20 7 -37.667 21 -53c14.667 -13.333 31 -20 49 -20c22 0 41.333 12.333 58 37c8.66699 13.333 15.5 27.833 20.5 43.5s7.5 32.167 7.5 49.5v334h-39v19h125v-481h43v-19z" />
    <glyph glyph-name="paragraph" unicode="&#xb6;" horiz-adv-x="313" 
d="M293 -170h-92v850h92v-19h-43v-812h43v-19zM155 -170h-93.001v19h44v659c-23.333 0 -43.666 8.33301 -60.999 25c-16.667 18 -25 38.333 -25 61c0 24 8.66699 44.333 26 61s37.333 25 60 25h49v-850z" />
    <glyph glyph-name="cedilla" unicode="&#xb8;" horiz-adv-x="415" 
d="M393 294l-278.004 0.000976562c0 -11.333 -0.666992 -19.333 -2 -24l-1 -10c0 -89.333 11 -152.833 33 -190.5s50 -56.5 84 -56.5c20.667 0 40 4.33301 58 13s32.5 20 43.5 34s20.5 31.333 28.5 52s12 41 12 61v15h22v-13c0 -52 -15.167 -96 -45.5 -132
s-72.166 -54 -125.499 -54c-29.333 0 -56.166 6.33301 -80.499 19s-45.666 31 -63.999 55s-32.5 52 -42.5 84s-15 67.333 -15 106c0 40 4.66699 75 14 105c8.66699 31.333 21.5 58.166 38.5 80.499s37.333 40 61 53s49.167 19.5 76.5 19.5
c54.667 0 98.834 -16.333 132.501 -49s50.5 -88.667 50.5 -168zM304.996 314.001c0 34.667 -2.66699 62.332 -8 82.999c-4 23.333 -10.667 41.333 -20 54c-8 12.667 -18.167 21.834 -30.5 27.501s-24.5 8.5 -36.5 8.5c-25.333 0 -46 -12.833 -62 -38.5s-27 -70.5 -33 -134.5
h190zM298.996 578.999c-15.333 0 -28.667 5.33301 -40 16c-10.667 12 -16 25.333 -16 40c0 15.333 5.5 28.5 16.5 39.5s24.167 16.5 39.5 16.5s28.333 -5.66699 39 -17c11.333 -10 17 -23 17 -39c0 -15.333 -5.5 -28.5 -16.5 -39.5s-24.167 -16.5 -39.5 -16.5z
M116.995 578.999c-15.333 0 -28.667 5.33301 -40 16c-10.667 12 -16 25.333 -16 40c0 15.333 5.5 28.5 16.5 39.5s24.167 16.5 39.5 16.5s28.333 -5.66699 39 -17c11.333 -10 17 -23 17 -39c0 -15.333 -5.5 -28.5 -16.5 -39.5s-24.167 -16.5 -39.5 -16.5z" />
    <glyph glyph-name="cedilla" unicode="&#x451;" horiz-adv-x="415" 
d="M393 294l-278.004 0.000976562c0 -11.333 -0.666992 -19.333 -2 -24l-1 -10c0 -89.333 11 -152.833 33 -190.5s50 -56.5 84 -56.5c20.667 0 40 4.33301 58 13s32.5 20 43.5 34s20.5 31.333 28.5 52s12 41 12 61v15h22v-13c0 -52 -15.167 -96 -45.5 -132
s-72.166 -54 -125.499 -54c-29.333 0 -56.166 6.33301 -80.499 19s-45.666 31 -63.999 55s-32.5 52 -42.5 84s-15 67.333 -15 106c0 40 4.66699 75 14 105c8.66699 31.333 21.5 58.166 38.5 80.499s37.333 40 61 53s49.167 19.5 76.5 19.5
c54.667 0 98.834 -16.333 132.501 -49s50.5 -88.667 50.5 -168zM304.996 314.001c0 34.667 -2.66699 62.332 -8 82.999c-4 23.333 -10.667 41.333 -20 54c-8 12.667 -18.167 21.834 -30.5 27.501s-24.5 8.5 -36.5 8.5c-25.333 0 -46 -12.833 -62 -38.5s-27 -70.5 -33 -134.5
h190zM298.996 578.999c-15.333 0 -28.667 5.33301 -40 16c-10.667 12 -16 25.333 -16 40c0 15.333 5.5 28.5 16.5 39.5s24.167 16.5 39.5 16.5s28.333 -5.66699 39 -17c11.333 -10 17 -23 17 -39c0 -15.333 -5.5 -28.5 -16.5 -39.5s-24.167 -16.5 -39.5 -16.5z
M116.995 578.999c-15.333 0 -28.667 5.33301 -40 16c-10.667 12 -16 25.333 -16 40c0 15.333 5.5 28.5 16.5 39.5s24.167 16.5 39.5 16.5s28.333 -5.66699 39 -17c11.333 -10 17 -23 17 -39c0 -15.333 -5.5 -28.5 -16.5 -39.5s-24.167 -16.5 -39.5 -16.5z" />
    <glyph glyph-name="onesuperior" unicode="&#xb9;" horiz-adv-x="854" 
d="M678 105c-22.667 0 -42.501 5.66895 -59.501 17.002s-31 26.666 -42 45.999s-20.167 43.333 -27.5 72c-2.66699 13.333 -4.66699 26.5 -6 39.5s-2 28.167 -2 45.5c0 32.667 2.83301 61.667 8.5 87s14 47.666 25 66.999s25.333 35 43 47s37.834 18 60.501 18
s42.667 -5.83301 60 -17.5s31.5 -27.334 42.5 -47.001s19.5 -43.167 25.5 -70.5c2.66699 -13.333 4.66699 -26.5 6 -39.5s2 -27.833 2 -44.5c0 -29.333 -2.83301 -57.5 -8.5 -84.5s-14.167 -50.667 -25.5 -71s-25.5 -36.166 -42.5 -47.499s-36.833 -17 -59.5 -17z
M677.999 125.002c12.667 0 23.998 5.50293 33.998 16.5029s18 25.5 24 43.5s11 39.333 15 64c2 16.667 3.33301 29 4 37s1 21 1 39c0 13.333 -0.333008 26.666 -1 39.999s-2 26 -4 38c0 11.333 -1.16699 22.166 -3.5 32.499s-5.83301 20.5 -10.5 30.5
c-6 18.667 -14.333 32.667 -25 42c-9.33301 10.667 -20.666 16 -33.999 16c-12.667 0 -24 -5 -34 -15s-18.667 -24.333 -26 -43c-2.66699 -8.66699 -5.33398 -19.334 -8.00098 -32.001s-5 -26.667 -7 -42s-3.16699 -28.666 -3.5 -39.999s-0.5 -20.333 -0.5 -27
c0 -12.667 0.333008 -25.334 1 -38.001s2.33398 -28.667 5.00098 -48s7 -37.5 13 -54.5s14.333 -31.167 25 -42.5s22.334 -17 35.001 -17zM795.997 0.00488281h-236v48h236v-48zM541.997 661.005h-54v-661h-43l-348 636v-617h80v-19h-157v19h54v642h-54v19h160l285 -520v501
h-79v19h156v-19z" />
    <glyph glyph-name="onesuperior" unicode="&#x2116;" horiz-adv-x="854" 
d="M678 105c-22.667 0 -42.501 5.66895 -59.501 17.002s-31 26.666 -42 45.999s-20.167 43.333 -27.5 72c-2.66699 13.333 -4.66699 26.5 -6 39.5s-2 28.167 -2 45.5c0 32.667 2.83301 61.667 8.5 87s14 47.666 25 66.999s25.333 35 43 47s37.834 18 60.501 18
s42.667 -5.83301 60 -17.5s31.5 -27.334 42.5 -47.001s19.5 -43.167 25.5 -70.5c2.66699 -13.333 4.66699 -26.5 6 -39.5s2 -27.833 2 -44.5c0 -29.333 -2.83301 -57.5 -8.5 -84.5s-14.167 -50.667 -25.5 -71s-25.5 -36.166 -42.5 -47.499s-36.833 -17 -59.5 -17z
M677.999 125.002c12.667 0 23.998 5.50293 33.998 16.5029s18 25.5 24 43.5s11 39.333 15 64c2 16.667 3.33301 29 4 37s1 21 1 39c0 13.333 -0.333008 26.666 -1 39.999s-2 26 -4 38c0 11.333 -1.16699 22.166 -3.5 32.499s-5.83301 20.5 -10.5 30.5
c-6 18.667 -14.333 32.667 -25 42c-9.33301 10.667 -20.666 16 -33.999 16c-12.667 0 -24 -5 -34 -15s-18.667 -24.333 -26 -43c-2.66699 -8.66699 -5.33398 -19.334 -8.00098 -32.001s-5 -26.667 -7 -42s-3.16699 -28.666 -3.5 -39.999s-0.5 -20.333 -0.5 -27
c0 -12.667 0.333008 -25.334 1 -38.001s2.33398 -28.667 5.00098 -48s7 -37.5 13 -54.5s14.333 -31.167 25 -42.5s22.334 -17 35.001 -17zM795.997 0.00488281h-236v48h236v-48zM541.997 661.005h-54v-661h-43l-348 636v-617h80v-19h-157v19h54v642h-54v19h160l285 -520v501
h-79v19h156v-19z" />
    <glyph glyph-name="ordmasculine" unicode="&#xba;" horiz-adv-x="309" 
d="M269 535c0 -44 -10.1689 -81.333 -30.502 -112s-48.166 -46 -83.499 -46c-34 0 -61.667 15 -83 45s-32 67.667 -32 113c0 44 10 81 30 111s48.333 45 85 45c34.667 0 62.334 -14.5 83.001 -43.5s31 -66.5 31 -112.5zM258.998 320h-208v32h208v-32zM212.998 535
c0 50 -5.16699 85.1689 -15.5 105.502s-24.5 30.5 -42.5 30.5c-17.333 0 -32 -10.333 -44 -31c-10 -20 -15 -55 -15 -105c0 -50.667 5 -86.334 15 -107.001s24.667 -31 44 -31c18 0 32.167 10.167 42.5 30.5s15.5 56.166 15.5 107.499z" />
    <glyph glyph-name="ordmasculine" unicode="&#x454;" horiz-adv-x="309" 
d="M269 535c0 -44 -10.1689 -81.333 -30.502 -112s-48.166 -46 -83.499 -46c-34 0 -61.667 15 -83 45s-32 67.667 -32 113c0 44 10 81 30 111s48.333 45 85 45c34.667 0 62.334 -14.5 83.001 -43.5s31 -66.5 31 -112.5zM258.998 320h-208v32h208v-32zM212.998 535
c0 50 -5.16699 85.1689 -15.5 105.502s-24.5 30.5 -42.5 30.5c-17.333 0 -32 -10.333 -44 -31c-10 -20 -15 -55 -15 -105c0 -50.667 5 -86.334 15 -107.001s24.667 -31 44 -31c18 0 32.167 10.167 42.5 30.5s15.5 56.166 15.5 107.499z" />
    <glyph glyph-name="guillemotright" unicode="&#xbb;" horiz-adv-x="321" 
d="M95 496l33.001 -23.999l37 -29l35 -28l26 -23c23.333 -21.333 41.666 -44.333 54.999 -69c13.333 -22.667 20 -46.667 20 -72c0 -24.667 -6.33301 -48.834 -19 -72.501s-31 -47.167 -55 -70.5l-26 -23l-35 -29l-37 -29l-34 -24l-17 20l22 22l26 27l24 28l19 24
c13.333 18 26 39.333 38 64c10 22 15 43 15 63c0 21.333 -5.16699 44 -15.5 68s-23.5 47 -39.5 69c-4.66699 6.66699 -11 13.667 -19 21l-24 25l-25 24l-21 18zM145.001 251.001c0 -19.333 -3.33301 -37.8301 -10 -55.4971s-15 -34.5 -25 -50.5
c-4.66699 -8 -15.667 -21.667 -33 -41l-39 -43l-18 18c16.667 26.667 30.167 54.167 40.5 82.5s15.5 58.166 15.5 89.499c0 32 -4.5 60.833 -13.5 86.5s-23.167 55.5 -42.5 89.5l18 18l18 -20l21 -23l20 -24c6 -6.66699 10.333 -13.334 13 -20.001
c23.333 -34.667 35 -70.334 35 -107.001z" />
    <glyph glyph-name="onequarter" unicode="&#xbc;" horiz-adv-x="637" 
d="M195 277h-121.998v18h40v328c-12 -12 -22.667 -21 -32 -27l-33 -21l-8 14c15.333 10 33.666 24 54.999 42c19.333 15.333 35.666 35.333 48.999 60h21v-396h30v-18zM496.002 680l-325 -680h-34l326 680h33zM576.002 0h-127v20h46v104h-164v23l188 267h28v-266h50v-24h-50
v-104h29v-20zM495.002 148v194l-137 -194h137z" />
    <glyph glyph-name="onequarter" unicode="&#x458;" horiz-adv-x="637" 
d="M195 277h-121.998v18h40v328c-12 -12 -22.667 -21 -32 -27l-33 -21l-8 14c15.333 10 33.666 24 54.999 42c19.333 15.333 35.666 35.333 48.999 60h21v-396h30v-18zM496.002 680l-325 -680h-34l326 680h33zM576.002 0h-127v20h46v104h-164v23l188 267h28v-266h50v-24h-50
v-104h29v-20zM495.002 148v194l-137 -194h137z" />
    <glyph glyph-name="onehalf" unicode="&#xbd;" horiz-adv-x="664" 
d="M619 0h-230.001v45l78 71c38 34.667 64.5 69.667 79.5 105s22.5 64.333 22.5 87c0 27.333 -6.83301 48.666 -20.5 63.999s-29.834 23 -48.501 23c-24.667 0 -41.334 -7.66699 -50.001 -23c-5.33301 -12 -10.666 -28.667 -15.999 -50l-7 -49h-20v121
c2.66699 1.33301 9.33398 3.5 20.001 6.5s20.334 5.5 29.001 7.5s17 3.66699 25 5s16.333 2 25 2c36.667 0 65.5 -9.83301 86.5 -29.5s31.5 -45.5 31.5 -77.5c0 -17.333 -3 -34.333 -9 -51s-15.667 -34 -29 -52c-24 -33.333 -55 -66.666 -93 -99.999l-65 -57h171v56h20v-104
zM476.999 680l-325 -680h-34l326 680h33zM194.999 277h-121.998v18h40v328c-12 -12 -22.667 -21 -32 -27l-33 -21l-8 14c15.333 10 33.666 24 54.999 42c19.333 15.333 35.666 35.333 48.999 60h21v-396h30v-18z" />
    <glyph glyph-name="onehalf" unicode="&#x405;" horiz-adv-x="664" 
d="M619 0h-230.001v45l78 71c38 34.667 64.5 69.667 79.5 105s22.5 64.333 22.5 87c0 27.333 -6.83301 48.666 -20.5 63.999s-29.834 23 -48.501 23c-24.667 0 -41.334 -7.66699 -50.001 -23c-5.33301 -12 -10.666 -28.667 -15.999 -50l-7 -49h-20v121
c2.66699 1.33301 9.33398 3.5 20.001 6.5s20.334 5.5 29.001 7.5s17 3.66699 25 5s16.333 2 25 2c36.667 0 65.5 -9.83301 86.5 -29.5s31.5 -45.5 31.5 -77.5c0 -17.333 -3 -34.333 -9 -51s-15.667 -34 -29 -52c-24 -33.333 -55 -66.666 -93 -99.999l-65 -57h171v56h20v-104
zM476.999 680l-325 -680h-34l326 680h33zM194.999 277h-121.998v18h40v328c-12 -12 -22.667 -21 -32 -27l-33 -21l-8 14c15.333 10 33.666 24 54.999 42c19.333 15.333 35.666 35.333 48.999 60h21v-396h30v-18z" />
    <glyph glyph-name="threequarters" unicode="&#xbe;" horiz-adv-x="644" 
d="M525 680l-325 -680h-34l326 680h33zM598 0h-127v20h46v104h-164v23l188 267h28v-266h50v-24h-50v-104h29v-20zM517 148v194l-137 -194h137zM150 691c36.667 0 65.668 -8.66895 87.001 -26.002c21.333 -16 32 -40.667 32 -74c0 -24 -7.33301 -44.5 -22 -61.5
s-35.667 -30.167 -63 -39.5l1 -1c26.667 -6 49.167 -19 67.5 -39s27.5 -41.667 27.5 -65c0 -16.667 -3.5 -32 -10.5 -46s-16.833 -26.333 -29.5 -37s-27.334 -19 -44.001 -25c-8 -2.66699 -15.833 -4.66699 -23.5 -6s-16.5 -2 -26.5 -2c-20 0 -40 3 -60 9
s-35.333 13.667 -46 23v111h20l10 -50c4 -19.333 9.33301 -35.333 16 -48c4 -7.33301 12.333 -14 25 -20c12 -4 23.667 -6 35 -6c22 0 40.333 8.83301 55 26.5s22 39.5 22 65.5c0 30.667 -6.66699 55 -20 73s-33.333 27 -60 27h-25l-2 4v5v5l2 4h25c20 0 37 8.5 51 25.5
s21 39.5 21 67.5c0 24 -6 43.333 -18 58s-29.333 22 -52 22c-8 0 -18 -1.66699 -30 -5s-19.667 -8.66602 -23 -15.999c-7.33301 -15.333 -12.333 -30.666 -15 -45.999l-6 -51h-21v116c10.667 5.33301 25.5 10.333 44.5 15s37.5 7 55.5 7z" />
    <glyph glyph-name="threequarters" unicode="&#x455;" horiz-adv-x="644" 
d="M525 680l-325 -680h-34l326 680h33zM598 0h-127v20h46v104h-164v23l188 267h28v-266h50v-24h-50v-104h29v-20zM517 148v194l-137 -194h137zM150 691c36.667 0 65.668 -8.66895 87.001 -26.002c21.333 -16 32 -40.667 32 -74c0 -24 -7.33301 -44.5 -22 -61.5
s-35.667 -30.167 -63 -39.5l1 -1c26.667 -6 49.167 -19 67.5 -39s27.5 -41.667 27.5 -65c0 -16.667 -3.5 -32 -10.5 -46s-16.833 -26.333 -29.5 -37s-27.334 -19 -44.001 -25c-8 -2.66699 -15.833 -4.66699 -23.5 -6s-16.5 -2 -26.5 -2c-20 0 -40 3 -60 9
s-35.333 13.667 -46 23v111h20l10 -50c4 -19.333 9.33301 -35.333 16 -48c4 -7.33301 12.333 -14 25 -20c12 -4 23.667 -6 35 -6c22 0 40.333 8.83301 55 26.5s22 39.5 22 65.5c0 30.667 -6.66699 55 -20 73s-33.333 27 -60 27h-25l-2 4v5v5l2 4h25c20 0 37 8.5 51 25.5
s21 39.5 21 67.5c0 24 -6 43.333 -18 58s-29.333 22 -52 22c-8 0 -18 -1.66699 -30 -5s-19.667 -8.66602 -23 -15.999c-7.33301 -15.333 -12.333 -30.666 -15 -45.999l-6 -51h-21v116c10.667 5.33301 25.5 10.333 44.5 15s37.5 7 55.5 7z" />
    <glyph glyph-name="questiondown" unicode="&#xbf;" horiz-adv-x="408" 
d="M387 48l-0.00195312 -204.996c-2.66699 -0.666992 -12 -3.16699 -28 -7.5s-29.667 -7.5 -41 -9.5s-24 -3.66699 -38 -5s-28.333 -2 -43 -2c-64 0 -113 13.667 -147 41s-51 63.333 -51 108c0 29.333 4.83301 53.666 14.5 72.999s21.334 36.666 35.001 51.999
s29.5 29.333 47.5 42l46 35c14.667 11.333 26.834 22.833 36.501 34.5s14.5 25.167 14.5 40.5v53h26v-53c0 -20.667 -6 -41 -18 -61l-39 -61c-14 -20.667 -27 -43.334 -39 -68.001s-18 -53.334 -18 -86.001c0 -17.333 3.5 -33.833 10.5 -49.5s15.5 -29 25.5 -40
s20.833 -19.667 32.5 -26s22.5 -9.83301 32.5 -10.5c13.333 0 27.333 3.66699 42 11s24.834 16.5 30.501 27.5s13.5 30.5 23.5 58.5c7.33301 23.333 13.666 59.333 18.999 108h26zM245.998 511.004c15.333 0 28.332 -5.66699 38.999 -17c11.333 -10 17 -23 17 -39
c0 -15.333 -5.5 -28.5 -16.5 -39.5s-24.167 -16.5 -39.5 -16.5s-28.666 5.33301 -39.999 16c-10.667 12 -16 25.333 -16 40c0 15.333 5.5 28.5 16.5 39.5s24.167 16.5 39.5 16.5z" />
    <glyph glyph-name="questiondown" unicode="&#x457;" horiz-adv-x="408" 
d="M387 48l-0.00195312 -204.996c-2.66699 -0.666992 -12 -3.16699 -28 -7.5s-29.667 -7.5 -41 -9.5s-24 -3.66699 -38 -5s-28.333 -2 -43 -2c-64 0 -113 13.667 -147 41s-51 63.333 -51 108c0 29.333 4.83301 53.666 14.5 72.999s21.334 36.666 35.001 51.999
s29.5 29.333 47.5 42l46 35c14.667 11.333 26.834 22.833 36.501 34.5s14.5 25.167 14.5 40.5v53h26v-53c0 -20.667 -6 -41 -18 -61l-39 -61c-14 -20.667 -27 -43.334 -39 -68.001s-18 -53.334 -18 -86.001c0 -17.333 3.5 -33.833 10.5 -49.5s15.5 -29 25.5 -40
s20.833 -19.667 32.5 -26s22.5 -9.83301 32.5 -10.5c13.333 0 27.333 3.66699 42 11s24.834 16.5 30.501 27.5s13.5 30.5 23.5 58.5c7.33301 23.333 13.666 59.333 18.999 108h26zM245.998 511.004c15.333 0 28.332 -5.66699 38.999 -17c11.333 -10 17 -23 17 -39
c0 -15.333 -5.5 -28.5 -16.5 -39.5s-24.167 -16.5 -39.5 -16.5s-28.666 5.33301 -39.999 16c-10.667 12 -16 25.333 -16 40c0 15.333 5.5 28.5 16.5 39.5s24.167 16.5 39.5 16.5z" />
    <glyph glyph-name="Agrave" unicode="&#xc0;" horiz-adv-x="567" 
d="M567 0h-212v20h70l-80 250h-196l-78 -250h81v-20h-152v20h42l206 660h60l217 -660h42v-20zM340 290l-92 295l-94 -295h186z" />
    <glyph glyph-name="Agrave" unicode="&#x410;" horiz-adv-x="567" 
d="M567 0h-212v20h70l-80 250h-196l-78 -250h81v-20h-152v20h42l206 660h60l217 -660h42v-20zM340 290l-92 295l-94 -295h186z" />
    <glyph glyph-name="Aacute" unicode="&#xc1;" horiz-adv-x="547" 
d="M527 194c0 -26 -5.66699 -51.001 -17 -75.001s-27.166 -44.5 -47.499 -61.5s-44 -30.833 -71 -41.5s-55.833 -16 -86.5 -16h-285v20h54v640h-54v20h457v-217h-25c-2.66699 18.667 -5.66699 35.667 -9 51s-7.66602 30.666 -12.999 45.999
c-7.33301 26.667 -16.333 49.334 -27 68.001c-4.66699 8 -11.834 15.333 -21.501 22s-20.167 10 -31.5 10h-184v-273h161c27.333 0 53.166 -5.16699 77.499 -15.5s45.5 -24 63.5 -41s32.333 -37.667 43 -62s16 -49.166 16 -74.499zM430 198.999
c0 22.667 -4.33496 43.667 -13.002 63c-8 20.667 -19.667 38 -35 52c-14 15.333 -31.333 27.333 -52 36c-5.33301 2 -13.666 4.66699 -24.999 8s-23.666 5 -36.999 5h-102v-343h119c20.667 0 39.667 4.66699 57 14s32.333 21.833 45 37.5s23 34.667 31 57s12 45.833 12 70.5
z" />
    <glyph glyph-name="Aacute" unicode="&#x411;" horiz-adv-x="547" 
d="M527 194c0 -26 -5.66699 -51.001 -17 -75.001s-27.166 -44.5 -47.499 -61.5s-44 -30.833 -71 -41.5s-55.833 -16 -86.5 -16h-285v20h54v640h-54v20h457v-217h-25c-2.66699 18.667 -5.66699 35.667 -9 51s-7.66602 30.666 -12.999 45.999
c-7.33301 26.667 -16.333 49.334 -27 68.001c-4.66699 8 -11.834 15.333 -21.501 22s-20.167 10 -31.5 10h-184v-273h161c27.333 0 53.166 -5.16699 77.499 -15.5s45.5 -24 63.5 -41s32.333 -37.667 43 -62s16 -49.166 16 -74.499zM430 198.999
c0 22.667 -4.33496 43.667 -13.002 63c-8 20.667 -19.667 38 -35 52c-14 15.333 -31.333 27.333 -52 36c-5.33301 2 -13.666 4.66699 -24.999 8s-23.666 5 -36.999 5h-102v-343h119c20.667 0 39.667 4.66699 57 14s32.333 21.833 45 37.5s23 34.667 31 57s12 45.833 12 70.5
z" />
    <glyph glyph-name="Acircumflex" unicode="&#xc2;" horiz-adv-x="551" 
d="M531 185c0 -26 -5.16699 -50.166 -15.5 -72.499s-25 -41.833 -44 -58.5s-41.833 -29.834 -68.5 -39.501s-55 -14.5 -85 -14.5h-298v20h54v640h-54v20h279c57.333 0 104 -15.667 140 -47s54 -72 54 -122c0 -34 -13 -64.167 -39 -90.5s-60 -45.5 -102 -57.5v-5
c53.333 -4.66699 96.5 -22.5 129.5 -53.5s49.5 -70.833 49.5 -119.5zM396 511.001c0 18 -2.99707 36.001 -8.99707 54.001s-14.833 33.833 -26.5 47.5s-26.834 25 -45.501 34s-38.667 13.5 -60 13.5h-89v-288h95c21.333 0 39.666 3.83301 54.999 11.5
s29.166 17.667 41.499 30s21.833 27.166 28.5 44.499c2.66699 8 5 16.5 7 25.5s3 18.167 3 27.5zM435.003 187.002c0 20 -3.83203 40 -11.499 60s-17.834 36.833 -30.501 50.5s-28.667 25.5 -48 35.5s-40 15 -62 15h-117v-328h132c20 0 38 4.16699 54 12.5
s30.333 20.166 43 35.499s22.5 33.333 29.5 54s10.5 42.334 10.5 65.001z" />
    <glyph glyph-name="Acircumflex" unicode="&#x412;" horiz-adv-x="551" 
d="M531 185c0 -26 -5.16699 -50.166 -15.5 -72.499s-25 -41.833 -44 -58.5s-41.833 -29.834 -68.5 -39.501s-55 -14.5 -85 -14.5h-298v20h54v640h-54v20h279c57.333 0 104 -15.667 140 -47s54 -72 54 -122c0 -34 -13 -64.167 -39 -90.5s-60 -45.5 -102 -57.5v-5
c53.333 -4.66699 96.5 -22.5 129.5 -53.5s49.5 -70.833 49.5 -119.5zM396 511.001c0 18 -2.99707 36.001 -8.99707 54.001s-14.833 33.833 -26.5 47.5s-26.834 25 -45.501 34s-38.667 13.5 -60 13.5h-89v-288h95c21.333 0 39.666 3.83301 54.999 11.5
s29.166 17.667 41.499 30s21.833 27.166 28.5 44.499c2.66699 8 5 16.5 7 25.5s3 18.167 3 27.5zM435.003 187.002c0 20 -3.83203 40 -11.499 60s-17.834 36.833 -30.501 50.5s-28.667 25.5 -48 35.5s-40 15 -62 15h-117v-328h132c20 0 38 4.16699 54 12.5
s30.333 20.166 43 35.499s22.5 33.333 29.5 54s10.5 42.334 10.5 65.001z" />
    <glyph glyph-name="Atilde" unicode="&#xc3;" horiz-adv-x="441" 
d="M431 463h-25c-4 24 -10.833 52.5 -20.5 85.5s-19.167 59.5 -28.5 79.5c-3.33301 8 -10 15.333 -20 22s-21 10 -33 10h-139v-640h74v-20h-219v20h53v640h-53v20h411v-217z" />
    <glyph glyph-name="Atilde" unicode="&#x413;" horiz-adv-x="441" 
d="M431 463h-25c-4 24 -10.833 52.5 -20.5 85.5s-19.167 59.5 -28.5 79.5c-3.33301 8 -10 15.333 -20 22s-21 10 -33 10h-139v-640h74v-20h-219v20h53v640h-53v20h411v-217z" />
    <glyph glyph-name="Adieresis" unicode="&#xc4;" horiz-adv-x="586" 
d="M62 20l198.999 660h56l206 -660h51v-190h-24c-4 23.333 -10 47.666 -18 72.999c-4.66699 14 -8.66699 25.333 -12 34s-8 18.667 -14 30c-4 10.667 -11.667 18.834 -23 24.501s-22.666 8.5 -33.999 8.5h-317c-23.333 0 -40.5 -10.333 -51.5 -31s-20.5 -42.667 -28.5 -66
l-16 -73h-25v190h51zM423.999 20l-167 554l-163 -554h330z" />
    <glyph glyph-name="Adieresis" unicode="&#x414;" horiz-adv-x="586" 
d="M62 20l198.999 660h56l206 -660h51v-190h-24c-4 23.333 -10 47.666 -18 72.999c-4.66699 14 -8.66699 25.333 -12 34s-8 18.667 -14 30c-4 10.667 -11.667 18.834 -23 24.501s-22.666 8.5 -33.999 8.5h-317c-23.333 0 -40.5 -10.333 -51.5 -31s-20.5 -42.667 -28.5 -66
l-16 -73h-25v190h51zM423.999 20l-167 554l-163 -554h330z" />
    <glyph glyph-name="Aring" unicode="&#xc5;" horiz-adv-x="505" 
d="M487 0l-466.999 0.00195312v20h54v640h-54v20h455v-217h-26l-5 35c-1.33301 9.33301 -5 25.666 -11 48.999c-6 28 -15 54 -27 78c-4 8 -11.667 15.5 -23 22.5s-23 11.167 -35 12.5h-182v-294h69c24 0 40 8 48 24c6 12 12.333 29 19 51l11 59h24v-288h-24
c-2 18 -5.66699 36.667 -11 56s-11.833 37.166 -19.5 53.499s-23.5 24.5 -47.5 24.5h-69v-326h197c32 0 53 18 63 54c13.333 43.333 24.666 100.333 33.999 171h27v-245z" />
    <glyph glyph-name="Aring" unicode="&#x415;" horiz-adv-x="505" 
d="M487 0l-466.999 0.00195312v20h54v640h-54v20h455v-217h-26l-5 35c-1.33301 9.33301 -5 25.666 -11 48.999c-6 28 -15 54 -27 78c-4 8 -11.667 15.5 -23 22.5s-23 11.167 -35 12.5h-182v-294h69c24 0 40 8 48 24c6 12 12.333 29 19 51l11 59h24v-288h-24
c-2 18 -5.66699 36.667 -11 56s-11.833 37.166 -19.5 53.499s-23.5 24.5 -47.5 24.5h-69v-326h197c32 0 53 18 63 54c13.333 43.333 24.666 100.333 33.999 171h27v-245z" />
    <glyph glyph-name="AE" unicode="&#xc6;" horiz-adv-x="854" 
d="M854 0h-126l-255 346v-326h54v-20h-200v20h54v328l-255 -348h-126v20h35l282 379l-237 261h-48v20h153v-20h-69l265 -293v293h-54v20h200v-20h-54v-293l265 293h-69v20h153v-20h-48l-237 -261l282 -379h35v-20z" />
    <glyph glyph-name="AE" unicode="&#x416;" horiz-adv-x="854" 
d="M854 0h-126l-255 346v-326h54v-20h-200v20h54v328l-255 -348h-126v20h35l282 379l-237 261h-48v20h153v-20h-69l265 -293v293h-54v20h200v-20h-54v-293l265 293h-69v20h153v-20h-48l-237 -261l282 -379h35v-20z" />
    <glyph glyph-name="Ccedilla" unicode="&#xc7;" horiz-adv-x="475" 
d="M455 181c0 -27.333 -6.00684 -52.666 -18.0068 -75.999s-28.5 -43.333 -49.5 -60s-47.5 -30.667 -79.5 -42c-31.333 -9.33301 -64.666 -14 -99.999 -14c-32.667 0 -67.334 5 -104.001 15s-64.667 22.667 -84 38v185h26c3.33301 -20.667 5.83301 -35.167 7.5 -43.5
s5.83398 -23.5 12.501 -45.5c9.33301 -32.667 20.666 -60 33.999 -82c9.33301 -17.333 24.333 -29 45 -35c10.667 -2.66699 20.334 -4.66699 29.001 -6s18.334 -2 29.001 -2c47.333 0 85.333 15 114 45s43 68 43 114c0 52.667 -14.167 95.167 -42.5 127.5
s-64.166 48.5 -107.499 48.5h-39l-3 5l-1 8l1 7l3 6h38c34 0 63.833 13.5 89.5 40.5s38.5 63.833 38.5 110.5c0 46 -9.66699 81.167 -29 105.5s-54 36.5 -104 36.5c-20 0 -37 -3.66699 -51 -11s-26.333 -16.666 -37 -27.999
c-15.333 -20.667 -27.166 -46.334 -35.499 -77.001s-14.5 -60.334 -18.5 -89.001h-26v198c8.66699 4.66699 21 9 37 13l44 10l47 6l44 2c74.667 0 129.834 -14 165.501 -42s53.5 -69.333 53.5 -124c0 -40.667 -12.167 -74.667 -36.5 -102s-58.833 -47.333 -103.5 -60l1 -3
c22.667 -4 43.834 -11.167 63.501 -21.5s37.334 -23.5 53.001 -39.5s28 -34.167 37 -54.5s13.5 -41.5 13.5 -63.5z" />
    <glyph glyph-name="Ccedilla" unicode="&#x417;" horiz-adv-x="475" 
d="M455 181c0 -27.333 -6.00684 -52.666 -18.0068 -75.999s-28.5 -43.333 -49.5 -60s-47.5 -30.667 -79.5 -42c-31.333 -9.33301 -64.666 -14 -99.999 -14c-32.667 0 -67.334 5 -104.001 15s-64.667 22.667 -84 38v185h26c3.33301 -20.667 5.83301 -35.167 7.5 -43.5
s5.83398 -23.5 12.501 -45.5c9.33301 -32.667 20.666 -60 33.999 -82c9.33301 -17.333 24.333 -29 45 -35c10.667 -2.66699 20.334 -4.66699 29.001 -6s18.334 -2 29.001 -2c47.333 0 85.333 15 114 45s43 68 43 114c0 52.667 -14.167 95.167 -42.5 127.5
s-64.166 48.5 -107.499 48.5h-39l-3 5l-1 8l1 7l3 6h38c34 0 63.833 13.5 89.5 40.5s38.5 63.833 38.5 110.5c0 46 -9.66699 81.167 -29 105.5s-54 36.5 -104 36.5c-20 0 -37 -3.66699 -51 -11s-26.333 -16.666 -37 -27.999
c-15.333 -20.667 -27.166 -46.334 -35.499 -77.001s-14.5 -60.334 -18.5 -89.001h-26v198c8.66699 4.66699 21 9 37 13l44 10l47 6l44 2c74.667 0 129.834 -14 165.501 -42s53.5 -69.333 53.5 -124c0 -40.667 -12.167 -74.667 -36.5 -102s-58.833 -47.333 -103.5 -60l1 -3
c22.667 -4 43.834 -11.167 63.501 -21.5s37.334 -23.5 53.001 -39.5s28 -34.167 37 -54.5s13.5 -41.5 13.5 -63.5z" />
    <glyph glyph-name="Egrave" unicode="&#xc8;" horiz-adv-x="584" 
d="M419 20v519l-254 -449v-70h54v-20h-200v20h54v640h-54v20h200v-20h-54v-512l254 448v64h-54v20h200v-20h-54v-640h54v-20h-200v20h54z" />
    <glyph glyph-name="Egrave" unicode="&#x418;" horiz-adv-x="584" 
d="M419 20v519l-254 -449v-70h54v-20h-200v20h54v640h-54v20h200v-20h-54v-512l254 448v64h-54v20h200v-20h-54v-640h54v-20h-200v20h54z" />
    <glyph glyph-name="Eacute" unicode="&#xc9;" horiz-adv-x="584" 
d="M450 792c0 -26 -15.3311 -47.166 -45.998 -63.499s-68 -24.5 -112 -24.5c-43.333 0 -80.833 8 -112.5 24s-47.5 37.333 -47.5 64c0 13.333 5.16699 25.5 15.5 36.5s22.5 16.5 36.5 16.5s26 -5.16699 36 -15.5s15 -22.833 15 -37.5c0 -8 -2.16699 -16.333 -6.5 -25
s-10.166 -14.667 -17.499 -18c4 -6.66699 15 -13 33 -19c8 -2 16.167 -3.66699 24.5 -5s16.166 -2 23.499 -2c8.66699 0 15.667 0.333008 21 1s13.666 2.66699 24.999 6c16 5.33301 27 11.666 33 18.999c-4.66699 3.33301 -10.334 9.33301 -17.001 18c-4 8 -6 16.333 -6 25
c0 13.333 5.16699 25.5 15.5 36.5s22.166 16.5 35.499 16.5c14.667 0 26.834 -5.33301 36.501 -16s14.5 -23 14.5 -37zM419.002 20.001v519l-254 -449v-70h54v-20h-200v20h54v640h-54v20h200v-20h-54v-512l254 448v64h-54v20h200v-20h-54v-640h54v-20h-200v20h54z" />
    <glyph glyph-name="Eacute" unicode="&#x419;" horiz-adv-x="584" 
d="M450 792c0 -26 -15.3311 -47.166 -45.998 -63.499s-68 -24.5 -112 -24.5c-43.333 0 -80.833 8 -112.5 24s-47.5 37.333 -47.5 64c0 13.333 5.16699 25.5 15.5 36.5s22.5 16.5 36.5 16.5s26 -5.16699 36 -15.5s15 -22.833 15 -37.5c0 -8 -2.16699 -16.333 -6.5 -25
s-10.166 -14.667 -17.499 -18c4 -6.66699 15 -13 33 -19c8 -2 16.167 -3.66699 24.5 -5s16.166 -2 23.499 -2c8.66699 0 15.667 0.333008 21 1s13.666 2.66699 24.999 6c16 5.33301 27 11.666 33 18.999c-4.66699 3.33301 -10.334 9.33301 -17.001 18c-4 8 -6 16.333 -6 25
c0 13.333 5.16699 25.5 15.5 36.5s22.166 16.5 35.499 16.5c14.667 0 26.834 -5.33301 36.501 -16s14.5 -23 14.5 -37zM419.002 20.001v519l-254 -449v-70h54v-20h-200v20h54v640h-54v20h200v-20h-54v-512l254 448v64h-54v20h200v-20h-54v-640h54v-20h-200v20h54z" />
    <glyph glyph-name="Ecircumflex" unicode="&#xca;" horiz-adv-x="551" 
d="M551 0h-126l-259 346v-326h54v-20h-200v20h54v640h-54v20h200v-20h-54v-289l269 289h-69v20h153v-20h-47l-244 -259l288 -381h35v-20z" />
    <glyph glyph-name="Ecircumflex" unicode="&#x41a;" horiz-adv-x="551" 
d="M551 0h-126l-259 346v-326h54v-20h-200v20h54v640h-54v20h200v-20h-54v-289l269 289h-69v20h153v-20h-47l-244 -259l288 -381h35v-20z" />
    <glyph glyph-name="Edieresis" unicode="&#xcb;" horiz-adv-x="554" 
d="M413 20l-172 554l-167 -554h77v-20h-151v20h42l203 660h57l210 -660h42v-20h-212v20h71z" />
    <glyph glyph-name="Edieresis" unicode="&#x41b;" horiz-adv-x="554" 
d="M413 20l-172 554l-167 -554h77v-20h-151v20h42l203 660h57l210 -660h42v-20h-212v20h71z" />
    <glyph glyph-name="Igrave" unicode="&#xcc;" horiz-adv-x="703" 
d="M683 0h-223v20h77v605l-201 -625h-35l-204 624v-604h76v-20h-153v20h53v640h-53v20h155l179 -545l172 545h157v-20h-54v-640h54v-20z" />
    <glyph glyph-name="Igrave" unicode="&#x41c;" horiz-adv-x="703" 
d="M683 0h-223v20h77v605l-201 -625h-35l-204 624v-604h76v-20h-153v20h53v640h-53v20h155l179 -545l172 545h157v-20h-54v-640h54v-20z" />
    <glyph glyph-name="Iacute" unicode="&#xcd;" horiz-adv-x="585" 
d="M419 20v328h-253v-328h54v-20h-200v20h54v640h-54v20h200v-20h-54v-288h253v288h-54v20h200v-20h-54v-640h54v-20h-200v20h54z" />
    <glyph glyph-name="Iacute" unicode="&#x41d;" horiz-adv-x="585" 
d="M419 20v328h-253v-328h54v-20h-200v20h54v640h-54v20h200v-20h-54v-288h253v288h-54v20h200v-20h-54v-640h54v-20h-200v20h54z" />
    <glyph glyph-name="Icircumflex" unicode="&#xce;" horiz-adv-x="547" 
d="M527 344c0 -53.333 -6.16699 -101.501 -18.5 -144.501s-29.5 -80 -51.5 -111s-48.833 -55.333 -80.5 -73s-66.5 -26.5 -104.5 -26.5c-38.667 0 -73 8.5 -103 25.5s-56.333 41.167 -79 72.5s-40 68.666 -52 111.999s-18 91.333 -18 144c0 52 6.16699 98.833 18.5 140.5
s29.5 77.834 51.5 108.501s48.833 54.834 80.5 72.501s66.167 26.5 103.5 26.5c38 0 72.167 -8.33301 102.5 -25s56.5 -40.167 78.5 -70.5s39.5 -67.5 52.5 -111.5s19.5 -90.667 19.5 -140zM421 343.999c0 112 -12 193.833 -36 245.5s-61 77.5 -111 77.5
s-87.167 -26.167 -111.5 -78.5s-36.5 -133.833 -36.5 -244.5c0 -119.333 11.833 -204.333 35.5 -255s60.5 -76 110.5 -76c53.333 0 91.5 25.667 114.5 77s34.5 136 34.5 254z" />
    <glyph glyph-name="Icircumflex" unicode="&#x41e;" horiz-adv-x="547" 
d="M527 344c0 -53.333 -6.16699 -101.501 -18.5 -144.501s-29.5 -80 -51.5 -111s-48.833 -55.333 -80.5 -73s-66.5 -26.5 -104.5 -26.5c-38.667 0 -73 8.5 -103 25.5s-56.333 41.167 -79 72.5s-40 68.666 -52 111.999s-18 91.333 -18 144c0 52 6.16699 98.833 18.5 140.5
s29.5 77.834 51.5 108.501s48.833 54.834 80.5 72.501s66.167 26.5 103.5 26.5c38 0 72.167 -8.33301 102.5 -25s56.5 -40.167 78.5 -70.5s39.5 -67.5 52.5 -111.5s19.5 -90.667 19.5 -140zM421 343.999c0 112 -12 193.833 -36 245.5s-61 77.5 -111 77.5
s-87.167 -26.167 -111.5 -78.5s-36.5 -133.833 -36.5 -244.5c0 -119.333 11.833 -204.333 35.5 -255s60.5 -76 110.5 -76c53.333 0 91.5 25.667 114.5 77s34.5 136 34.5 254z" />
    <glyph glyph-name="Idieresis" unicode="&#xcf;" horiz-adv-x="584" 
d="M73 20v640h-53v20h544v-20h-53v-640h54v-20h-200v20h54v640h-254v-640h54v-20h-200v20h54z" />
    <glyph glyph-name="Idieresis" unicode="&#x41f;" horiz-adv-x="584" 
d="M73 20v640h-53v20h544v-20h-53v-640h54v-20h-200v20h54v640h-254v-640h54v-20h-200v20h54z" />
    <glyph glyph-name="Eth" unicode="&#xd0;" horiz-adv-x="516" 
d="M500 500c0 -54 -21.5 -95.001 -64.5 -123.001s-100.833 -42 -173.5 -42h-96v-315h76v-20h-223v20h54v640h-54v20h263c70.667 0 124.667 -16.667 162 -50s56 -76.666 56 -129.999zM400 499.999c0 22 -3.33203 42 -9.99902 60c-6 19.333 -15.167 36.5 -27.5 51.5
s-26.833 26.833 -43.5 35.5c-4.66699 2 -12.334 4.66699 -23.001 8s-22.667 5 -36 5h-94v-305h90c24 0 45 3.83301 63 11.5s33 18.5 45 32.5s21 29.833 27 47.5s9 35.5 9 53.5z" />
    <glyph glyph-name="Eth" unicode="&#x420;" horiz-adv-x="516" 
d="M500 500c0 -54 -21.5 -95.001 -64.5 -123.001s-100.833 -42 -173.5 -42h-96v-315h76v-20h-223v20h54v640h-54v20h263c70.667 0 124.667 -16.667 162 -50s56 -76.666 56 -129.999zM400 499.999c0 22 -3.33203 42 -9.99902 60c-6 19.333 -15.167 36.5 -27.5 51.5
s-26.833 26.833 -43.5 35.5c-4.66699 2 -12.334 4.66699 -23.001 8s-22.667 5 -36 5h-94v-305h90c24 0 45 3.83301 63 11.5s33 18.5 45 32.5s21 29.833 27 47.5s9 35.5 9 53.5z" />
    <glyph glyph-name="Ntilde" unicode="&#xd1;" horiz-adv-x="488" 
d="M468 44c-16.667 -21.333 -40.501 -35.832 -71.501 -43.499s-62.5 -11.5 -94.5 -11.5c-42.667 0 -81.167 7.83301 -115.5 23.5s-64.833 38.834 -91.5 69.501c-23.333 29.333 -42 66 -56 110c-12.667 45.333 -19 94 -19 146c0 48.667 6.33301 93.834 19 135.501
s31.167 78.667 55.5 111s54.5 58.166 90.5 77.499s75.667 29 119 29c24 0 49 -3.33301 75 -10c14 -3.33301 27 -7.33301 39 -12s25 -11.334 39 -20.001v-169h-26c-4 27.333 -9.66699 54.166 -17 80.499s-16.666 49.166 -27.999 68.499
c-6.66699 12 -17.834 21.333 -33.501 28s-31.834 10 -48.501 10c-28 0 -52.667 -8.83301 -74 -26.5s-40 -41.834 -56 -72.501s-28.167 -65.5 -36.5 -104.5s-12.5 -79.833 -12.5 -122.5c0 -50.667 4.16699 -95.667 12.5 -135s20.333 -73.166 36 -101.499
s34.834 -51.166 57.501 -68.499c22.667 -15.333 46.667 -23 72 -23c20.667 0 40 4.5 58 13.5s30.333 22 37 39s14.334 41.5 23.001 73.5l21 98h26v-193z" />
    <glyph glyph-name="Ntilde" unicode="&#x421;" horiz-adv-x="488" 
d="M468 44c-16.667 -21.333 -40.501 -35.832 -71.501 -43.499s-62.5 -11.5 -94.5 -11.5c-42.667 0 -81.167 7.83301 -115.5 23.5s-64.833 38.834 -91.5 69.501c-23.333 29.333 -42 66 -56 110c-12.667 45.333 -19 94 -19 146c0 48.667 6.33301 93.834 19 135.501
s31.167 78.667 55.5 111s54.5 58.166 90.5 77.499s75.667 29 119 29c24 0 49 -3.33301 75 -10c14 -3.33301 27 -7.33301 39 -12s25 -11.334 39 -20.001v-169h-26c-4 27.333 -9.66699 54.166 -17 80.499s-16.666 49.166 -27.999 68.499
c-6.66699 12 -17.834 21.333 -33.501 28s-31.834 10 -48.501 10c-28 0 -52.667 -8.83301 -74 -26.5s-40 -41.834 -56 -72.501s-28.167 -65.5 -36.5 -104.5s-12.5 -79.833 -12.5 -122.5c0 -50.667 4.16699 -95.667 12.5 -135s20.333 -73.166 36 -101.499
s34.834 -51.166 57.501 -68.499c22.667 -15.333 46.667 -23 72 -23c20.667 0 40 4.5 58 13.5s30.333 22 37 39s14.334 41.5 23.001 73.5l21 98h26v-193z" />
    <glyph glyph-name="Ograve" unicode="&#xd2;" horiz-adv-x="463" 
d="M185 20v640.001h-55c-14.667 0 -27 -4.5 -37 -13.5s-18 -20.167 -24 -33.5c-9.33301 -22.667 -16.333 -47.334 -21 -74.001l-11 -77h-25v218h438v-218h-25l-12 78c-4 28.667 -10.667 53 -20 73c-6 12 -14.167 22.833 -24.5 32.5s-22.5 14.5 -36.5 14.5h-55v-640h62v-20
h-216v20h62z" />
    <glyph glyph-name="Ograve" unicode="&#x422;" horiz-adv-x="463" 
d="M185 20v640.001h-55c-14.667 0 -27 -4.5 -37 -13.5s-18 -20.167 -24 -33.5c-9.33301 -22.667 -16.333 -47.334 -21 -74.001l-11 -77h-25v218h438v-218h-25l-12 78c-4 28.667 -10.667 53 -20 73c-6 12 -14.167 22.833 -24.5 32.5s-22.5 14.5 -36.5 14.5h-55v-640h62v-20
h-216v20h62z" />
    <glyph glyph-name="Oacute" unicode="&#xd3;" horiz-adv-x="518" 
d="M518 660h-43l-192 -589c-8 -21.333 -19.833 -40.333 -35.5 -57s-36.5 -25 -62.5 -25c-24 0 -48.833 3 -74.5 9s-45.167 13.333 -58.5 22v236h25l8 -50c1.33301 -9.33301 2.5 -17 3.5 -23s3.5 -16.333 7.5 -31l14 -53l15 -44c4 -10 11.667 -18.667 23 -26
c11.333 -6 24.333 -9 39 -9c12.667 0 25.667 4 39 12s22.333 18.333 27 31l10 32l-211 565h-42v20h213v-20h-71l159 -428l138 428h-83v20h152v-20z" />
    <glyph glyph-name="Oacute" unicode="&#x423;" horiz-adv-x="518" 
d="M518 660h-43l-192 -589c-8 -21.333 -19.833 -40.333 -35.5 -57s-36.5 -25 -62.5 -25c-24 0 -48.833 3 -74.5 9s-45.167 13.333 -58.5 22v236h25l8 -50c1.33301 -9.33301 2.5 -17 3.5 -23s3.5 -16.333 7.5 -31l14 -53l15 -44c4 -10 11.667 -18.667 23 -26
c11.333 -6 24.333 -9 39 -9c12.667 0 25.667 4 39 12s22.333 18.333 27 31l10 32l-211 565h-42v20h213v-20h-71l159 -428l138 428h-83v20h152v-20z" />
    <glyph glyph-name="Ocircumflex" unicode="&#xd4;" horiz-adv-x="698" 
d="M681 344c0 -31.333 -6 -61.6689 -18 -91.002s-29.167 -54.666 -51.5 -75.999s-49.5 -38.166 -81.5 -50.499s-67.333 -18.5 -106 -18.5h-29v-88h54v-20h-200v20h54v88h-29c-37.333 0 -72 6 -104 18s-59.167 28.667 -81.5 50s-39.833 46.333 -52.5 75s-19 59.667 -19 93
c0 34.667 6.33301 65.667 19 93s30.167 51.833 52.5 73.5s48.5 38.5 78.5 50.5s61.667 18 95 18h41v81h-54v20h200v-20h-54v-81h43c32.667 0 63.667 -5.66699 93 -17s55.333 -28 78 -50c22 -20 39.333 -44.667 52 -74c6.66699 -14 11.667 -28.5 15 -43.5s5 -31.833 5 -50.5z
M580 343.997c0 27.333 -4 54 -12 80c-3.33301 11.333 -7.66602 22.833 -12.999 34.5s-11.666 22.5 -18.999 32.5c-13.333 19.333 -30.5 34.833 -51.5 46.5s-43.833 17.5 -68.5 17.5h-21v-422h23c25.333 0 48.166 5.66699 68.499 17s37.166 26.333 50.499 45
s23.833 41.167 31.5 67.5s11.5 53.5 11.5 81.5zM303 132.997l0.000976562 421.998h-21c-26.667 0 -50.167 -5.66699 -70.5 -17s-37.166 -27 -50.499 -47c-13.333 -18 -23.833 -40.167 -31.5 -66.5s-11.5 -53.166 -11.5 -80.499c0 -29.333 3.5 -56.5 10.5 -81.5
s17.167 -47.167 30.5 -66.5s30.166 -34.666 50.499 -45.999s43.166 -17 68.499 -17h25z" />
    <glyph glyph-name="Ocircumflex" unicode="&#x424;" horiz-adv-x="698" 
d="M681 344c0 -31.333 -6 -61.6689 -18 -91.002s-29.167 -54.666 -51.5 -75.999s-49.5 -38.166 -81.5 -50.499s-67.333 -18.5 -106 -18.5h-29v-88h54v-20h-200v20h54v88h-29c-37.333 0 -72 6 -104 18s-59.167 28.667 -81.5 50s-39.833 46.333 -52.5 75s-19 59.667 -19 93
c0 34.667 6.33301 65.667 19 93s30.167 51.833 52.5 73.5s48.5 38.5 78.5 50.5s61.667 18 95 18h41v81h-54v20h200v-20h-54v-81h43c32.667 0 63.667 -5.66699 93 -17s55.333 -28 78 -50c22 -20 39.333 -44.667 52 -74c6.66699 -14 11.667 -28.5 15 -43.5s5 -31.833 5 -50.5z
M580 343.997c0 27.333 -4 54 -12 80c-3.33301 11.333 -7.66602 22.833 -12.999 34.5s-11.666 22.5 -18.999 32.5c-13.333 19.333 -30.5 34.833 -51.5 46.5s-43.833 17.5 -68.5 17.5h-21v-422h23c25.333 0 48.166 5.66699 68.499 17s37.166 26.333 50.499 45
s23.833 41.167 31.5 67.5s11.5 53.5 11.5 81.5zM303 132.997l0.000976562 421.998h-21c-26.667 0 -50.167 -5.66699 -70.5 -17s-37.166 -27 -50.499 -47c-13.333 -18 -23.833 -40.167 -31.5 -66.5s-11.5 -53.166 -11.5 -80.499c0 -29.333 3.5 -56.5 10.5 -81.5
s17.167 -47.167 30.5 -66.5s30.166 -34.666 50.499 -45.999s43.166 -17 68.499 -17h25z" />
    <glyph glyph-name="Otilde" unicode="&#xd5;" horiz-adv-x="538" 
d="M538 0h-223v20h59l-135 286l-153 -286h73v-20h-159v20h54l171 314l-152 326h-49v20h220v-20h-67l108 -231l124 231h-70v20h154v-20h-52l-140 -263l177 -377h60v-20z" />
    <glyph glyph-name="Otilde" unicode="&#x425;" horiz-adv-x="538" 
d="M538 0h-223v20h59l-135 286l-153 -286h73v-20h-159v20h54l171 314l-152 326h-49v20h220v-20h-67l108 -231l124 231h-70v20h154v-20h-52l-140 -263l177 -377h60v-20z" />
    <glyph glyph-name="Odieresis" unicode="&#xd6;" horiz-adv-x="603" 
d="M420 20l-0.00292969 640.001h-54v20h200v-20h-54v-640h79v-190h-25c-2 12 -4.33301 24.167 -7 36.5s-6 24.5 -10 36.5c-7.33301 24 -15.666 45.333 -24.999 64c-3.33301 7.33301 -10.666 15 -21.999 23c-9.33301 5.33301 -19.666 8.66602 -30.999 9.99902h-451v20h54v640
h-54v20h200v-20h-54v-640h254z" />
    <glyph glyph-name="Odieresis" unicode="&#x426;" horiz-adv-x="603" 
d="M420 20l-0.00292969 640.001h-54v20h200v-20h-54v-640h79v-190h-25c-2 12 -4.33301 24.167 -7 36.5s-6 24.5 -10 36.5c-7.33301 24 -15.666 45.333 -24.999 64c-3.33301 7.33301 -10.666 15 -21.999 23c-9.33301 5.33301 -19.666 8.66602 -30.999 9.99902h-451v20h54v640
h-54v20h200v-20h-54v-640h254z" />
    <glyph glyph-name="multiply" unicode="&#xd7;" horiz-adv-x="561" 
d="M541 0h-198v20h52v293h-150c-55.333 0 -99.333 15.5 -132 46.5s-49 68.167 -49 111.5v189h-54v20h198v-20h-52v-194c0 -35.333 11 -66.5 33 -93.5s52 -40.5 90 -40.5h116v328h-52v20h198v-20h-53v-640h53v-20z" />
    <glyph glyph-name="multiply" unicode="&#x427;" horiz-adv-x="561" 
d="M541 0h-198v20h52v293h-150c-55.333 0 -99.333 15.5 -132 46.5s-49 68.167 -49 111.5v189h-54v20h198v-20h-52v-194c0 -35.333 11 -66.5 33 -93.5s52 -40.5 90 -40.5h116v328h-52v20h198v-20h-53v-640h53v-20z" />
    <glyph glyph-name="Oslash" unicode="&#xd8;" horiz-adv-x="885" 
d="M864 0h-844v20h54v640h-54v20h198v-20h-52v-640h230v640h-53v20h199v-20h-54v-640h230v640h-52v20h198v-20h-54v-640h54v-20z" />
    <glyph glyph-name="Oslash" unicode="&#x428;" horiz-adv-x="885" 
d="M864 0h-844v20h54v640h-54v20h198v-20h-52v-640h230v640h-53v20h199v-20h-54v-640h230v640h-52v20h198v-20h-54v-640h54v-20z" />
    <glyph glyph-name="Ugrave" unicode="&#xd9;" horiz-adv-x="885" 
d="M719 20l-0.00292969 640h-54v20h200v-20h-54v-640h79v-190h-25c-4 23.333 -9.66699 46.833 -17 70.5s-15.666 45.834 -24.999 66.501c-3.33301 7.33301 -10.666 15 -21.999 23c-9.33301 5.33301 -19.666 8.66602 -30.999 9.99902h-749v20h54v640h-54v20h200v-20h-54v-640
h230v640h-54v20h200v-20h-54v-640h230z" />
    <glyph glyph-name="Ugrave" unicode="&#x429;" horiz-adv-x="885" 
d="M719 20l-0.00292969 640h-54v20h200v-20h-54v-640h79v-190h-25c-4 23.333 -9.66699 46.833 -17 70.5s-15.666 45.834 -24.999 66.501c-3.33301 7.33301 -10.666 15 -21.999 23c-9.33301 5.33301 -19.666 8.66602 -30.999 9.99902h-749v20h54v640h-54v20h200v-20h-54v-640
h230v640h-54v20h200v-20h-54v-640h230z" />
    <glyph glyph-name="Uacute" unicode="&#xda;" horiz-adv-x="633" 
d="M617 194c0 -26.667 -6.16699 -51.9971 -18.5 -75.9971s-28.833 -44.333 -49.5 -61s-45.334 -30.334 -74.001 -41.001s-59 -16 -91 -16h-253v20h53v640h-55c-14.667 0 -26.667 -4.66699 -36 -14c-3.33301 -3.33301 -7.16602 -8 -11.499 -14s-8.16602 -12.333 -11.499 -19
c-9.33301 -22.667 -16.333 -47.334 -21 -74.001l-11 -77h-25v218h334v-20h-71v-273h115c31.333 0 60.666 -5.16699 87.999 -15.5s51 -24 71 -41s36.167 -37.333 48.5 -61s18.5 -48.834 18.5 -75.501zM519 194.003c0 22 -4.00098 43.3311 -12.001 63.998
s-18.667 38.834 -32 54.501s-29.5 28 -48.5 37s-38.5 13.5 -58.5 13.5h-92v-343h100c20 0 38.667 4.5 56 13.5s32.333 21.333 45 37s22.834 34.334 30.501 56.001s11.5 44.167 11.5 67.5z" />
    <glyph glyph-name="Uacute" unicode="&#x42a;" horiz-adv-x="633" 
d="M617 194c0 -26.667 -6.16699 -51.9971 -18.5 -75.9971s-28.833 -44.333 -49.5 -61s-45.334 -30.334 -74.001 -41.001s-59 -16 -91 -16h-253v20h53v640h-55c-14.667 0 -26.667 -4.66699 -36 -14c-3.33301 -3.33301 -7.16602 -8 -11.499 -14s-8.16602 -12.333 -11.499 -19
c-9.33301 -22.667 -16.333 -47.334 -21 -74.001l-11 -77h-25v218h334v-20h-71v-273h115c31.333 0 60.666 -5.16699 87.999 -15.5s51 -24 71 -41s36.167 -37.333 48.5 -61s18.5 -48.834 18.5 -75.501zM519 194.003c0 22 -4.00098 43.3311 -12.001 63.998
s-18.667 38.834 -32 54.501s-29.5 28 -48.5 37s-38.5 13.5 -58.5 13.5h-92v-343h100c20 0 38.667 4.5 56 13.5s32.333 21.333 45 37s22.834 34.334 30.501 56.001s11.5 44.167 11.5 67.5z" />
    <glyph glyph-name="Ucircumflex" unicode="&#xdb;" horiz-adv-x="725" 
d="M560 20v640h-54v20h200v-20h-54v-640h54v-20h-200v20h54zM506 194c0 -26.667 -6.16895 -51.999 -18.502 -75.999s-28.666 -44.333 -48.999 -61s-45 -30.334 -74 -41.001s-59.5 -16 -91.5 -16h-253v20h54v640h-54v20h217v-20h-71v-273h114c30.667 0 59.834 -5 87.501 -15
s51.667 -23.833 72 -41.5s36.5 -38.167 48.5 -61.5s18 -48.333 18 -75zM407.998 194.001c0 22 -4.16699 43.666 -12.5 64.999s-18.833 39.5 -31.5 54.5s-28.5 27 -47.5 36s-38.833 13.5 -59.5 13.5h-91v-343h100c19.333 0 37.666 4.5 54.999 13.5s32.333 21.333 45 37
s22.834 34.334 30.501 56.001s11.5 44.167 11.5 67.5z" />
    <glyph glyph-name="Ucircumflex" unicode="&#x42b;" horiz-adv-x="725" 
d="M560 20v640h-54v20h200v-20h-54v-640h54v-20h-200v20h54zM506 194c0 -26.667 -6.16895 -51.999 -18.502 -75.999s-28.666 -44.333 -48.999 -61s-45 -30.334 -74 -41.001s-59.5 -16 -91.5 -16h-253v20h54v640h-54v20h217v-20h-71v-273h114c30.667 0 59.834 -5 87.501 -15
s51.667 -23.833 72 -41.5s36.5 -38.167 48.5 -61.5s18 -48.333 18 -75zM407.998 194.001c0 22 -4.16699 43.666 -12.5 64.999s-18.833 39.5 -31.5 54.5s-28.5 27 -47.5 36s-38.833 13.5 -59.5 13.5h-91v-343h100c19.333 0 37.666 4.5 54.999 13.5s32.333 21.333 45 37
s22.834 34.334 30.501 56.001s11.5 44.167 11.5 67.5z" />
    <glyph glyph-name="Udieresis" unicode="&#xdc;" horiz-adv-x="522" 
d="M506 194c0 -26.667 -6.16699 -51.999 -18.5 -75.999s-28.833 -44.333 -49.5 -61s-45.334 -30.334 -74.001 -41.001s-59 -16 -91 -16h-253v20h54v640h-54v20h217v-20h-71v-273h114c30.667 0 59.834 -5 87.501 -15s51.667 -23.833 72 -41.5s36.5 -38.167 48.5 -61.5
s18 -48.333 18 -75zM408 194.001c0 22 -4 43.3311 -12 63.998s-18.667 38.834 -32 54.501s-29.5 28 -48.5 37s-38.5 13.5 -58.5 13.5h-91v-343h100c19.333 0 37.666 4.5 54.999 13.5s32.333 21.333 45 37s22.834 34.334 30.501 56.001s11.5 44.167 11.5 67.5z" />
    <glyph glyph-name="Udieresis" unicode="&#x42c;" horiz-adv-x="522" 
d="M506 194c0 -26.667 -6.16699 -51.999 -18.5 -75.999s-28.833 -44.333 -49.5 -61s-45.334 -30.334 -74.001 -41.001s-59 -16 -91 -16h-253v20h54v640h-54v20h217v-20h-71v-273h114c30.667 0 59.834 -5 87.501 -15s51.667 -23.833 72 -41.5s36.5 -38.167 48.5 -61.5
s18 -48.333 18 -75zM408 194.001c0 22 -4 43.3311 -12 63.998s-18.667 38.834 -32 54.501s-29.5 28 -48.5 37s-38.5 13.5 -58.5 13.5h-91v-343h100c19.333 0 37.666 4.5 54.999 13.5s32.333 21.333 45 37s22.834 34.334 30.501 56.001s11.5 44.167 11.5 67.5z" />
    <glyph glyph-name="Yacute" unicode="&#xdd;" horiz-adv-x="488" 
d="M468 339c0 -55.333 -6.66309 -104.004 -19.9961 -146.004c-12 -43.333 -30.333 -80 -55 -110s-54.334 -53.167 -89.001 -69.5s-74 -24.5 -118 -24.5c-34.667 0 -66.334 3.66699 -95.001 11c-30 6.66699 -53.667 21.334 -71 44.001v193h26
c4.66699 -31.333 8 -51.333 10 -60c0 -0.666992 3.5 -14.667 10.5 -42s14.833 -51.666 23.5 -72.999c6 -14 18 -26 36 -36c19.333 -8.66699 39 -13 59 -13c52 0 94.667 30 128 90s50 141.667 50 245h-96c-24 0 -40.333 -7.66699 -49 -23l-8.5 -22
c-3 -8 -5.66699 -16.167 -8 -24.5s-4.5 -17.666 -6.5 -27.999l-6 -32.5h-25v288h25c0 -14 1 -25.667 3 -35c3.33301 -10.667 6.16602 -20.167 8.49902 -28.5s4.83301 -16 7.5 -23s6 -14.833 10 -23.5c10 -16 26.333 -24 49 -24h96c0 36 -5.33301 73.333 -16 112
c-8 35.333 -19.667 66.333 -35 93s-33.833 48.334 -55.5 65.001s-45.834 25 -72.501 25c-7.33301 0 -14.666 -0.5 -21.999 -1.5s-17.333 -4.5 -30 -10.5s-22.667 -14.667 -30 -26c-22 -42 -38 -93 -48 -153h-26v173c23.333 14 49.666 24.667 78.999 32
c12 2.66699 25.167 5 39.5 7s26.833 3 37.5 3c44 0 83.5 -9.16699 118.5 -27.5s64.5 -43.333 88.5 -75s43 -69.5 57 -113.5c6.66699 -21.333 11.667 -42.833 15 -64.5s5 -45.5 5 -71.5z" />
    <glyph glyph-name="Yacute" unicode="&#x42d;" horiz-adv-x="488" 
d="M468 339c0 -55.333 -6.66309 -104.004 -19.9961 -146.004c-12 -43.333 -30.333 -80 -55 -110s-54.334 -53.167 -89.001 -69.5s-74 -24.5 -118 -24.5c-34.667 0 -66.334 3.66699 -95.001 11c-30 6.66699 -53.667 21.334 -71 44.001v193h26
c4.66699 -31.333 8 -51.333 10 -60c0 -0.666992 3.5 -14.667 10.5 -42s14.833 -51.666 23.5 -72.999c6 -14 18 -26 36 -36c19.333 -8.66699 39 -13 59 -13c52 0 94.667 30 128 90s50 141.667 50 245h-96c-24 0 -40.333 -7.66699 -49 -23l-8.5 -22
c-3 -8 -5.66699 -16.167 -8 -24.5s-4.5 -17.666 -6.5 -27.999l-6 -32.5h-25v288h25c0 -14 1 -25.667 3 -35c3.33301 -10.667 6.16602 -20.167 8.49902 -28.5s4.83301 -16 7.5 -23s6 -14.833 10 -23.5c10 -16 26.333 -24 49 -24h96c0 36 -5.33301 73.333 -16 112
c-8 35.333 -19.667 66.333 -35 93s-33.833 48.334 -55.5 65.001s-45.834 25 -72.501 25c-7.33301 0 -14.666 -0.5 -21.999 -1.5s-17.333 -4.5 -30 -10.5s-22.667 -14.667 -30 -26c-22 -42 -38 -93 -48 -153h-26v173c23.333 14 49.666 24.667 78.999 32
c12 2.66699 25.167 5 39.5 7s26.833 3 37.5 3c44 0 83.5 -9.16699 118.5 -27.5s64.5 -43.333 88.5 -75s43 -69.5 57 -113.5c6.66699 -21.333 11.667 -42.833 15 -64.5s5 -45.5 5 -71.5z" />
    <glyph glyph-name="Thorn" unicode="&#xde;" horiz-adv-x="755" 
d="M738 347c0 -52.667 -6.16992 -100.667 -18.5029 -144s-29.666 -80.833 -51.999 -112.5s-49.166 -56.5 -80.499 -74.5s-65.666 -27 -102.999 -27c-38 0 -72.167 8.33301 -102.5 25s-56.666 40.834 -78.999 72.501s-39.666 69.5 -51.999 113.5s-18.5 91 -18.5 141v7h-66
v-328h54v-20h-200v20h54v640h-54v20h200v-20h-54v-288h66c0 42 6.83301 83.167 20.5 123.5s31.5 74.666 53.5 102.999s48.667 50.833 80 67.5s64.666 25 99.999 25c37.333 0 71.166 -8.16699 101.499 -24.5s56.5 -39.5 78.5 -69.5s39.667 -66.667 53 -110
c6 -21.333 10.667 -43.5 14 -66.5s5 -47.5 5 -73.5zM631.997 347c0 111.333 -11.833 192.5 -35.5 243.5s-60.5 76.5 -110.5 76.5c-51.333 0 -88.833 -25.5 -112.5 -76.5s-35.5 -132.167 -35.5 -243.5c0 -119.333 11.667 -204.833 35 -256.5s60.333 -77.5 111 -77.5
c51.333 0 88.833 26.167 112.5 78.5s35.5 137.5 35.5 255.5z" />
    <glyph glyph-name="Thorn" unicode="&#x42e;" horiz-adv-x="755" 
d="M738 347c0 -52.667 -6.16992 -100.667 -18.5029 -144s-29.666 -80.833 -51.999 -112.5s-49.166 -56.5 -80.499 -74.5s-65.666 -27 -102.999 -27c-38 0 -72.167 8.33301 -102.5 25s-56.666 40.834 -78.999 72.501s-39.666 69.5 -51.999 113.5s-18.5 91 -18.5 141v7h-66
v-328h54v-20h-200v20h54v640h-54v20h200v-20h-54v-288h66c0 42 6.83301 83.167 20.5 123.5s31.5 74.666 53.5 102.999s48.667 50.833 80 67.5s64.666 25 99.999 25c37.333 0 71.166 -8.16699 101.499 -24.5s56.5 -39.5 78.5 -69.5s39.667 -66.667 53 -110
c6 -21.333 10.667 -43.5 14 -66.5s5 -47.5 5 -73.5zM631.997 347c0 111.333 -11.833 192.5 -35.5 243.5s-60.5 76.5 -110.5 76.5c-51.333 0 -88.833 -25.5 -112.5 -76.5s-35.5 -132.167 -35.5 -243.5c0 -119.333 11.667 -204.833 35 -256.5s60.333 -77.5 111 -77.5
c51.333 0 88.833 26.167 112.5 78.5s35.5 137.5 35.5 255.5z" />
    <glyph glyph-name="germandbls" unicode="&#xdf;" horiz-adv-x="554" 
d="M388 20l0.000976562 327h-21l-223 -347h-144v20h44l214 327c-30 0 -57.5 4.66699 -82.5 14s-46.833 21.666 -65.5 36.999s-32.834 32.833 -42.501 52.5s-14.5 39.834 -14.5 60.501c0 26 5.5 49.5 16.5 70.5s26.167 38.667 45.5 53s41.833 25.5 67.5 33.5
s53.167 12 82.5 12h269v-20h-54v-640h54v-20h-200v20h54zM388.001 371v289h-101c-39.333 0 -71.333 -14.333 -96 -43s-37 -64 -37 -106c0 -18.667 2.5 -36.167 7.5 -52.5s12.5 -30.833 22.5 -43.5s24.333 -23.667 43 -33c8 -3.33301 17.5 -6 28.5 -8s22.833 -3 35.5 -3h97z
" />
    <glyph glyph-name="germandbls" unicode="&#x42f;" horiz-adv-x="554" 
d="M388 20l0.000976562 327h-21l-223 -347h-144v20h44l214 327c-30 0 -57.5 4.66699 -82.5 14s-46.833 21.666 -65.5 36.999s-32.834 32.833 -42.501 52.5s-14.5 39.834 -14.5 60.501c0 26 5.5 49.5 16.5 70.5s26.167 38.667 45.5 53s41.833 25.5 67.5 33.5
s53.167 12 82.5 12h269v-20h-54v-640h54v-20h-200v20h54zM388.001 371v289h-101c-39.333 0 -71.333 -14.333 -96 -43s-37 -64 -37 -106c0 -18.667 2.5 -36.167 7.5 -52.5s12.5 -30.833 22.5 -43.5s24.333 -23.667 43 -33c8 -3.33301 17.5 -6 28.5 -8s22.833 -3 35.5 -3h97z
" />
    <glyph glyph-name="agrave" unicode="&#xe0;" horiz-adv-x="439" 
d="M423 0l-122.996 0.000976562v81l-24 -40c-6.66699 -9.33301 -16.667 -19 -30 -29c-9.33301 -6 -22.666 -11.333 -39.999 -16s-38 -7 -62 -7c-37.333 0 -67.5 11.833 -90.5 35.5s-34.5 53.5 -34.5 89.5c0 42 11 73.667 33 95c21.333 19.333 47.666 34.666 78.999 45.999
c16 5.33301 31 10 45 14c4.66699 1.33301 21 5.33301 49 12s51 19 69 37v79c0 24.667 -8.83301 45.834 -26.5 63.501s-39.834 26.5 -66.501 26.5c-16.667 0 -30.5 -2.16699 -41.5 -6.5s-20.5 -12.833 -28.5 -25.5c-8 -10.667 -16.667 -29.667 -26 -57
c-3.33301 -10.667 -6.33301 -22.334 -9 -35.001s-5.33398 -28.334 -8.00098 -47.001h-26v149c17.333 17.333 39 29.333 65 36c11.333 2.66699 24.166 5 38.499 7s27.833 3 40.5 3c22.667 0 44 -2.16699 64 -6.5s38.167 -11.666 54.5 -21.999s29.666 -24.833 39.999 -43.5
s15.5 -41.667 15.5 -69v-350h43v-20zM294.004 289.001c-18 -10.667 -37.668 -19.668 -59.001 -27.001c-22.667 -6 -43 -14.333 -61 -25c-19.333 -10 -35.666 -24.667 -48.999 -44c-6.66699 -9.33301 -11.667 -20 -15 -32s-5 -26.667 -5 -44c0 -26.667 6 -51 18 -73
c12.667 -20.667 30.667 -31 54 -31c12 0 24.5 3.33301 37.5 10s25.333 16.334 37 29.001s21.667 28.5 30 47.5s12.5 40.833 12.5 65.5v124z" />
    <glyph glyph-name="agrave" unicode="&#x430;" horiz-adv-x="439" 
d="M423 0l-122.996 0.000976562v81l-24 -40c-6.66699 -9.33301 -16.667 -19 -30 -29c-9.33301 -6 -22.666 -11.333 -39.999 -16s-38 -7 -62 -7c-37.333 0 -67.5 11.833 -90.5 35.5s-34.5 53.5 -34.5 89.5c0 42 11 73.667 33 95c21.333 19.333 47.666 34.666 78.999 45.999
c16 5.33301 31 10 45 14c4.66699 1.33301 21 5.33301 49 12s51 19 69 37v79c0 24.667 -8.83301 45.834 -26.5 63.501s-39.834 26.5 -66.501 26.5c-16.667 0 -30.5 -2.16699 -41.5 -6.5s-20.5 -12.833 -28.5 -25.5c-8 -10.667 -16.667 -29.667 -26 -57
c-3.33301 -10.667 -6.33301 -22.334 -9 -35.001s-5.33398 -28.334 -8.00098 -47.001h-26v149c17.333 17.333 39 29.333 65 36c11.333 2.66699 24.166 5 38.499 7s27.833 3 40.5 3c22.667 0 44 -2.16699 64 -6.5s38.167 -11.666 54.5 -21.999s29.666 -24.833 39.999 -43.5
s15.5 -41.667 15.5 -69v-350h43v-20zM294.004 289.001c-18 -10.667 -37.668 -19.668 -59.001 -27.001c-22.667 -6 -43 -14.333 -61 -25c-19.333 -10 -35.666 -24.667 -48.999 -44c-6.66699 -9.33301 -11.667 -20 -15 -32s-5 -26.667 -5 -44c0 -26.667 6 -51 18 -73
c12.667 -20.667 30.667 -31 54 -31c12 0 24.5 3.33301 37.5 10s25.333 16.334 37 29.001s21.667 28.5 30 47.5s12.5 40.833 12.5 65.5v124z" />
    <glyph glyph-name="aacute" unicode="&#xe1;" horiz-adv-x="424" 
d="M404 237c0 -35.333 -4.49902 -67.8359 -13.499 -97.5029s-21.667 -55.667 -38 -78s-36.666 -40 -60.999 -53s-50.166 -19.5 -77.499 -19.5c-26 0 -50.667 7.5 -74 22.5s-43.333 35.167 -60 60.5s-30.334 55.833 -41.001 91.5s-16 73.5 -16 113.5
c0 60.667 3.16699 116.167 9.5 166.5s16.166 93.833 29.499 130.5s30 65.334 50 86.001s43.333 31 70 31c23.333 0 44.833 -4 64.5 -12s37.167 -12 52.5 -12s28.5 2.5 39.5 7.5s19.5 10.5 25.5 16.5l17 -11c-8 -19.333 -20.333 -37.5 -37 -54.5s-34 -25.5 -52 -25.5h-15h-10
c-4.66699 1.33301 -8 2 -10 2l-25 4l-23 5l-27 2c-18.667 0 -35.5 -6.5 -50.5 -19.5s-28.5 -31.5 -40.5 -55.5c-8.66699 -19.333 -17.334 -46 -26.001 -80c-4 -19.333 -6.83301 -36.166 -8.5 -50.499s-2.5 -30.5 -2.5 -48.5c18 36.667 39.5 64.834 64.5 84.501
s56.833 29.5 95.5 29.5c27.333 0 53 -6.16699 77 -18.5s44 -28.833 60 -49.5s28.833 -45.667 38.5 -75s14.5 -60.333 14.5 -93zM312.001 236.997c0 68.667 -8.66699 121.167 -26 157.5s-41.333 54.5 -72 54.5c-30 0 -54 -18.5 -72 -55.5s-27 -89.167 -27 -156.5
c0 -36.667 2 -68.5 6 -95.5s10.667 -50.5 20 -70.5c18 -38.667 42.333 -58 73 -58c30 0 53.833 19.667 71.5 59s26.5 94.333 26.5 165z" />
    <glyph glyph-name="aacute" unicode="&#x431;" horiz-adv-x="424" 
d="M404 237c0 -35.333 -4.49902 -67.8359 -13.499 -97.5029s-21.667 -55.667 -38 -78s-36.666 -40 -60.999 -53s-50.166 -19.5 -77.499 -19.5c-26 0 -50.667 7.5 -74 22.5s-43.333 35.167 -60 60.5s-30.334 55.833 -41.001 91.5s-16 73.5 -16 113.5
c0 60.667 3.16699 116.167 9.5 166.5s16.166 93.833 29.499 130.5s30 65.334 50 86.001s43.333 31 70 31c23.333 0 44.833 -4 64.5 -12s37.167 -12 52.5 -12s28.5 2.5 39.5 7.5s19.5 10.5 25.5 16.5l17 -11c-8 -19.333 -20.333 -37.5 -37 -54.5s-34 -25.5 -52 -25.5h-15h-10
c-4.66699 1.33301 -8 2 -10 2l-25 4l-23 5l-27 2c-18.667 0 -35.5 -6.5 -50.5 -19.5s-28.5 -31.5 -40.5 -55.5c-8.66699 -19.333 -17.334 -46 -26.001 -80c-4 -19.333 -6.83301 -36.166 -8.5 -50.499s-2.5 -30.5 -2.5 -48.5c18 36.667 39.5 64.834 64.5 84.501
s56.833 29.5 95.5 29.5c27.333 0 53 -6.16699 77 -18.5s44 -28.833 60 -49.5s28.833 -45.667 38.5 -75s14.5 -60.333 14.5 -93zM312.001 236.997c0 68.667 -8.66699 121.167 -26 157.5s-41.333 54.5 -72 54.5c-30 0 -54 -18.5 -72 -55.5s-27 -89.167 -27 -156.5
c0 -36.667 2 -68.5 6 -95.5s10.667 -50.5 20 -70.5c18 -38.667 42.333 -58 73 -58c30 0 53.833 19.667 71.5 59s26.5 94.333 26.5 165z" />
    <glyph glyph-name="acircumflex" unicode="&#xe2;" horiz-adv-x="451" 
d="M434 133c0 -18 -4.16797 -35.333 -12.501 -52s-19.333 -30.5 -33 -41.5s-31.167 -20.833 -52.5 -29.5c-20 -6.66699 -40.333 -10 -61 -10h-255v20h42v460h-42v20h231c22 0 42 -3.16699 60 -9.5s34.333 -14.833 49 -25.5s25.667 -23.334 33 -38.001
c2 -2.66699 4.66699 -8.66699 8 -18s5 -18.333 5 -27c0 -26.667 -8.5 -51.5 -25.5 -74.5s-40.167 -37.167 -69.5 -42.5c14.667 0 30.334 -4.66699 47.001 -14c15.333 -7.33301 28.333 -16.833 39 -28.5s19.5 -25.667 26.5 -42s10.5 -32.166 10.5 -47.499zM228.999 480
h-81.001v-204h82c24.667 0 45.834 10.167 63.501 30.5s26.5 44.5 26.5 72.5s-8.83301 51.833 -26.5 71.5s-39.167 29.5 -64.5 29.5zM341.998 137c0 31.333 -10.332 58.332 -30.999 80.999s-46.334 34 -77.001 34h-86v-232h85c32.667 0 59 10.833 79 32.5
s30 49.834 30 84.501z" />
    <glyph glyph-name="acircumflex" unicode="&#x432;" horiz-adv-x="451" 
d="M434 133c0 -18 -4.16797 -35.333 -12.501 -52s-19.333 -30.5 -33 -41.5s-31.167 -20.833 -52.5 -29.5c-20 -6.66699 -40.333 -10 -61 -10h-255v20h42v460h-42v20h231c22 0 42 -3.16699 60 -9.5s34.333 -14.833 49 -25.5s25.667 -23.334 33 -38.001
c2 -2.66699 4.66699 -8.66699 8 -18s5 -18.333 5 -27c0 -26.667 -8.5 -51.5 -25.5 -74.5s-40.167 -37.167 -69.5 -42.5c14.667 0 30.334 -4.66699 47.001 -14c15.333 -7.33301 28.333 -16.833 39 -28.5s19.5 -25.667 26.5 -42s10.5 -32.166 10.5 -47.499zM228.999 480
h-81.001v-204h82c24.667 0 45.834 10.167 63.501 30.5s26.5 44.5 26.5 72.5s-8.83301 51.833 -26.5 71.5s-39.167 29.5 -64.5 29.5zM341.998 137c0 31.333 -10.332 58.332 -30.999 80.999s-46.334 34 -77.001 34h-86v-232h85c32.667 0 59 10.833 79 32.5
s30 49.834 30 84.501z" />
    <glyph glyph-name="atilde" unicode="&#xe3;" horiz-adv-x="354" 
d="M341 310l-24 0.000976562l-5 34l-7 38c-1.33301 6 -2.33301 11.667 -3 17s-2.33398 11.666 -5.00098 18.999l-10 29c-4 10.667 -9.66699 18.5 -17 23.5s-15.666 8.16699 -24.999 9.5h-96v-460h80v-20h-209v20h43v460h-43v20h321v-190z" />
    <glyph glyph-name="atilde" unicode="&#x433;" horiz-adv-x="354" 
d="M341 310l-24 0.000976562l-5 34l-7 38c-1.33301 6 -2.33301 11.667 -3 17s-2.33398 11.666 -5.00098 18.999l-10 29c-4 10.667 -9.66699 18.5 -17 23.5s-15.666 8.16699 -24.999 9.5h-96v-460h80v-20h-209v20h43v460h-43v20h321v-190z" />
    <glyph glyph-name="adieresis" unicode="&#xe4;" horiz-adv-x="438" 
d="M428 -170h-24c-2 20 -5.5 42.5 -10.5 67.5s-8.16699 40.333 -9.5 46s-4.16602 13.667 -8.49902 24s-10 18 -17 23s-15.5 8.16699 -25.5 9.5h-228c-18.667 0 -32.667 -11 -42 -33c-4.66699 -12 -10.334 -33.333 -17.001 -64l-12 -73h-24v190h35l149 480h49l143 -480h42
v-190zM297 20l-109 386l-118 -386h227z" />
    <glyph glyph-name="adieresis" unicode="&#x434;" horiz-adv-x="438" 
d="M428 -170h-24c-2 20 -5.5 42.5 -10.5 67.5s-8.16699 40.333 -9.5 46s-4.16602 13.667 -8.49902 24s-10 18 -17 23s-15.5 8.16699 -25.5 9.5h-228c-18.667 0 -32.667 -11 -42 -33c-4.66699 -12 -10.334 -33.333 -17.001 -64l-12 -73h-24v190h35l149 480h49l143 -480h42
v-190zM297 20l-109 386l-118 -386h227z" />
    <glyph glyph-name="aring" unicode="&#xe5;" horiz-adv-x="415" 
d="M393 294l-278.004 0.000976562c0 -11.333 -0.666992 -19.333 -2 -24l-1 -10c0 -89.333 11 -152.833 33 -190.5s50 -56.5 84 -56.5c20.667 0 40 4.33301 58 13s32.5 20 43.5 34s20.5 31.333 28.5 52s12 41 12 61v15h22v-13c0 -52 -15.167 -96 -45.5 -132
s-72.166 -54 -125.499 -54c-29.333 0 -56.166 6.33301 -80.499 19s-45.666 31 -63.999 55s-32.5 52 -42.5 84s-15 67.333 -15 106c0 40 4.66699 75 14 105c8.66699 31.333 21.5 58.166 38.5 80.499s37.333 40 61 53s49.167 19.5 76.5 19.5
c54.667 0 98.834 -16.333 132.501 -49s50.5 -88.667 50.5 -168zM304.996 314.001c0 34.667 -2.66699 62.332 -8 82.999c-4 23.333 -10.667 41.333 -20 54c-8 12.667 -18.167 21.834 -30.5 27.501s-24.5 8.5 -36.5 8.5c-25.333 0 -46 -12.833 -62 -38.5s-27 -70.5 -33 -134.5
h190z" />
    <glyph glyph-name="aring" unicode="&#x435;" horiz-adv-x="415" 
d="M393 294l-278.004 0.000976562c0 -11.333 -0.666992 -19.333 -2 -24l-1 -10c0 -89.333 11 -152.833 33 -190.5s50 -56.5 84 -56.5c20.667 0 40 4.33301 58 13s32.5 20 43.5 34s20.5 31.333 28.5 52s12 41 12 61v15h22v-13c0 -52 -15.167 -96 -45.5 -132
s-72.166 -54 -125.499 -54c-29.333 0 -56.166 6.33301 -80.499 19s-45.666 31 -63.999 55s-32.5 52 -42.5 84s-15 67.333 -15 106c0 40 4.66699 75 14 105c8.66699 31.333 21.5 58.166 38.5 80.499s37.333 40 61 53s49.167 19.5 76.5 19.5
c54.667 0 98.834 -16.333 132.501 -49s50.5 -88.667 50.5 -168zM304.996 314.001c0 34.667 -2.66699 62.332 -8 82.999c-4 23.333 -10.667 41.333 -20 54c-8 12.667 -18.167 21.834 -30.5 27.501s-24.5 8.5 -36.5 8.5c-25.333 0 -46 -12.833 -62 -38.5s-27 -70.5 -33 -134.5
h190z" />
    <glyph glyph-name="ae" unicode="&#xe6;" horiz-adv-x="668" 
d="M668 0h-122l-169 249v-229h52v-20h-190v20h52v228l-169 -248h-122v20h35l194 285l-155 175h-33v20h137v-20h-74l187 -215v215h-43v20h172v-20h-43v-215l187 215h-74v20h137v-20h-33l-154 -177l193 -283h35v-20z" />
    <glyph glyph-name="ae" unicode="&#x436;" horiz-adv-x="668" 
d="M668 0h-122l-169 249v-229h52v-20h-190v20h52v228l-169 -248h-122v20h35l194 285l-155 175h-33v20h137v-20h-74l187 -215v215h-43v20h172v-20h-43v-215l187 215h-74v20h137v-20h-33l-154 -177l193 -283h35v-20z" />
    <glyph glyph-name="ccedilla" unicode="&#xe7;" horiz-adv-x="405" 
d="M385 131c0 -19.333 -5.16602 -37.5 -15.499 -54.5s-24.5 -32 -42.5 -45s-38.833 -23.333 -62.5 -31s-47.834 -11.5 -72.501 -11.5s-47.167 4.16699 -67.5 12.5s-38.166 19.833 -53.499 34.5s-28 32.334 -38 53.001c-8.66699 22 -13 43.333 -13 64v34h24v-31
c0 -20 3.33301 -38.5 10 -55.5s16.334 -32 29.001 -45s27.334 -23.333 44.001 -31s34.667 -11.5 54 -11.5c31.333 0 57.833 12.5 79.5 37.5s32.5 54.833 32.5 89.5c0 16 -2.33301 30 -7 42s-13 24.333 -25 37c-20.667 22.667 -46.334 34 -77.001 34h-39v22h38
c24 0 44.833 10.167 62.5 30.5s26.5 44.833 26.5 73.5c0 28 -8.83301 53 -26.5 75s-39.167 33 -64.5 33c-14.667 0 -29.667 -3 -45 -9s-25.833 -13.333 -31.5 -22s-10.834 -18.334 -15.501 -29.001s-9.33398 -22.667 -14.001 -36l-16 -71h-24v161
c18 8.66699 42.667 16 74 22c15.333 2.66699 29 4.66699 41 6s24.333 2 37 2c24.667 0 47.167 -3.16699 67.5 -9.5s38.166 -15.833 53.499 -28.5c16 -10.667 28.333 -24 37 -40s13 -32.667 13 -50c0 -26 -8 -50.833 -24 -74.5s-40 -38.167 -72 -43.5
c32.667 -2.66699 61.334 -17.167 86.001 -43.5s37 -56.5 37 -90.5z" />
    <glyph glyph-name="ccedilla" unicode="&#x437;" horiz-adv-x="405" 
d="M385 131c0 -19.333 -5.16602 -37.5 -15.499 -54.5s-24.5 -32 -42.5 -45s-38.833 -23.333 -62.5 -31s-47.834 -11.5 -72.501 -11.5s-47.167 4.16699 -67.5 12.5s-38.166 19.833 -53.499 34.5s-28 32.334 -38 53.001c-8.66699 22 -13 43.333 -13 64v34h24v-31
c0 -20 3.33301 -38.5 10 -55.5s16.334 -32 29.001 -45s27.334 -23.333 44.001 -31s34.667 -11.5 54 -11.5c31.333 0 57.833 12.5 79.5 37.5s32.5 54.833 32.5 89.5c0 16 -2.33301 30 -7 42s-13 24.333 -25 37c-20.667 22.667 -46.334 34 -77.001 34h-39v22h38
c24 0 44.833 10.167 62.5 30.5s26.5 44.833 26.5 73.5c0 28 -8.83301 53 -26.5 75s-39.167 33 -64.5 33c-14.667 0 -29.667 -3 -45 -9s-25.833 -13.333 -31.5 -22s-10.834 -18.334 -15.501 -29.001s-9.33398 -22.667 -14.001 -36l-16 -71h-24v161
c18 8.66699 42.667 16 74 22c15.333 2.66699 29 4.66699 41 6s24.333 2 37 2c24.667 0 47.167 -3.16699 67.5 -9.5s38.166 -15.833 53.499 -28.5c16 -10.667 28.333 -24 37 -40s13 -32.667 13 -50c0 -26 -8 -50.833 -24 -74.5s-40 -38.167 -72 -43.5
c32.667 -2.66699 61.334 -17.167 86.001 -43.5s37 -56.5 37 -90.5z" />
    <glyph glyph-name="egrave" unicode="&#xe8;" horiz-adv-x="472" 
d="M452 0h-167v20h39v352l-176 -283v-69h40v-20h-168v20h42v460h-42v20h168v-20h-40v-339l176 281v58h-39v20h167v-20h-42v-460h42v-20z" />
    <glyph glyph-name="egrave" unicode="&#x438;" horiz-adv-x="472" 
d="M452 0h-167v20h39v352l-176 -283v-69h40v-20h-168v20h42v460h-42v20h168v-20h-40v-339l176 281v58h-39v20h167v-20h-42v-460h42v-20z" />
    <glyph glyph-name="eacute" unicode="&#xe9;" horiz-adv-x="455" 
d="M377 641c0 -23.333 -14.334 -43.001 -43.001 -59.001c-14 -6.66699 -29.667 -12 -47 -16s-36.333 -6 -57 -6c-41.333 0 -76.333 7.5 -105 22.5s-43 34.5 -43 58.5c0 12.667 5 24.167 15 34.5s21.333 15.5 34 15.5c12 0 22.833 -5.33301 32.5 -16s14.5 -22 14.5 -34
c0 -8.66699 -2.16699 -16.167 -6.5 -22.5s-10.5 -11.166 -18.5 -14.499c4 -7.33301 15 -13.333 33 -18s32.667 -7 44 -7c14 0 28.333 2.16699 43 6.5s26 10.5 34 18.5c-6.66699 2 -13 6.33301 -19 13c-3.33301 6 -5.66602 14 -6.99902 24c0 12 4.5 23.333 13.5 34
s20.167 16 33.5 16c12.667 0 24 -5.16699 34 -15.5s15 -21.833 15 -34.5zM445.999 -0.000976562h-168v20h39v352l-175 -283v-69h39v-20h-168v20h43v460h-43v20h168v-20h-39v-339l175 281v58h-39v20h168v-20h-43v-460h43v-20z" />
    <glyph glyph-name="eacute" unicode="&#x439;" horiz-adv-x="455" 
d="M377 641c0 -23.333 -14.334 -43.001 -43.001 -59.001c-14 -6.66699 -29.667 -12 -47 -16s-36.333 -6 -57 -6c-41.333 0 -76.333 7.5 -105 22.5s-43 34.5 -43 58.5c0 12.667 5 24.167 15 34.5s21.333 15.5 34 15.5c12 0 22.833 -5.33301 32.5 -16s14.5 -22 14.5 -34
c0 -8.66699 -2.16699 -16.167 -6.5 -22.5s-10.5 -11.166 -18.5 -14.499c4 -7.33301 15 -13.333 33 -18s32.667 -7 44 -7c14 0 28.333 2.16699 43 6.5s26 10.5 34 18.5c-6.66699 2 -13 6.33301 -19 13c-3.33301 6 -5.66602 14 -6.99902 24c0 12 4.5 23.333 13.5 34
s20.167 16 33.5 16c12.667 0 24 -5.16699 34 -15.5s15 -21.833 15 -34.5zM445.999 -0.000976562h-168v20h39v352l-175 -283v-69h39v-20h-168v20h43v460h-43v20h168v-20h-39v-339l175 281v58h-39v20h168v-20h-43v-460h43v-20z" />
    <glyph glyph-name="ecircumflex" unicode="&#xea;" horiz-adv-x="440" 
d="M440 0h-122l-169 249v-229h52v-20h-181v20h43v460h-43v20h172v-20h-43v-215l187 215h-74v20h145v-20h-41l-154 -175l195 -285h33v-20z" />
    <glyph glyph-name="ecircumflex" unicode="&#x43a;" horiz-adv-x="440" 
d="M440 0h-122l-169 249v-229h52v-20h-181v20h43v460h-43v20h172v-20h-43v-215l187 215h-74v20h145v-20h-41l-154 -175l195 -285h33v-20z" />
    <glyph glyph-name="edieresis" unicode="&#xeb;" horiz-adv-x="409" 
d="M409 0h-188v20h63l-111 386l-119 -386h70v-20h-124v20h29l151 480h49l144 -480h36v-20z" />
    <glyph glyph-name="edieresis" unicode="&#x43b;" horiz-adv-x="409" 
d="M409 0h-188v20h63l-111 386l-119 -386h70v-20h-124v20h29l151 480h49l144 -480h36v-20z" />
    <glyph glyph-name="igrave" unicode="&#xec;" horiz-adv-x="571" 
d="M551 0h-170v20h42v430l-142 -450h-51l-143 450v-430h40v-20h-106v20h42v460h-42v20h138l127 -413l127 413h138v-20h-42v-460h42v-20z" />
    <glyph glyph-name="igrave" unicode="&#x43c;" horiz-adv-x="571" 
d="M551 0h-170v20h42v430l-142 -450h-51l-143 450v-430h40v-20h-106v20h42v460h-42v20h138l127 -413l127 413h138v-20h-42v-460h42v-20z" />
    <glyph glyph-name="iacute" unicode="&#xed;" horiz-adv-x="472" 
d="M324 20v233h-176v-233h42v-20h-170v20h42v460h-42v20h170v-20h-42v-203h176v203h-42v20h170v-20h-42v-460h42v-20h-170v20h42z" />
    <glyph glyph-name="iacute" unicode="&#x43d;" horiz-adv-x="472" 
d="M324 20v233h-176v-233h42v-20h-170v20h42v460h-42v20h170v-20h-42v-203h176v203h-42v20h170v-20h-42v-460h42v-20h-170v20h42z" />
    <glyph glyph-name="icircumflex" unicode="&#xee;" horiz-adv-x="421" 
d="M401 253c0 -37.333 -4.5 -72 -13.5 -104s-21.667 -59.5 -38 -82.5s-36.833 -42.167 -61.5 -57.5c-23.333 -13.333 -49 -20 -77 -20c-26 0 -50.5 6.33301 -73.5 19s-43 30.5 -60 53.5s-30.833 50.833 -41.5 83.5s-16 68.667 -16 108c0 19.333 1 36.666 3 51.999
s5.66699 31.666 11 48.999c8.66699 31.333 21.5 58.5 38.5 81.5s37.333 41.333 61 55s49.5 20.5 77.5 20.5s53.833 -6.33301 77.5 -19s43.5 -30.167 59.5 -52.5s28.833 -49.666 38.5 -81.999s14.5 -67.166 14.5 -104.499zM309 253c0 82.667 -8.33301 142.335 -25 179.002
s-41 55 -73 55c-30 0 -54 -18.333 -72 -55s-27 -96.334 -27 -179.001c0 -86.667 9 -148.334 27 -185.001s42 -55 72 -55c31.333 0 55.5 19 72.5 57s25.5 99 25.5 183z" />
    <glyph glyph-name="icircumflex" unicode="&#x43e;" horiz-adv-x="421" 
d="M401 253c0 -37.333 -4.5 -72 -13.5 -104s-21.667 -59.5 -38 -82.5s-36.833 -42.167 -61.5 -57.5c-23.333 -13.333 -49 -20 -77 -20c-26 0 -50.5 6.33301 -73.5 19s-43 30.5 -60 53.5s-30.833 50.833 -41.5 83.5s-16 68.667 -16 108c0 19.333 1 36.666 3 51.999
s5.66699 31.666 11 48.999c8.66699 31.333 21.5 58.5 38.5 81.5s37.333 41.333 61 55s49.5 20.5 77.5 20.5s53.833 -6.33301 77.5 -19s43.5 -30.167 59.5 -52.5s28.833 -49.666 38.5 -81.999s14.5 -67.166 14.5 -104.499zM309 253c0 82.667 -8.33301 142.335 -25 179.002
s-41 55 -73 55c-30 0 -54 -18.333 -72 -55s-27 -96.334 -27 -179.001c0 -86.667 9 -148.334 27 -185.001s42 -55 72 -55c31.333 0 55.5 19 72.5 57s25.5 99 25.5 183z" />
    <glyph glyph-name="idieresis" unicode="&#xef;" horiz-adv-x="472" 
d="M452 0h-170v20h42v460h-176v-460h42v-20h-170v20h42v460h-42v20h432v-20h-42v-460h42v-20z" />
    <glyph glyph-name="idieresis" unicode="&#x43f;" horiz-adv-x="472" 
d="M452 0h-170v20h42v460h-176v-460h42v-20h-170v20h42v460h-42v20h432v-20h-42v-460h42v-20z" />
    <glyph glyph-name="eth" unicode="&#xf0;" horiz-adv-x="468" 
d="M448 252c0 -37.333 -5.00098 -72.501 -15.001 -105.501s-23.667 -61 -41 -84s-38 -41 -62 -54s-49.333 -19.5 -76 -19.5c-23.333 0 -44 6.83301 -62 20.5s-32.333 31.167 -43 52.5v-212h60v-20h-188v20h42v630h-42v20h122v-69c12 24.667 27 44.167 45 58.5
s42.333 21.5 73 21.5c27.333 0 52.5 -6.66699 75.5 -20s43.167 -32 60.5 -56c14.667 -21.333 27.334 -48.666 38.001 -81.999c8.66699 -33.333 13 -67 13 -101zM148.999 331.999v-150c0 -48 9.5 -88.167 28.5 -120.5s43.5 -48.5 73.5 -48.5c31.333 0 57 19 77 57
c18.667 39.333 28 100.333 28 183c0 76 -9.66699 134 -29 174s-44 60 -74 60c-27.333 0 -51.5 -12.5 -72.5 -37.5s-31.5 -64.167 -31.5 -117.5z" />
    <glyph glyph-name="eth" unicode="&#x440;" horiz-adv-x="468" 
d="M448 252c0 -37.333 -5.00098 -72.501 -15.001 -105.501s-23.667 -61 -41 -84s-38 -41 -62 -54s-49.333 -19.5 -76 -19.5c-23.333 0 -44 6.83301 -62 20.5s-32.333 31.167 -43 52.5v-212h60v-20h-188v20h42v630h-42v20h122v-69c12 24.667 27 44.167 45 58.5
s42.333 21.5 73 21.5c27.333 0 52.5 -6.66699 75.5 -20s43.167 -32 60.5 -56c14.667 -21.333 27.334 -48.666 38.001 -81.999c8.66699 -33.333 13 -67 13 -101zM148.999 331.999v-150c0 -48 9.5 -88.167 28.5 -120.5s43.5 -48.5 73.5 -48.5c31.333 0 57 19 77 57
c18.667 39.333 28 100.333 28 183c0 76 -9.66699 134 -29 174s-44 60 -74 60c-27.333 0 -51.5 -12.5 -72.5 -37.5s-31.5 -64.167 -31.5 -117.5z" />
    <glyph glyph-name="ntilde" unicode="&#xf1;" horiz-adv-x="386" 
d="M366 160c0 -26 -4.16895 -49 -12.502 -69s-19.5 -37.833 -33.5 -53.5s-30.167 -27.667 -48.5 -36s-37.5 -12.5 -57.5 -12.5c-30 0 -57.667 7.33301 -83 22c-23.333 14.667 -43.666 34.667 -60.999 60c-6.66699 10.667 -13.334 23.334 -20.001 38.001s-12.667 30 -18 46
c-8.66699 34.667 -13 67.334 -13 98.001c0 19.333 1 36.666 3 51.999s5.66699 31.666 11 48.999c9.33301 32 22.5 59.333 39.5 82s38.167 40.834 63.5 54.501s53.666 20.5 84.999 20.5c14 0 24.667 -0.333008 32 -1s21 -3.33398 41 -8.00098s38.667 -12 56 -22v-169h-24
c-3.33301 18.667 -6.16602 33 -8.49902 43s-6.16602 22 -11.499 36c-8.66699 24 -18.334 45.667 -29.001 65c-4.66699 12 -13 20.333 -25 25s-24.667 7 -38 7c-31.333 0 -56.333 -19 -75 -57s-28 -96.333 -28 -175s8.5 -138.667 25.5 -180s43.833 -62 80.5 -62
c16.667 0 32.334 3.5 47.001 10.5s27.834 16.5 39.501 28.5s21 26.333 28 43s10.5 35 10.5 55v35h24v-25z" />
    <glyph glyph-name="ntilde" unicode="&#x441;" horiz-adv-x="386" 
d="M366 160c0 -26 -4.16895 -49 -12.502 -69s-19.5 -37.833 -33.5 -53.5s-30.167 -27.667 -48.5 -36s-37.5 -12.5 -57.5 -12.5c-30 0 -57.667 7.33301 -83 22c-23.333 14.667 -43.666 34.667 -60.999 60c-6.66699 10.667 -13.334 23.334 -20.001 38.001s-12.667 30 -18 46
c-8.66699 34.667 -13 67.334 -13 98.001c0 19.333 1 36.666 3 51.999s5.66699 31.666 11 48.999c9.33301 32 22.5 59.333 39.5 82s38.167 40.834 63.5 54.501s53.666 20.5 84.999 20.5c14 0 24.667 -0.333008 32 -1s21 -3.33398 41 -8.00098s38.667 -12 56 -22v-169h-24
c-3.33301 18.667 -6.16602 33 -8.49902 43s-6.16602 22 -11.499 36c-8.66699 24 -18.334 45.667 -29.001 65c-4.66699 12 -13 20.333 -25 25s-24.667 7 -38 7c-31.333 0 -56.333 -19 -75 -57s-28 -96.333 -28 -175s8.5 -138.667 25.5 -180s43.833 -62 80.5 -62
c16.667 0 32.334 3.5 47.001 10.5s27.834 16.5 39.501 28.5s21 26.333 28 43s10.5 35 10.5 55v35h24v-25z" />
    <glyph glyph-name="ograve" unicode="&#xf2;" horiz-adv-x="395" 
d="M386 313h-24c-1.33301 14 -2.66602 24.5 -3.99902 31.5s-4.33301 20.167 -9 39.5c-6.66699 28.667 -13.334 49.667 -20.001 63c-4 10.667 -9.66699 18.5 -17 23.5s-15.333 8.16699 -24 9.5h-47v-460h76v-20h-238v20h76v460h-48c-7.33301 0 -15 -2.5 -23 -7.5
s-13.833 -12.167 -17.5 -21.5l-10.5 -28c-3.33301 -9.33301 -7 -22.333 -11 -39l-11 -71h-24v187h376v-187z" />
    <glyph glyph-name="ograve" unicode="&#x442;" horiz-adv-x="395" 
d="M386 313h-24c-1.33301 14 -2.66602 24.5 -3.99902 31.5s-4.33301 20.167 -9 39.5c-6.66699 28.667 -13.334 49.667 -20.001 63c-4 10.667 -9.66699 18.5 -17 23.5s-15.333 8.16699 -24 9.5h-47v-460h76v-20h-238v20h76v460h-48c-7.33301 0 -15 -2.5 -23 -7.5
s-13.833 -12.167 -17.5 -21.5l-10.5 -28c-3.33301 -9.33301 -7 -22.333 -11 -39l-11 -71h-24v187h376v-187z" />
    <glyph glyph-name="oacute" unicode="&#xf3;" horiz-adv-x="435" 
d="M435 480l-31.001 -0.00195312l-187 -591c-6 -19.333 -15.667 -35.833 -29 -49.5s-26.333 -20.5 -39 -20.5c-11.333 0 -20 0.333008 -26 1s-17.667 3.33398 -35 8.00098s-30.666 12 -39.999 22v150h25c2 -18.667 3.83301 -32.334 5.5 -41.001s4.5 -20 8.5 -34l7 -25.5
c2.66699 -9.66699 6 -18.5 10 -26.5c2 -5.33301 7 -10.666 15 -15.999c6.66699 -3.33301 15 -5.66602 25 -6.99902c9.33301 0 19.333 5 30 15s18 22 22 36l30 99l-179 480h-39v20h192v-20h-58l125 -359l109 359h-64v20h123v-20z" />
    <glyph glyph-name="oacute" unicode="&#x443;" horiz-adv-x="435" 
d="M435 480l-31.001 -0.00195312l-187 -591c-6 -19.333 -15.667 -35.833 -29 -49.5s-26.333 -20.5 -39 -20.5c-11.333 0 -20 0.333008 -26 1s-17.667 3.33398 -35 8.00098s-30.666 12 -39.999 22v150h25c2 -18.667 3.83301 -32.334 5.5 -41.001s4.5 -20 8.5 -34l7 -25.5
c2.66699 -9.66699 6 -18.5 10 -26.5c2 -5.33301 7 -10.666 15 -15.999c6.66699 -3.33301 15 -5.66602 25 -6.99902c9.33301 0 19.333 5 30 15s18 22 22 36l30 99l-179 480h-39v20h192v-20h-58l125 -359l109 359h-64v20h123v-20z" />
    <glyph glyph-name="ocircumflex" unicode="&#xf4;" horiz-adv-x="713" 
d="M692 252c0 -40 -4.50293 -75.3359 -13.5029 -106.003s-21.833 -58 -38.5 -82s-36.667 -42.5 -60 -55.5s-48.666 -19.5 -75.999 -19.5c-48 0 -83 24 -105 72v-211h54v-20h-194v20h54v211c-10 -24 -24 -42 -42 -54s-38.667 -18 -62 -18c-28 0 -53.667 6.33301 -77 19
c-21.333 12.667 -40.666 30.834 -57.999 54.501s-30.666 51.834 -39.999 84.501s-14 67.667 -14 105c0 35.333 4 68.666 12 99.999s19.667 58.666 35 81.999s34.333 42 57 56s48.667 21 78 21c28.667 0 51.667 -6.16699 69 -18.5s31.333 -31.166 42 -56.499v224h-42v20h128
v-244c10.667 24.667 25 43.334 43 56.001s41 19 69 19c27.333 0 52.5 -6.83301 75.5 -20.5s42.333 -32.167 58 -55.5s27.5 -50.666 35.5 -81.999s12 -65 12 -101zM503.997 486.997c-26 0 -50 -12.5 -72 -37.5s-33 -64.167 -33 -117.5v-153
c0 -49.333 9.66699 -89.333 29 -120s43.666 -46 72.999 -46c31.333 0 56 19 74 57c16.667 39.333 25 100.333 25 183c0 76 -8.66699 134 -26 174s-40.666 60 -69.999 60zM312.997 181.997v150.001c0 54 -10.667 93.333 -32 118s-45.333 37 -72 37
c-28.667 0 -52 -20.333 -70 -61s-27 -98.334 -27 -173.001c0 -84 8.16699 -145 24.5 -183s41.5 -57 75.5 -57c28.667 0 52.667 16.167 72 48.5s29 72.5 29 120.5z" />
    <glyph glyph-name="ocircumflex" unicode="&#x444;" horiz-adv-x="713" 
d="M692 252c0 -40 -4.50293 -75.3359 -13.5029 -106.003s-21.833 -58 -38.5 -82s-36.667 -42.5 -60 -55.5s-48.666 -19.5 -75.999 -19.5c-48 0 -83 24 -105 72v-211h54v-20h-194v20h54v211c-10 -24 -24 -42 -42 -54s-38.667 -18 -62 -18c-28 0 -53.667 6.33301 -77 19
c-21.333 12.667 -40.666 30.834 -57.999 54.501s-30.666 51.834 -39.999 84.501s-14 67.667 -14 105c0 35.333 4 68.666 12 99.999s19.667 58.666 35 81.999s34.333 42 57 56s48.667 21 78 21c28.667 0 51.667 -6.16699 69 -18.5s31.333 -31.166 42 -56.499v224h-42v20h128
v-244c10.667 24.667 25 43.334 43 56.001s41 19 69 19c27.333 0 52.5 -6.83301 75.5 -20.5s42.333 -32.167 58 -55.5s27.5 -50.666 35.5 -81.999s12 -65 12 -101zM503.997 486.997c-26 0 -50 -12.5 -72 -37.5s-33 -64.167 -33 -117.5v-153
c0 -49.333 9.66699 -89.333 29 -120s43.666 -46 72.999 -46c31.333 0 56 19 74 57c16.667 39.333 25 100.333 25 183c0 76 -8.66699 134 -26 174s-40.666 60 -69.999 60zM312.997 181.997v150.001c0 54 -10.667 93.333 -32 118s-45.333 37 -72 37
c-28.667 0 -52 -20.333 -70 -61s-27 -98.334 -27 -173.001c0 -84 8.16699 -145 24.5 -183s41.5 -57 75.5 -57c28.667 0 52.667 16.167 72 48.5s29 72.5 29 120.5z" />
    <glyph glyph-name="otilde" unicode="&#xf5;" horiz-adv-x="435" 
d="M435 0h-198v20h62l-107 202l-128 -202h68v-20h-132v20h37l143 226l-125 234h-38v20h190v-20h-58l91 -167l105 167h-63v20h130v-20h-40l-121 -190l146 -270h38v-20z" />
    <glyph glyph-name="otilde" unicode="&#x445;" horiz-adv-x="435" 
d="M435 0h-198v20h62l-107 202l-128 -202h68v-20h-132v20h37l143 226l-125 234h-38v20h190v-20h-58l91 -167l105 167h-63v20h130v-20h-40l-121 -190l146 -270h38v-20z" />
    <glyph glyph-name="odieresis" unicode="&#xf6;" horiz-adv-x="488" 
d="M62 20v460h-42v20h170v-20h-42v-460h176v460h-42v20h170v-20h-42v-460h64v-190h-24l-5 36l-7 38l-9 36c-2 10 -5 19 -9 27c-8 22 -21.333 33 -40 33h-360v20h42z" />
    <glyph glyph-name="odieresis" unicode="&#x446;" horiz-adv-x="488" 
d="M62 20v460h-42v20h170v-20h-42v-460h176v460h-42v20h170v-20h-42v-460h64v-190h-24l-5 36l-7 38l-9 36c-2 10 -5 19 -9 27c-8 22 -21.333 33 -40 33h-360v20h42z" />
    <glyph glyph-name="divide" unicode="&#xf7;" horiz-adv-x="442" 
d="M294 20l0.000976562 206.003h-86c-22.667 0 -43 3.66699 -61 11s-34.167 17.166 -48.5 29.499s-25.333 26.666 -33 42.999s-11.5 34.166 -11.5 53.499v117h-42v20h170v-20h-42v-125c0 -30 8.66699 -55 26 -75s37.666 -30 60.999 -30h67v230h-42v20h170v-20h-42v-460h42
v-20h-182v20h54z" />
    <glyph glyph-name="divide" unicode="&#x447;" horiz-adv-x="442" 
d="M294 20l0.000976562 206.003h-86c-22.667 0 -43 3.66699 -61 11s-34.167 17.166 -48.5 29.499s-25.333 26.666 -33 42.999s-11.5 34.166 -11.5 53.499v117h-42v20h170v-20h-42v-125c0 -30 8.66699 -55 26 -75s37.666 -30 60.999 -30h67v230h-42v20h170v-20h-42v-460h42
v-20h-182v20h54z" />
    <glyph glyph-name="oslash" unicode="&#xf8;" horiz-adv-x="678" 
d="M658 0h-638v20h42v460h-42v20h170v-20h-42v-460h148v460h-42v20h170v-20h-42v-460h148v460h-42v20h170v-20h-42v-460h42v-20z" />
    <glyph glyph-name="oslash" unicode="&#x448;" horiz-adv-x="678" 
d="M658 0h-638v20h42v460h-42v20h170v-20h-42v-460h148v460h-42v20h170v-20h-42v-460h148v460h-42v20h170v-20h-42v-460h42v-20z" />
    <glyph glyph-name="ugrave" unicode="&#xf9;" horiz-adv-x="694" 
d="M62 20v460h-42v20h170v-20h-42v-460h148v460h-42v20h170v-20h-42v-460h148v460h-42v20h170v-20h-42v-460h64v-190h-25c-2 20 -6 44.667 -12 74c-4 28 -9.33301 49 -16 63c-8 22 -21.667 33 -41 33h-566v20h42z" />
    <glyph glyph-name="ugrave" unicode="&#x449;" horiz-adv-x="694" 
d="M62 20v460h-42v20h170v-20h-42v-460h148v460h-42v20h170v-20h-42v-460h148v460h-42v20h170v-20h-42v-460h64v-190h-25c-2 20 -6 44.667 -12 74c-4 28 -9.33301 49 -16 63c-8 22 -21.667 33 -41 33h-566v20h42z" />
    <glyph glyph-name="uacute" unicode="&#xfa;" horiz-adv-x="509" 
d="M493 146c0 -20.667 -4 -39.501 -12 -56.501s-20.333 -32.833 -37 -47.5c-13.333 -11.333 -30.666 -21.666 -51.999 -30.999c-20 -7.33301 -41 -11 -63 -11h-225v20h42v460h-37c-17.333 0 -31 -10.667 -41 -32c-6 -16 -12 -38 -18 -66l-13 -72h-24v190h273v-20h-54v-184
h100c21.333 0 41.833 -4 61.5 -12s36.667 -18.667 51 -32s26.166 -29.666 35.499 -48.999c5.33301 -12 8.83301 -22.333 10.5 -31s2.5 -17.334 2.5 -26.001zM401 145.999c0 34 -10.334 63.499 -31.001 88.499s-46 37.5 -76 37.5h-62v-252h61
c30.667 0 56.334 12.333 77.001 37s31 54.334 31 89.001z" />
    <glyph glyph-name="uacute" unicode="&#x44a;" horiz-adv-x="509" 
d="M493 146c0 -20.667 -4 -39.501 -12 -56.501s-20.333 -32.833 -37 -47.5c-13.333 -11.333 -30.666 -21.666 -51.999 -30.999c-20 -7.33301 -41 -11 -63 -11h-225v20h42v460h-37c-17.333 0 -31 -10.667 -41 -32c-6 -16 -12 -38 -18 -66l-13 -72h-24v190h273v-20h-54v-184
h100c21.333 0 41.833 -4 61.5 -12s36.667 -18.667 51 -32s26.166 -29.666 35.499 -48.999c5.33301 -12 8.83301 -22.333 10.5 -31s2.5 -17.334 2.5 -26.001zM401 145.999c0 34 -10.334 63.499 -31.001 88.499s-46 37.5 -76 37.5h-62v-252h61
c30.667 0 56.334 12.333 77.001 37s31 54.334 31 89.001z" />
    <glyph glyph-name="ucircumflex" unicode="&#xfb;" horiz-adv-x="602" 
d="M453 20v460h-42v20h170v-20h-42v-460h42v-20h-170v20h42zM411 146c0 -20.667 -4.00195 -39.5 -12.002 -56.5s-20.333 -32.833 -37 -47.5c-13.333 -11.333 -30.666 -21.666 -51.999 -30.999c-20.667 -7.33301 -42 -11 -64 -11h-225v20h42v460h-42v20h182v-20h-54v-184h99
c22 0 42.833 -4 62.5 -12s37.167 -19 52.5 -33c12.667 -12 24.334 -28 35.001 -48c5.33301 -12 8.83301 -22.333 10.5 -31s2.5 -17.334 2.5 -26.001zM318.998 146c0 34 -10.332 63.499 -30.999 88.499s-46.334 37.5 -77.001 37.5h-62v-252h61
c29.333 0 54.833 12.333 76.5 37s32.5 54.334 32.5 89.001z" />
    <glyph glyph-name="ucircumflex" unicode="&#x44b;" horiz-adv-x="602" 
d="M453 20v460h-42v20h170v-20h-42v-460h42v-20h-170v20h42zM411 146c0 -20.667 -4.00195 -39.5 -12.002 -56.5s-20.333 -32.833 -37 -47.5c-13.333 -11.333 -30.666 -21.666 -51.999 -30.999c-20.667 -7.33301 -42 -11 -64 -11h-225v20h42v460h-42v20h182v-20h-54v-184h99
c22 0 42.833 -4 62.5 -12s37.167 -19 52.5 -33c12.667 -12 24.334 -28 35.001 -48c5.33301 -12 8.83301 -22.333 10.5 -31s2.5 -17.334 2.5 -26.001zM318.998 146c0 34 -10.332 63.499 -30.999 88.499s-46.334 37.5 -77.001 37.5h-62v-252h61
c29.333 0 54.833 12.333 76.5 37s32.5 54.334 32.5 89.001z" />
    <glyph glyph-name="udieresis" unicode="&#xfc;" horiz-adv-x="426" 
d="M410 146c0 -20.667 -4.16895 -39.833 -12.502 -57.5s-19.666 -32.667 -33.999 -45s-32.166 -23.166 -53.499 -32.499c-20.667 -7.33301 -42.334 -11 -65.001 -11h-225v20h42v460h-42v20h182v-20h-54v-184h100c21.333 0 41.833 -4 61.5 -12s37.167 -19 52.5 -33
c12.667 -12 24.334 -28 35.001 -48c5.33301 -12 8.83301 -22.333 10.5 -31s2.5 -17.334 2.5 -26.001zM317.998 146.001c0 34 -10.333 63.499 -31 88.499s-46 37.5 -76 37.5h-63v-252h62c29.333 0 55 12.333 77 37c20.667 24.667 31 54.334 31 89.001z" />
    <glyph glyph-name="udieresis" unicode="&#x44c;" horiz-adv-x="426" 
d="M410 146c0 -20.667 -4.16895 -39.833 -12.502 -57.5s-19.666 -32.667 -33.999 -45s-32.166 -23.166 -53.499 -32.499c-20.667 -7.33301 -42.334 -11 -65.001 -11h-225v20h42v460h-42v20h182v-20h-54v-184h100c21.333 0 41.833 -4 61.5 -12s37.167 -19 52.5 -33
c12.667 -12 24.334 -28 35.001 -48c5.33301 -12 8.83301 -22.333 10.5 -31s2.5 -17.334 2.5 -26.001zM317.998 146.001c0 34 -10.333 63.499 -31 88.499s-46 37.5 -76 37.5h-63v-252h62c29.333 0 55 12.333 77 37c20.667 24.667 31 54.334 31 89.001z" />
    <glyph glyph-name="yacute" unicode="&#xfd;" horiz-adv-x="396" 
d="M375 258c0 -37.333 -4.66992 -72.002 -14.0029 -104.002c-8 -31.333 -21 -59.666 -39 -84.999c-15.333 -23.333 -36.166 -42.5 -62.499 -57.5s-55.833 -22.5 -88.5 -22.5c-19.333 0 -38.666 4 -57.999 12s-35.333 18.833 -48 32.5s-23.334 30.667 -32.001 51
s-13 41.5 -13 63.5v24h23v-23c0 -36 12.167 -67.667 36.5 -95s54.166 -41 89.499 -41c36 0 64 21 84 63s30 100.667 30 176h-173v24h173c0 66.667 -10.667 118.5 -32 155.5s-47.666 55.5 -78.999 55.5c-15.333 0 -28.666 -2.5 -39.999 -7.5s-20 -12.167 -26 -21.5
c-11.333 -18.667 -20.666 -39.667 -27.999 -63l-17 -75h-24v160c14 7.33301 34.5 14.333 61.5 21s51.833 10 74.5 10c31.333 0 59.5 -6.16699 84.5 -18.5s46 -29.666 63 -51.999s30.333 -49.5 40 -81.5s14.5 -65.667 14.5 -101z" />
    <glyph glyph-name="yacute" unicode="&#x44d;" horiz-adv-x="396" 
d="M375 258c0 -37.333 -4.66992 -72.002 -14.0029 -104.002c-8 -31.333 -21 -59.666 -39 -84.999c-15.333 -23.333 -36.166 -42.5 -62.499 -57.5s-55.833 -22.5 -88.5 -22.5c-19.333 0 -38.666 4 -57.999 12s-35.333 18.833 -48 32.5s-23.334 30.667 -32.001 51
s-13 41.5 -13 63.5v24h23v-23c0 -36 12.167 -67.667 36.5 -95s54.166 -41 89.499 -41c36 0 64 21 84 63s30 100.667 30 176h-173v24h173c0 66.667 -10.667 118.5 -32 155.5s-47.666 55.5 -78.999 55.5c-15.333 0 -28.666 -2.5 -39.999 -7.5s-20 -12.167 -26 -21.5
c-11.333 -18.667 -20.666 -39.667 -27.999 -63l-17 -75h-24v160c14 7.33301 34.5 14.333 61.5 21s51.833 10 74.5 10c31.333 0 59.5 -6.16699 84.5 -18.5s46 -29.666 63 -51.999s30.333 -49.5 40 -81.5s14.5 -65.667 14.5 -101z" />
    <glyph glyph-name="thorn" unicode="&#xfe;" horiz-adv-x="616" 
d="M596 254c0 -19.333 -1 -37.166 -3 -53.499s-5.66699 -33.166 -11 -50.499c-8.66699 -32 -21.667 -60 -39 -84c-16 -24 -35.833 -42.833 -59.5 -56.5s-49.5 -20.5 -77.5 -20.5c-26 0 -50.5 6.5 -73.5 19.5s-43.167 31.167 -60.5 54.5s-31.166 51 -41.499 83
s-15.5 67.667 -15.5 107h-67v-233h42v-20h-170v20h42v460h-42v20h170v-20h-42v-205h68c0 32.667 5.33301 63.667 16 93s24.167 54.666 40.5 75.999s36.166 37.666 59.499 48.999c22 12 46.667 18 74 18c28 0 53.833 -6.33301 77.5 -19s43.5 -30.167 59.5 -52.5
s28.833 -49.5 38.5 -81.5s14.5 -66.667 14.5 -104zM504 254c0 42 -2 77.333 -6 106s-10.667 52.667 -20 72c-17.333 36.667 -41.333 55 -72 55c-30 0 -54 -18.333 -72 -55s-27 -96 -27 -178c0 -87.333 9 -149.333 27 -186s42 -55 72 -55s53.833 19 71.5 57
s26.5 99.333 26.5 184z" />
    <glyph glyph-name="thorn" unicode="&#x44e;" horiz-adv-x="616" 
d="M596 254c0 -19.333 -1 -37.166 -3 -53.499s-5.66699 -33.166 -11 -50.499c-8.66699 -32 -21.667 -60 -39 -84c-16 -24 -35.833 -42.833 -59.5 -56.5s-49.5 -20.5 -77.5 -20.5c-26 0 -50.5 6.5 -73.5 19.5s-43.167 31.167 -60.5 54.5s-31.166 51 -41.499 83
s-15.5 67.667 -15.5 107h-67v-233h42v-20h-170v20h42v460h-42v20h170v-20h-42v-205h68c0 32.667 5.33301 63.667 16 93s24.167 54.666 40.5 75.999s36.166 37.666 59.499 48.999c22 12 46.667 18 74 18c28 0 53.833 -6.33301 77.5 -19s43.5 -30.167 59.5 -52.5
s28.833 -49.5 38.5 -81.5s14.5 -66.667 14.5 -104zM504 254c0 42 -2 77.333 -6 106s-10.667 52.667 -20 72c-17.333 36.667 -41.333 55 -72 55c-30 0 -54 -18.333 -72 -55s-27 -96 -27 -178c0 -87.333 9 -149.333 27 -186s42 -55 72 -55s53.833 19 71.5 57
s26.5 99.333 26.5 184z" />
    <glyph glyph-name="ydieresis" unicode="&#xff;" horiz-adv-x="444" 
d="M295 20l-0.00195312 202h-24l-139 -222h-122v20h30l135 202c-17.333 0 -34.5 4 -51.5 12s-32.833 18.333 -47.5 31c-11.333 11.333 -21.666 25.333 -30.999 42c-7.33301 16.667 -11 34.667 -11 54c0 18.667 3.83301 36 11.5 52s18.834 31.333 33.501 46
c14 12 30.333 22 49 30c20 7.33301 40.333 11 61 11h234v-20h-42v-460h42v-20h-170v20h42zM294.998 246v234h-60c-32 0 -58.167 -11.167 -78.5 -33.5s-30.5 -51.5 -30.5 -87.5c0 -30 10 -56.333 30 -79s45.667 -34 77 -34h62z" />
    <glyph glyph-name="ydieresis" unicode="&#x44f;" horiz-adv-x="444" 
d="M295 20l-0.00195312 202h-24l-139 -222h-122v20h30l135 202c-17.333 0 -34.5 4 -51.5 12s-32.833 18.333 -47.5 31c-11.333 11.333 -21.666 25.333 -30.999 42c-7.33301 16.667 -11 34.667 -11 54c0 18.667 3.83301 36 11.5 52s18.834 31.333 33.501 46
c14 12 30.333 22 49 30c20 7.33301 40.333 11 61 11h234v-20h-42v-460h42v-20h-170v20h42zM294.998 246v234h-60c-32 0 -58.167 -11.167 -78.5 -33.5s-30.5 -51.5 -30.5 -87.5c0 -30 10 -56.333 30 -79s45.667 -34 77 -34h62z" />
    <glyph glyph-name="florin" unicode="&#x192;" horiz-adv-x="304" 
d="M284 553l-25.001 0.000976562c-2 21.333 -5.66699 38 -11 50c-4 13.333 -10 27.333 -18 42c-4 6.66699 -9.66699 11 -17 13l-20 2c-11.333 0 -20.333 -2.5 -27 -7.5s-10.667 -13.167 -12 -24.5v-128h107v-20h-107v-563c0 -32 -10 -56.667 -30 -74
c-20 -16 -45.667 -24 -77 -24h-26v20h11c12.667 0 21.834 5.33301 27.501 16s8.5 25 8.5 43v582h-42v20h42v73c0 42.667 12 73 36 91s56.667 27 98 27c8.66699 0 15 -0.333008 19 -1s12.5 -3.33398 25.5 -8.00098s25.5 -12 37.5 -22v-107z" />
    <glyph glyph-name="florin" unicode="&#x453;" horiz-adv-x="304" 
d="M284 553l-25.001 0.000976562c-2 21.333 -5.66699 38 -11 50c-4 13.333 -10 27.333 -18 42c-4 6.66699 -9.66699 11 -17 13l-20 2c-11.333 0 -20.333 -2.5 -27 -7.5s-10.667 -13.167 -12 -24.5v-128h107v-20h-107v-563c0 -32 -10 -56.667 -30 -74
c-20 -16 -45.667 -24 -77 -24h-26v20h11c12.667 0 21.834 5.33301 27.501 16s8.5 25 8.5 43v582h-42v20h42v73c0 42.667 12 73 36 91s56.667 27 98 27c8.66699 0 15 -0.333008 19 -1s12.5 -3.33398 25.5 -8.00098s25.5 -12 37.5 -22v-107z" />
    <glyph glyph-name="endash" unicode="&#x2013;" horiz-adv-x="555" 
d="M535 242h-515v42h515v-42z" />
    <glyph glyph-name="emdash" unicode="&#x2014;" horiz-adv-x="708" 
d="M688 240h-668v43h668v-43z" />
    <glyph glyph-name="quoteleft" unicode="&#x2018;" horiz-adv-x="149" 
d="M109 691l14.998 -19.999c-12.667 -8 -25 -19.667 -37 -35c-11.333 -12.667 -18 -24.667 -20 -36l8 1c14.667 0 27.334 -5.33301 38.001 -16s16 -23.334 16 -38.001c0 -16 -5.16699 -29.667 -15.5 -41s-23.166 -17 -38.499 -17c-16 0 -29.667 5.66699 -41 17
s-17 25.333 -17 42c0 30.667 8.5 57.5 25.5 80.5s39.167 43.833 66.5 62.5z" />
    <glyph glyph-name="quoteright" unicode="&#x2019;" horiz-adv-x="152" 
d="M74 579c-13.333 0 -25.999 5.00098 -37.999 15.001c-10.667 10.667 -16 23.667 -16 39c0 16 5.16699 29.667 15.5 41s23.166 17 38.499 17c16 0 29.667 -5.66699 41 -17s17 -25.333 17 -42c0 -29.333 -8.83301 -56.333 -26.5 -81s-39.5 -45.334 -65.5 -62.001l-15 20
c12.667 8 25 19.667 37 35c11.333 12.667 18 24.667 20 36z" />
    <glyph glyph-name="quotesinglbase" unicode="&#x201a;" horiz-adv-x="152" 
d="M74 -11c-13.333 0 -25.999 5 -37.999 15c-10.667 10.667 -16 23.667 -16 39c0 16 5.16699 29.667 15.5 41s23.166 17 38.499 17c16 0 29.667 -5.66699 41 -17s17 -25.333 17 -42c0 -30 -8.66699 -56.833 -26 -80.5s-39.333 -44.5 -66 -62.5l-15 20
c12.667 8 25 19.667 37 35c11.333 12.667 18 24.667 20 36z" />
    <glyph glyph-name="quotedblleft" unicode="&#x201c;" horiz-adv-x="296" 
d="M256 691l14.999 -19.999c-12.667 -8 -25 -19.667 -37 -35c-11.333 -12.667 -18 -24.667 -20 -36l8 1c14 0 26.5 -5.33301 37.5 -16s16.5 -23.334 16.5 -38.001c0 -16 -5.16699 -29.667 -15.5 -41s-23.166 -17 -38.499 -17c-16 0 -29.667 5.66699 -41 17
s-17 25.333 -17 42c0 30.667 8.5 57.5 25.5 80.5s39.167 43.833 66.5 62.5zM111.999 691.001l14.999 -19.999c-12.667 -8 -25 -19.667 -37 -35c-11.333 -12.667 -18 -24.667 -20 -36l8 1c14 0 26.5 -5.33301 37.5 -16s16.5 -23.334 16.5 -38.001
c0 -16 -5.16699 -29.667 -15.5 -41s-23.166 -17 -38.499 -17c-16 0 -29.667 5.66699 -41 17s-17 25.333 -17 42c0 30.667 8.5 57.5 25.5 80.5s39.167 43.833 66.5 62.5z" />
    <glyph glyph-name="quotedblright" unicode="&#x201d;" horiz-adv-x="300" 
d="M74 579c-13.333 0 -25.999 5.00098 -37.999 15.001c-10.667 10.667 -16 23.667 -16 39c0 16 5.16699 29.667 15.5 41s23.166 17 38.499 17c16 0 29.667 -5.66699 41 -17s17 -25.333 17 -42c0 -29.333 -8.83301 -56.333 -26.5 -81s-39.5 -45.334 -65.5 -62.001l-15 20
c12.667 8 25 19.667 37 35c11.333 12.667 18 24.667 20 36zM222.001 579.001c-13.333 0 -25.999 5.00098 -37.999 15.001c-10.667 10.667 -16 23.667 -16 39c0 16 5.16699 29.667 15.5 41s23.166 17 38.499 17c16 0 29.667 -5.66699 41 -17s17 -25.333 17 -42
c0 -29.333 -8.83301 -56.333 -26.5 -81s-39.5 -45.334 -65.5 -62.001l-15 20c12.667 8 25 19.667 37 35c11.333 12.667 18 24.667 20 36z" />
    <glyph glyph-name="quotedblbase" unicode="&#x201e;" horiz-adv-x="300" 
d="M74 -11c-13.333 0 -25.999 5 -37.999 15c-10.667 10.667 -16 23.667 -16 39c0 16 5.16699 29.667 15.5 41s23.166 17 38.499 17c16 0 29.667 -5.66699 41 -17s17 -25.333 17 -42c0 -30 -8.66699 -56.833 -26 -80.5s-39.333 -44.5 -66 -62.5l-15 20
c12.667 8 25 19.667 37 35c11.333 12.667 18 24.667 20 36zM222.001 -11c-13.333 0 -25.999 5 -37.999 15c-10.667 10.667 -16 23.667 -16 39c0 16 5.16699 29.667 15.5 41s23.166 17 38.499 17c16 0 29.667 -5.66699 41 -17s17 -25.333 17 -42
c0 -30 -8.66699 -56.833 -26 -80.5s-39.333 -44.5 -66 -62.5l-15 20c12.667 8 25 19.667 37 35c11.333 12.667 18 24.667 20 36z" />
    <glyph glyph-name="dagger" unicode="&#x2020;" horiz-adv-x="316" 
d="M296 458h-112v-628h-50v628h-114v42h114v180h50v-180h112v-42z" />
    <glyph glyph-name="daggerdbl" unicode="&#x2021;" horiz-adv-x="316" 
d="M296 189h-112v-359h-50v359h-114v42h114v227h-114v42h114v180h50v-180h112v-42h-112v-227h112v-42z" />
    <glyph glyph-name="bullet" unicode="&#x2022;" horiz-adv-x="245" 
d="M122 332c22.667 0 41.667 -7.66699 57 -23s23 -34 23 -56s-7.66699 -40.667 -23 -56s-34.333 -23 -57 -23c-22 0 -40.667 7.66699 -56 23s-23 34 -23 56s7.66699 40.667 23 56s34 23 56 23z" />
    <glyph glyph-name="ellipsis" unicode="&#x2026;" horiz-adv-x="499" 
d="M250 -11c-15.333 0 -28.667 5.33301 -40 16c-10.667 12 -16 25.333 -16 40c0 15.333 5.5 28.5 16.5 39.5s24.167 16.5 39.5 16.5s28.333 -5.66699 39 -17c11.333 -10 17 -23 17 -39c0 -15.333 -5.5 -28.5 -16.5 -39.5s-24.167 -16.5 -39.5 -16.5zM94.999 -11
c-15.333 0 -28.667 5.33301 -40 16c-10.667 12 -16 25.333 -16 40c0 15.333 5.5 28.5 16.5 39.5s24.167 16.5 39.5 16.5s28.333 -5.66699 39 -17c11.333 -10 17 -23 17 -39c0 -15.333 -5.5 -28.5 -16.5 -39.5s-24.167 -16.5 -39.5 -16.5zM404.998 -11
c-15.333 0 -28.667 5.33301 -40 16c-10.667 12 -16 25.333 -16 40c0 15.333 5.5 28.5 16.5 39.5s24.167 16.5 39.5 16.5s28.333 -5.66699 39 -17c11.333 -10 17 -23 17 -39c0 -15.333 -5.5 -28.5 -16.5 -39.5s-24.167 -16.5 -39.5 -16.5z" />
    <glyph glyph-name="perthousand" unicode="&#x2030;" horiz-adv-x="1000" 
d="M527 -11c-23.333 0 -43.666 5.66699 -60.999 17c-16 12 -29.5 27.5 -40.5 46.5s-20.167 42.833 -27.5 71.5c-2.66699 13.333 -4.66699 26.5 -6 39.5s-2 28.167 -2 45.5c0 32.667 2.83301 61.667 8.5 87s14 47.5 25 66.5s25.167 34.667 42.5 47s37.666 18.5 60.999 18.5
c22.667 0 42.667 -5.83301 60 -17.5s31.5 -27.334 42.5 -47.001s19.5 -43.167 25.5 -70.5c2.66699 -13.333 4.66699 -26.5 6 -39.5s2 -27.833 2 -44.5c0 -29.333 -2.83301 -57.5 -8.5 -84.5s-14.167 -50.667 -25.5 -71s-25.5 -36.166 -42.5 -47.499s-36.833 -17 -59.5 -17z
M527 9c12 0 23.165 5.50293 33.498 16.5029s18.5 25.5 24.5 43.5s11 39.333 15 64c2 16.667 3.33301 29 4 37s1 21 1 39c0 13.333 -0.333008 26.666 -1 39.999s-2 26 -4 38c0 11.333 -1.16699 22.166 -3.5 32.499s-5.83301 20.5 -10.5 30.5c-6 18.667 -14.333 32.667 -25 42
c-9.33301 10.667 -20.666 16 -33.999 16c-12.667 0 -24 -5 -34 -15s-18.667 -24.333 -26 -43c-2.66699 -8.66699 -5.33398 -19.334 -8.00098 -32.001s-5 -26.667 -7 -42s-3.16699 -28.666 -3.5 -39.999s-0.5 -20.333 -0.5 -27c0 -12.667 0.333008 -25.334 1 -38.001
s2.33398 -28.667 5.00098 -48s7 -37.5 13 -54.5s14.333 -31.167 25 -42.5s22.334 -17 35.001 -17zM519.998 680.003l-325 -680h-34l326 680h33zM156.998 252.003c-23.333 0 -43.666 5.66699 -60.999 17c-16 12 -29.5 27.5 -40.5 46.5s-20.167 42.833 -27.5 71.5
c-2.66699 13.333 -4.66699 26.5 -6 39.5s-2 28.167 -2 45.5c0 32.667 2.83301 61.667 8.5 87s14 47.5 25 66.5s25.167 34.667 42.5 47s37.666 18.5 60.999 18.5c22.667 0 42.667 -5.83301 60 -17.5s31.5 -27.334 42.5 -47.001s19.5 -43.167 25.5 -70.5
c2.66699 -13.333 4.66699 -26.5 6 -39.5s2 -27.833 2 -44.5c0 -29.333 -2.83301 -57.5 -8.5 -84.5s-14.167 -50.667 -25.5 -71s-25.5 -36.166 -42.5 -47.499s-36.833 -17 -59.5 -17zM156.998 272.003c12 0 23.165 5.50293 33.498 16.5029s18.5 25.5 24.5 43.5
s11 39.333 15 64c2 16.667 3.33301 29 4 37s1 21 1 39c0 13.333 -0.333008 26.666 -1 39.999s-2 26 -4 38c0 11.333 -1.16699 22.166 -3.5 32.499s-5.83301 20.5 -10.5 30.5c-6 18.667 -14.333 32.667 -25 42c-9.33301 10.667 -20.666 16 -33.999 16
c-12.667 0 -24 -5 -34 -15s-18.667 -24.333 -26 -43c-2.66699 -8.66699 -5.33398 -19.334 -8.00098 -32.001s-5 -26.667 -7 -42s-3.16699 -28.666 -3.5 -39.999s-0.5 -20.333 -0.5 -27c0 -12.667 0.333008 -25.334 1 -38.001s2.33398 -28.667 5.00098 -48s7 -37.5 13 -54.5
s14.333 -31.167 25 -42.5s22.334 -17 35.001 -17zM843.996 -10.9941c-22.667 0 -42.501 5.66895 -59.501 17.002s-31 26.666 -42 45.999s-20.167 43.333 -27.5 72c-2.66699 13.333 -4.66699 26.5 -6 39.5s-2 28.167 -2 45.5c0 32.667 2.83301 61.667 8.5 87
s14 47.666 25 66.999s25.333 35 43 47s37.834 18 60.501 18s42.667 -5.83301 60 -17.5s31.5 -27.334 42.5 -47.001s19.5 -43.167 25.5 -70.5c2.66699 -13.333 4.66699 -26.5 6 -39.5s2 -27.833 2 -44.5c0 -29.333 -2.83301 -57.5 -8.5 -84.5s-14.167 -50.667 -25.5 -71
s-25.5 -36.166 -42.5 -47.499s-36.833 -17 -59.5 -17zM843.995 9.00781c12.667 0 23.998 5.50293 33.998 16.5029s18 25.5 24 43.5s11 39.333 15 64c2 16.667 3.33301 29 4 37s1 21 1 39c0 13.333 -0.333008 26.666 -1 39.999s-2 26 -4 38
c0 11.333 -1.16699 22.166 -3.5 32.499s-5.83301 20.5 -10.5 30.5c-6 18.667 -14.333 32.667 -25 42c-9.33301 10.667 -20.666 16 -33.999 16c-12.667 0 -24 -5 -34 -15s-18.667 -24.333 -26 -43c-2.66699 -8.66699 -5.33398 -19.334 -8.00098 -32.001s-5 -26.667 -7 -42
s-3.16699 -28.666 -3.5 -39.999s-0.5 -20.333 -0.5 -27c0 -12.667 0.333008 -25.334 1 -38.001s2.33398 -28.667 5.00098 -48s7 -37.5 13 -54.5s14.333 -31.167 25 -42.5s22.334 -17 35.001 -17z" />
    <glyph glyph-name="guilsinglleft" unicode="&#x2039;" horiz-adv-x="263" 
d="M243 23l-16.999 -20.0029l-75 54c-24.667 20 -43.667 37 -57 51c-18.667 18.667 -36.334 42 -53.001 70c-14 26 -21 50.333 -21 73c0 24 7.33301 48.5 22 73.5s32.334 47.5 53.001 67.5c12 12.667 30.333 28.667 55 48c17.333 14 29.666 23.667 36.999 29l39 27l17 -20
c-6 -4 -12.5 -9.16699 -19.5 -15.5s-15.167 -14.166 -24.5 -23.499c-18 -16.667 -33 -33 -45 -49c-14.667 -18.667 -28 -42 -40 -70c-2.66699 -7.33301 -6 -17.5 -10 -30.5s-6 -25.167 -6 -36.5c0 -18.667 4.83301 -39.167 14.5 -61.5s22.834 -44.166 39.501 -65.499
c9.33301 -13.333 22.666 -29.666 39.999 -48.999z" />
    <glyph glyph-name="guilsinglright" unicode="&#x203a;" horiz-adv-x="263" 
d="M37 496l34.001 -23.998l37 -29l35 -28l25 -23c22 -21.333 40 -43.833 54 -67.5s21 -48.167 21 -73.5c0 -24.667 -6.33301 -48.667 -19 -72s-31.334 -47 -56.001 -71l-25 -23l-35 -29l-37 -29l-34 -24l-17 20l23 22l25 27l24 28l19 24c16 20.667 29 42 39 64s15 43 15 63
c0 21.333 -5.33301 44.166 -16 68.499s-24 47.166 -40 68.499l-18 21l-24 25l-25 24l-22 18z" />
    <glyph glyph-name="trademark" unicode="&#x2122;" horiz-adv-x="722" 
d="M702 272h-134v20h46v349l-119 -369h-22l-120 369v-349h43v-20h-92v20h31v368h-31v20h95l103 -327l105 327h95v-20h-31v-368h31v-20zM283 549h-20.001c0 16 -2.66699 33 -8 51l-12 39c-1.33301 10 -4.66602 16 -9.99902 18s-12 3 -20 3h-33v-368h35v-20h-129v20h37v368
h-34l-19 -3c-4.66699 -0.666992 -9 -6.66699 -13 -18l-11 -44l-6 -46h-20v131h263v-131z" />
    <glyph glyph-name=".null" horiz-adv-x="0" 
 />
    <glyph glyph-name="nonmarkingreturn" horiz-adv-x="500" 
 />
    </font>
</defs>
</svg>
